<svg width="199" height="176" viewBox="0 0 199 176" fill="none" xmlns="http://www.w3.org/2000/svg">
<rect width="198.33" height="175.041" rx="11.61" fill="#47AB68"/>
<path fill-rule="evenodd" clip-rule="evenodd" d="M26.4845 14.5127H22.4936V19.6725L18.845 16.024L16.023 18.846L19.6716 22.4946H14.5117V26.4855H19.6716L16.023 30.134L18.845 32.9561L22.4936 29.3075V34.4673H26.4845V29.3075L30.1331 32.9561L32.9551 30.1341L29.3065 26.4855H34.4664V22.4946H29.3065L32.9551 18.846L30.1331 16.024L26.4845 19.6725V14.5127Z" fill="white"/>
<path d="M20.7601 60.546C20.7601 61.7906 20.7601 62.8574 20.7855 63.9242H21.2173C21.9031 63.9242 22.4111 63.5686 22.4111 60.546C22.4111 57.5234 21.9031 57.1932 21.2173 57.1932H20.7855C20.7601 58.26 20.7601 59.3268 20.7601 60.546ZM15.7309 60.546C15.7309 58.006 15.7817 55.72 15.7817 53.18C17.4581 52.926 19.3123 52.7482 20.7347 52.7482C25.0273 52.7482 27.7197 54.577 27.7197 60.546C27.7197 66.896 25.0527 68.2168 20.7855 68.2168C19.3885 68.2168 17.7883 68.0898 16.0357 67.912C15.8833 67.912 15.7817 67.8104 15.7817 67.658C15.7817 65.2704 15.7309 63.086 15.7309 60.546ZM29.8118 60.546C29.8118 58.006 29.8372 55.466 29.9134 52.926C30.7008 52.9006 34.333 52.8752 35.1712 52.8752C36.0348 52.8752 38.7526 52.9006 39.6162 52.926C39.7432 52.926 39.8448 53.053 39.8702 53.18C39.8702 53.9674 39.8702 54.6786 39.8702 55.3898C39.8702 55.9994 39.8702 56.609 39.8702 57.244C39.0574 57.2948 36.6698 57.2948 35.8316 57.2948C35.6284 57.2948 35.2728 57.2948 34.841 57.2948C34.841 57.7266 34.841 58.1838 34.841 58.641C35.857 58.641 37.2286 58.6664 37.889 58.6664C38.016 58.6664 38.1176 58.7934 38.143 58.9204C38.143 59.6316 38.143 60.2412 38.143 60.8508C38.143 61.3842 38.143 61.9176 38.143 62.5272H34.841C34.841 62.9844 34.841 63.4162 34.841 63.848H35.1712C36.0348 63.848 38.8034 63.8734 39.667 63.8988C39.794 63.8988 39.8956 64.0258 39.921 64.1528C39.921 64.9402 39.921 65.6514 39.921 66.3626C39.921 66.9722 39.921 67.5818 39.921 68.2168C39.1082 68.2676 36.3904 68.293 35.5522 68.293C34.6886 68.293 31.0056 68.2168 30.1674 68.166C30.015 68.166 29.9134 68.0644 29.9134 67.912C29.8626 65.5244 29.8118 63.086 29.8118 60.546ZM42.108 60.546C42.108 58.006 42.1334 55.466 42.2096 52.926C42.997 52.9006 46.6292 52.8752 47.4674 52.8752C48.331 52.8752 50.6932 52.9006 51.5568 52.926C51.6838 52.926 51.7854 53.053 51.8108 53.18C51.8108 53.9674 51.8108 54.6786 51.8108 55.3898C51.8108 55.9994 51.8108 56.609 51.8108 57.244C50.998 57.2948 48.9406 57.3202 48.1024 57.3202C47.9246 57.3202 47.6198 57.3202 47.2388 57.2948C47.2388 58.006 47.2388 58.7172 47.2388 59.5046C48.204 59.5046 49.474 59.53 50.0836 59.53C50.2106 59.53 50.3122 59.657 50.3376 59.784C50.3376 60.5714 50.3376 61.2826 50.3376 61.9938C50.3376 62.6034 50.3376 63.213 50.3376 63.848C49.6264 63.8988 48.1786 63.9242 47.2388 63.9242C47.2642 65.3466 47.2896 66.769 47.2896 68.166C46.4768 68.2168 45.8926 68.2422 45.0544 68.2422C44.1908 68.2422 43.3018 68.2168 42.4636 68.166C42.3112 68.166 42.2096 68.0644 42.2096 67.912C42.1588 65.5244 42.108 63.086 42.108 60.546ZM53.536 60.546C53.536 58.006 53.5614 55.466 53.6376 52.926C54.425 52.9006 55.0092 52.8752 55.8474 52.8752C56.711 52.8752 57.6 52.9006 58.4636 52.926C58.5906 52.926 58.7176 53.053 58.7176 53.18C58.7684 55.5676 58.8192 58.006 58.8192 60.546C58.8192 63.086 58.7684 65.626 58.7176 68.166C57.9048 68.2168 57.3206 68.2422 56.4824 68.2422C55.6188 68.2422 54.7298 68.2168 53.8916 68.166C53.7392 68.166 53.6376 68.0644 53.6376 67.912C53.5868 65.5244 53.536 63.086 53.536 60.546ZM61.417 60.546C61.417 58.006 61.4424 55.466 61.5186 52.926C62.306 52.9006 62.7632 52.8752 63.6014 52.8752C64.338 52.8752 64.9984 52.9006 65.8112 52.926C65.9382 52.9514 66.0144 53.053 66.0906 53.18L68.7068 59.6824L68.6306 52.926C69.418 52.9006 70.0022 52.8752 70.8404 52.8752C71.704 52.8752 72.4406 52.9006 73.2026 52.926C73.3296 52.9514 73.4566 53.053 73.4566 53.18C73.5074 55.5676 73.5582 58.006 73.5582 60.546C73.5582 63.086 73.5074 65.626 73.4566 68.166C72.7454 68.2168 72.3136 68.2422 71.4754 68.2422C70.7134 68.2422 69.9768 68.2168 69.164 68.166C69.0116 68.166 68.9354 68.0644 68.8846 67.912L66.243 61.435L66.3446 68.166C65.5318 68.2168 65.0746 68.2422 64.2364 68.2422C63.3728 68.2422 62.5854 68.2168 61.7726 68.166C61.6202 68.166 61.5186 68.0644 61.5186 67.912C61.4678 65.5244 61.417 63.086 61.417 60.546ZM76.144 60.546C76.144 58.006 76.1694 55.466 76.2456 52.926C77.033 52.9006 77.6172 52.8752 78.4554 52.8752C79.319 52.8752 80.208 52.9006 81.0716 52.926C81.1986 52.926 81.3256 53.053 81.3256 53.18C81.3764 55.5676 81.4272 58.006 81.4272 60.546C81.4272 63.086 81.3764 65.626 81.3256 68.166C80.5128 68.2168 79.9286 68.2422 79.0904 68.2422C78.2268 68.2422 77.3378 68.2168 76.4996 68.166C76.3472 68.166 76.2456 68.0644 76.2456 67.912C76.1948 65.5244 76.144 63.086 76.144 60.546ZM84.025 60.546C84.025 58.006 84.0504 55.466 84.1266 52.926C84.914 52.9006 85.3712 52.8752 86.2094 52.8752C86.946 52.8752 87.6064 52.9006 88.4192 52.926C88.5462 52.9514 88.6224 53.053 88.6986 53.18L91.3148 59.6824L91.2386 52.926C92.026 52.9006 92.6102 52.8752 93.4484 52.8752C94.312 52.8752 95.0486 52.9006 95.8106 52.926C95.9376 52.9514 96.0646 53.053 96.0646 53.18C96.1154 55.5676 96.1662 58.006 96.1662 60.546C96.1662 63.086 96.1154 65.626 96.0646 68.166C95.3534 68.2168 94.9216 68.2422 94.0834 68.2422C93.3214 68.2422 92.5848 68.2168 91.772 68.166C91.6196 68.166 91.5434 68.0644 91.4926 67.912L88.851 61.435L88.9526 68.166C88.1398 68.2168 87.6826 68.2422 86.8444 68.2422C85.9808 68.2422 85.1934 68.2168 84.3806 68.166C84.2282 68.166 84.1266 68.0644 84.1266 67.912C84.0758 65.5244 84.025 63.086 84.025 60.546ZM98.244 60.546C98.244 54.577 100.936 52.7482 105.229 52.7482C106.651 52.7482 108.15 52.926 109.776 53.18L109.242 57.1932H104.721C104.035 57.1932 103.527 57.5234 103.527 60.546C103.527 63.5686 104.137 63.8988 104.848 63.8988H105.356C105.356 62.8828 105.28 61.3588 105.254 60.038C105.94 60.0126 106.601 60.0126 107.261 60.0126C107.947 60.0126 108.658 60.0126 109.471 60.038C109.598 60.0634 109.699 60.165 109.725 60.292C109.776 61.4858 109.826 62.6034 109.826 63.848C109.826 65.0418 109.776 66.7436 109.725 67.7342C107.972 68.0644 107.007 68.2168 105.178 68.2168C100.911 68.2168 98.244 66.896 98.244 60.546ZM15.7309 87.546C15.7309 85.006 15.7817 82.6692 15.7817 80.18C17.4581 79.926 19.3123 79.7482 20.7347 79.7482C25.0273 79.7482 27.6181 80.307 27.6181 85.768C27.6181 90.594 25.0527 91.6608 20.8109 91.6608C20.8109 92.8292 20.8363 93.9976 20.8617 95.166C20.0997 95.2168 19.3631 95.2168 18.6265 95.2168C17.7629 95.2168 16.8993 95.2168 16.0357 95.166C15.8833 95.166 15.7817 95.0644 15.7817 94.912C15.7817 92.5244 15.7309 90.086 15.7309 87.546ZM20.7601 87.5206H21.1411C21.8269 87.5206 22.4619 87.3428 22.4619 85.8442C22.4619 84.2694 22.3349 84.0916 21.3189 84.0916H20.7601V87.5206ZM29.5898 87.2158C29.5898 84.6758 29.6406 82.72 29.6406 80.18C31.317 79.926 33.4252 79.7482 34.8476 79.7482C38.6322 79.7482 41.223 80.053 41.223 84.1678C41.223 86.0474 40.1816 87.4698 38.5052 88.2572C39.0894 88.4604 39.572 88.8668 39.9276 89.451C40.9182 91.4322 41.5024 93.261 41.9342 95.166C41.096 95.2676 40.1816 95.3184 39.2926 95.3184C38.6068 95.3184 37.921 95.293 37.2352 95.2422C37.1082 95.2422 36.905 95.1406 36.8542 94.9882C36.143 92.8292 35.4318 90.6702 34.9238 88.9176C34.8222 88.9176 34.6952 88.9176 34.5936 88.9176C34.619 91.0004 34.6952 93.1848 34.7206 95.166C33.9586 95.2168 33.222 95.2168 32.4854 95.2168C31.6218 95.2168 30.7582 95.2168 29.8946 95.166C29.7422 95.166 29.6406 95.0644 29.6406 94.912C29.6406 92.5244 29.5898 89.7558 29.5898 87.2158ZM34.5936 85.7934H35.0254C35.8128 85.7934 36.3716 85.3616 36.3716 84.7012C36.3716 83.9138 36.1176 83.482 35.2032 83.482C35 83.482 34.7714 83.482 34.5936 83.5074C34.5936 84.244 34.5936 84.9806 34.5936 85.7934ZM43.1627 87.546C43.1627 82.5676 45.3725 79.926 48.9539 79.7482C53.7799 79.7482 56.0659 81.6786 56.0659 87.546C56.0659 92.5498 53.8053 95.1406 50.2239 95.3184C45.3725 95.3184 43.1627 93.4388 43.1627 87.546ZM48.4459 87.546C48.4459 90.5686 48.9539 90.8988 49.6397 90.8988C50.3255 90.8988 50.7573 90.5686 50.7573 87.546C50.7573 84.5234 50.2493 84.1932 49.5635 84.1932C48.8777 84.1932 48.4459 84.5234 48.4459 87.546ZM63.2297 87.546C63.2297 88.7906 63.2297 89.8574 63.2551 90.9242H63.6869C64.3727 90.9242 64.8807 90.5686 64.8807 87.546C64.8807 84.5234 64.3727 84.1932 63.6869 84.1932H63.2551C63.2297 85.26 63.2297 86.3268 63.2297 87.546ZM58.2005 87.546C58.2005 85.006 58.2513 82.72 58.2513 80.18C59.9277 79.926 61.7819 79.7482 63.2043 79.7482C67.4969 79.7482 70.1893 81.577 70.1893 87.546C70.1893 93.896 67.5223 95.2168 63.2551 95.2168C61.8581 95.2168 60.2579 95.0898 58.5053 94.912C58.3529 94.912 58.2513 94.8104 58.2513 94.658C58.2513 92.2704 58.2005 90.086 58.2005 87.546ZM71.7988 87.6476C71.7988 85.1076 71.8242 82.466 71.9004 79.926C72.6878 79.9006 73.272 79.8752 74.1102 79.8752C74.9738 79.8752 75.8628 79.9006 76.7264 79.926C76.8534 79.926 76.9804 80.053 76.9804 80.18C77.0312 82.5676 77.082 85.8696 77.082 88.4096C77.082 90.6702 77.4122 91.0004 78.098 91.0004C78.7838 91.0004 79.0632 90.6702 79.0632 88.4096C79.0632 85.8696 79.0886 82.466 79.1648 79.926C79.9522 79.9006 80.5364 79.8752 81.3746 79.8752C82.2382 79.8752 83.1272 79.9006 83.9908 79.926C84.1178 79.926 84.2448 80.053 84.2448 80.18C84.2956 82.5676 84.3464 85.1076 84.3464 87.6476C84.3464 93.1594 82.2636 95.2422 78.6822 95.42C74.0848 95.42 71.7988 94.0484 71.7988 87.6476ZM85.9548 87.546C85.9548 81.577 88.6472 79.7482 92.9398 79.7482C93.9812 79.7482 94.794 79.9514 95.8354 80.18L95.2766 84.1678L92.9398 84.0154C92 83.9646 91.238 84.5234 91.238 87.546C91.238 90.5686 91.8984 91.1528 92.9398 91.102L95.2766 90.9242L95.81 94.9374C94.7686 95.1406 93.9304 95.2168 92.889 95.2168C88.6218 95.2168 85.9548 93.896 85.9548 87.546ZM96.9794 81.8564C96.9794 81.2468 96.9794 80.6118 97.0048 79.926C97.7922 79.9006 102.034 79.8752 102.872 79.8752C103.736 79.8752 107.266 79.9006 108.13 79.926C108.257 79.926 108.359 80.053 108.384 80.18C108.384 80.9166 108.384 81.6278 108.384 82.3644C108.384 82.974 108.384 83.609 108.384 84.244C107.952 84.2694 106.606 84.2948 105.285 84.2948C105.311 85.3362 105.336 86.3776 105.336 87.546C105.336 90.086 105.285 92.626 105.234 95.166C104.422 95.2168 103.837 95.2422 102.999 95.2422C102.136 95.2422 101.247 95.2168 100.408 95.166C100.256 95.166 100.154 95.0644 100.154 94.912C100.104 92.5244 100.053 90.086 100.053 87.546C100.053 86.3776 100.053 85.3362 100.053 84.2694C98.9098 84.244 97.6906 84.2186 97.2588 84.1932C97.1064 84.1932 97.0048 84.0916 97.0048 83.9392C96.9794 83.228 96.9794 82.5422 96.9794 81.8564ZM20.7601 114.546C20.7601 115.791 20.7601 116.857 20.7855 117.924H21.2173C21.9031 117.924 22.4111 117.569 22.4111 114.546C22.4111 111.523 21.9031 111.193 21.2173 111.193H20.7855C20.7601 112.26 20.7601 113.327 20.7601 114.546ZM15.7309 114.546C15.7309 112.006 15.7817 109.72 15.7817 107.18C17.4581 106.926 19.3123 106.748 20.7347 106.748C25.0273 106.748 27.7197 108.577 27.7197 114.546C27.7197 120.896 25.0527 122.217 20.7855 122.217C19.3885 122.217 17.7883 122.09 16.0357 121.912C15.8833 121.912 15.7817 121.81 15.7817 121.658C15.7817 119.27 15.7309 117.086 15.7309 114.546ZM29.8118 114.546C29.8118 112.006 29.8372 109.466 29.9134 106.926C30.7008 106.901 34.333 106.875 35.1712 106.875C36.0348 106.875 38.7526 106.901 39.6162 106.926C39.7432 106.926 39.8448 107.053 39.8702 107.18C39.8702 107.967 39.8702 108.679 39.8702 109.39C39.8702 109.999 39.8702 110.609 39.8702 111.244C39.0574 111.295 36.6698 111.295 35.8316 111.295C35.6284 111.295 35.2728 111.295 34.841 111.295C34.841 111.727 34.841 112.184 34.841 112.641C35.857 112.641 37.2286 112.666 37.889 112.666C38.016 112.666 38.1176 112.793 38.143 112.92C38.143 113.632 38.143 114.241 38.143 114.851C38.143 115.384 38.143 115.918 38.143 116.527H34.841C34.841 116.984 34.841 117.416 34.841 117.848H35.1712C36.0348 117.848 38.8034 117.873 39.667 117.899C39.794 117.899 39.8956 118.026 39.921 118.153C39.921 118.94 39.921 119.651 39.921 120.363C39.921 120.972 39.921 121.582 39.921 122.217C39.1082 122.268 36.3904 122.293 35.5522 122.293C34.6886 122.293 31.0056 122.217 30.1674 122.166C30.015 122.166 29.9134 122.064 29.9134 121.912C29.8626 119.524 29.8118 117.086 29.8118 114.546ZM41.8032 122.014L42.4128 117.442C44.1908 118 45.7656 118.331 46.9086 118.331C47.8738 118.331 48.2802 117.823 48.2802 117.416C48.2802 116.908 47.5436 116.705 46.553 116.426C44.648 115.892 41.8286 115.079 41.8286 111.168C41.8286 107.053 44.3686 106.748 47.8484 106.748C49.3216 106.748 51.0488 106.977 52.7506 107.307L52.1664 111.549C50.9726 111.015 49.1692 110.507 47.5944 110.507C46.807 110.507 46.299 110.761 46.299 111.219C46.299 111.676 47.0864 111.904 48.1278 112.209C50.236 112.844 53.3856 113.784 53.3856 117.315C53.3856 121.353 50.5916 122.293 47.1626 122.293C45.4354 122.293 43.5558 122.217 41.8032 122.014ZM55.3716 114.546C55.3716 112.006 55.397 109.466 55.4732 106.926C56.2606 106.901 56.8448 106.875 57.683 106.875C58.5466 106.875 59.4356 106.901 60.2992 106.926C60.4262 106.926 60.5532 107.053 60.5532 107.18C60.604 109.568 60.6548 112.006 60.6548 114.546C60.6548 117.086 60.604 119.626 60.5532 122.166C59.7404 122.217 59.1562 122.242 58.318 122.242C57.4544 122.242 56.5654 122.217 55.7272 122.166C55.5748 122.166 55.4732 122.064 55.4732 121.912C55.4224 119.524 55.3716 117.086 55.3716 114.546ZM62.7445 114.546C62.7445 108.577 65.4369 106.748 69.7295 106.748C71.1519 106.748 72.6505 106.926 74.2761 107.18L73.7427 111.193H69.2215C68.5357 111.193 68.0277 111.523 68.0277 114.546C68.0277 117.569 68.6373 117.899 69.3485 117.899H69.8565C69.8565 116.883 69.7803 115.359 69.7549 114.038C70.4407 114.013 71.1011 114.013 71.7615 114.013C72.4473 114.013 73.1585 114.013 73.9713 114.038C74.0983 114.063 74.1999 114.165 74.2253 114.292C74.2761 115.486 74.3269 116.603 74.3269 117.848C74.3269 119.042 74.2761 120.744 74.2253 121.734C72.4727 122.064 71.5075 122.217 69.6787 122.217C65.4115 122.217 62.7445 120.896 62.7445 114.546ZM76.7641 114.546C76.7641 112.006 76.7895 109.466 76.8657 106.926C77.6531 106.901 78.1103 106.875 78.9485 106.875C79.6851 106.875 80.3455 106.901 81.1583 106.926C81.2853 106.951 81.3615 107.053 81.4377 107.18L84.0539 113.682L83.9777 106.926C84.7651 106.901 85.3493 106.875 86.1875 106.875C87.0511 106.875 87.7877 106.901 88.5497 106.926C88.6767 106.951 88.8037 107.053 88.8037 107.18C88.8545 109.568 88.9053 112.006 88.9053 114.546C88.9053 117.086 88.8545 119.626 88.8037 122.166C88.0925 122.217 87.6607 122.242 86.8225 122.242C86.0605 122.242 85.3239 122.217 84.5111 122.166C84.3587 122.166 84.2825 122.064 84.2317 121.912L81.5901 115.435L81.6917 122.166C80.8789 122.217 80.4217 122.242 79.5835 122.242C78.7199 122.242 77.9325 122.217 77.1197 122.166C76.9673 122.166 76.8657 122.064 76.8657 121.912C76.8149 119.524 76.7641 117.086 76.7641 114.546ZM99.157 117.569C99.157 116.299 100.097 115.003 101.697 114.165C100.91 113.403 100.503 112.387 100.503 111.092C100.503 108.094 102.408 107.205 105.71 107.205C106.752 107.205 108.352 107.409 109.393 107.637L108.86 111.371L106.04 111.219C105.228 111.219 104.745 111.422 104.745 112.031C104.745 112.666 105.38 112.87 106.167 112.87L105.786 114.546H105.888C106.142 114.089 106.625 113.378 107.183 112.87C108.276 112.844 109.114 112.819 109.825 112.819C110.917 112.819 111.73 112.844 112.771 112.87C112.898 112.87 113 112.997 113.025 113.124C113.025 113.428 113.025 113.936 113.025 114.546C113.025 115.079 113.025 115.689 113.025 116.324C112.543 116.324 111.857 116.349 111.146 116.349C111.349 117.086 111.476 117.772 111.476 118.407C111.476 120.667 109.977 122.293 105.736 122.293C102.129 122.293 99.157 121.76 99.157 117.569ZM104.364 117.111C104.364 117.772 104.72 118.051 105.659 118.051C106.599 118.051 106.929 117.797 106.929 117.289C106.929 116.984 106.904 116.654 106.879 116.324C106.396 116.299 105.888 116.273 105.38 116.222C104.745 116.222 104.364 116.578 104.364 117.111ZM15.3753 149.014L15.9849 144.442C17.7629 145 19.3377 145.331 20.4807 145.331C21.4459 145.331 21.8523 144.823 21.8523 144.416C21.8523 143.908 21.1157 143.705 20.1251 143.426C18.2201 142.892 15.4007 142.079 15.4007 138.168C15.4007 134.053 17.9407 133.748 21.4205 133.748C22.8937 133.748 24.6209 133.977 26.3227 134.307L25.7385 138.549C24.5447 138.015 22.7413 137.507 21.1665 137.507C20.3791 137.507 19.8711 137.761 19.8711 138.219C19.8711 138.676 20.6585 138.904 21.6999 139.209C23.8081 139.844 26.9577 140.784 26.9577 144.315C26.9577 148.353 24.1637 149.293 20.7347 149.293C19.0075 149.293 17.1279 149.217 15.3753 149.014ZM27.9082 135.856C27.9082 135.247 27.9082 134.612 27.9336 133.926C28.721 133.901 32.9628 133.875 33.801 133.875C34.6646 133.875 38.1952 133.901 39.0588 133.926C39.1858 133.926 39.2874 134.053 39.3128 134.18C39.3128 134.917 39.3128 135.628 39.3128 136.364C39.3128 136.974 39.3128 137.609 39.3128 138.244C38.881 138.269 37.5348 138.295 36.214 138.295C36.2394 139.336 36.2648 140.378 36.2648 141.546C36.2648 144.086 36.214 146.626 36.1632 149.166C35.3504 149.217 34.7662 149.242 33.928 149.242C33.0644 149.242 32.1754 149.217 31.3372 149.166C31.1848 149.166 31.0832 149.064 31.0832 148.912C31.0324 146.524 30.9816 144.086 30.9816 141.546C30.9816 140.378 30.9816 139.336 30.9816 138.269C29.8386 138.244 28.6194 138.219 28.1876 138.193C28.0352 138.193 27.9336 138.092 27.9336 137.939C27.9082 137.228 27.9082 136.542 27.9082 135.856ZM41.1914 141.216C41.1914 138.676 41.2422 136.72 41.2422 134.18C42.9186 133.926 45.0268 133.748 46.4492 133.748C50.2338 133.748 52.8246 134.053 52.8246 138.168C52.8246 140.047 51.7832 141.47 50.1068 142.257C50.691 142.46 51.1736 142.867 51.5292 143.451C52.5198 145.432 53.104 147.261 53.5358 149.166C52.6976 149.268 51.7832 149.318 50.8942 149.318C50.2084 149.318 49.5226 149.293 48.8368 149.242C48.7098 149.242 48.5066 149.141 48.4558 148.988C47.7446 146.829 47.0334 144.67 46.5254 142.918C46.4238 142.918 46.2968 142.918 46.1952 142.918C46.2206 145 46.2968 147.185 46.3222 149.166C45.5602 149.217 44.8236 149.217 44.087 149.217C43.2234 149.217 42.3598 149.217 41.4962 149.166C41.3438 149.166 41.2422 149.064 41.2422 148.912C41.2422 146.524 41.1914 143.756 41.1914 141.216ZM46.1952 139.793H46.627C47.4144 139.793 47.9732 139.362 47.9732 138.701C47.9732 137.914 47.7192 137.482 46.8048 137.482C46.6016 137.482 46.373 137.482 46.1952 137.507C46.1952 138.244 46.1952 138.981 46.1952 139.793ZM54.3326 148.963C54.3326 148.912 54.4088 148.429 54.4596 148.175C55.2216 143.527 56.2884 138.625 57.2282 133.926C58.3712 133.875 59.5396 133.875 60.7334 133.875C61.9526 133.875 63.1464 133.901 64.3656 133.926C64.4926 133.926 64.6196 134.053 64.645 134.18C65.6102 139.057 66.804 144.238 67.5406 149.166C66.7532 149.217 66.1944 149.242 65.3308 149.242C64.4672 149.242 63.7306 149.242 62.8416 149.166C62.7146 149.166 62.5876 149.064 62.5622 148.912C62.3844 148.099 62.232 147.236 62.105 146.372H59.7428C59.5904 147.312 59.438 148.252 59.2602 149.166C58.4474 149.217 57.9902 149.242 57.152 149.242C56.2884 149.242 55.3994 149.217 54.5612 149.166C54.4342 149.166 54.3326 149.09 54.3326 148.963ZM60.1746 143.07H61.597C61.3176 141.19 61.0636 139.285 60.8096 137.38C60.581 139.26 60.3778 141.165 60.1746 143.07ZM67.8726 135.856C67.8726 135.247 67.8726 134.612 67.898 133.926C68.6854 133.901 72.9272 133.875 73.7654 133.875C74.629 133.875 78.1596 133.901 79.0232 133.926C79.1502 133.926 79.2518 134.053 79.2772 134.18C79.2772 134.917 79.2772 135.628 79.2772 136.364C79.2772 136.974 79.2772 137.609 79.2772 138.244C78.8454 138.269 77.4992 138.295 76.1784 138.295C76.2038 139.336 76.2292 140.378 76.2292 141.546C76.2292 144.086 76.1784 146.626 76.1276 149.166C75.3148 149.217 74.7306 149.242 73.8924 149.242C73.0288 149.242 72.1398 149.217 71.3016 149.166C71.1492 149.166 71.0476 149.064 71.0476 148.912C70.9968 146.524 70.946 144.086 70.946 141.546C70.946 140.378 70.946 139.336 70.946 138.269C69.803 138.244 68.5838 138.219 68.152 138.193C67.9996 138.193 67.898 138.092 67.898 137.939C67.8726 137.228 67.8726 136.542 67.8726 135.856ZM81.105 141.546C81.105 139.006 81.1304 136.466 81.2066 133.926C81.994 133.901 85.6262 133.875 86.4644 133.875C87.328 133.875 90.0458 133.901 90.9094 133.926C91.0364 133.926 91.138 134.053 91.1634 134.18C91.1634 134.967 91.1634 135.679 91.1634 136.39C91.1634 136.999 91.1634 137.609 91.1634 138.244C90.3506 138.295 87.963 138.295 87.1248 138.295C86.9216 138.295 86.566 138.295 86.1342 138.295C86.1342 138.727 86.1342 139.184 86.1342 139.641C87.1502 139.641 88.5218 139.666 89.1822 139.666C89.3092 139.666 89.4108 139.793 89.4362 139.92C89.4362 140.632 89.4362 141.241 89.4362 141.851C89.4362 142.384 89.4362 142.918 89.4362 143.527H86.1342C86.1342 143.984 86.1342 144.416 86.1342 144.848H86.4644C87.328 144.848 90.0966 144.873 90.9602 144.899C91.0872 144.899 91.1888 145.026 91.2142 145.153C91.2142 145.94 91.2142 146.651 91.2142 147.363C91.2142 147.972 91.2142 148.582 91.2142 149.217C90.4014 149.268 87.6836 149.293 86.8454 149.293C85.9818 149.293 82.2988 149.217 81.4606 149.166C81.3082 149.166 81.2066 149.064 81.2066 148.912C81.1558 146.524 81.105 144.086 81.105 141.546ZM92.8931 141.546C92.8931 135.577 95.5855 133.748 99.8781 133.748C101.301 133.748 102.799 133.926 104.425 134.18L103.891 138.193H99.3701C98.6843 138.193 98.1763 138.523 98.1763 141.546C98.1763 144.569 98.7859 144.899 99.4971 144.899H100.005C100.005 143.883 99.9289 142.359 99.9035 141.038C100.589 141.013 101.25 141.013 101.91 141.013C102.596 141.013 103.307 141.013 104.12 141.038C104.247 141.063 104.349 141.165 104.374 141.292C104.425 142.486 104.476 143.603 104.476 144.848C104.476 146.042 104.425 147.744 104.374 148.734C102.621 149.064 101.656 149.217 99.8273 149.217C95.5601 149.217 92.8931 147.896 92.8931 141.546ZM105.948 134.028C106.786 133.926 107.675 133.875 108.589 133.875C109.275 133.875 109.961 133.901 110.647 133.951C110.774 133.951 110.977 134.053 111.028 134.205C111.586 135.907 112.171 138.015 112.653 139.743C113.11 138.015 113.72 135.907 114.279 134.205C114.33 134.053 114.533 133.951 114.66 133.951C115.346 133.901 116.031 133.875 116.717 133.875C117.606 133.875 118.521 133.926 119.359 134.028C118.927 135.958 118.241 138.549 117.251 140.505C116.666 141.495 115.955 142.283 115.193 142.892C115.219 145 115.244 147.083 115.269 149.166C114.457 149.217 113.822 149.242 112.983 149.242C112.12 149.242 111.18 149.217 110.342 149.166C110.189 149.166 110.088 149.064 110.088 148.912C110.088 146.956 110.088 144.95 110.113 142.892C109.351 142.283 108.64 141.495 108.056 140.505C107.065 138.549 106.379 135.958 105.948 134.028Z" fill="#1E3124"/>
</svg>
