<svg width="160" height="176" viewBox="0 0 160 176" fill="none" xmlns="http://www.w3.org/2000/svg">
<rect x="0.359375" width="159.64" height="175.041" rx="11.61" fill="#FFAB4E"/>
<g clip-path="url(#clip0_1044_11005)">
<path fill-rule="evenodd" clip-rule="evenodd" d="M24.9226 21.7498C23.3682 21.7498 22.1082 23.0098 22.1082 24.5642C22.1082 26.1186 23.3682 27.3786 24.9226 27.3786C26.477 27.3786 27.737 26.1186 27.737 24.5642C27.737 23.0098 26.477 21.7498 24.9226 21.7498ZM14.8711 24.5642C14.8711 19.0129 19.3713 14.5127 24.9226 14.5127C30.4739 14.5127 34.9741 19.0129 34.9741 24.5642C34.9741 30.1155 30.4739 34.6157 24.9226 34.6157C19.3713 34.6157 14.8711 30.1155 14.8711 24.5642Z" fill="white"/>
</g>
<path d="M20.8247 57.894H20.9955C21.7519 57.894 22.4107 57.528 22.4107 56.8448C22.4107 56.186 21.7763 55.8688 21.1419 55.8688C21.0443 55.8688 20.8979 55.8688 20.8491 55.8932C20.8247 56.5032 20.8247 57.1376 20.8247 57.894ZM20.8491 61.5052C20.8491 62.164 20.8735 62.8228 20.8979 63.4816H21.2883C22.2155 63.4816 22.5815 63.1156 22.5815 62.4812C22.5815 61.92 22.1179 61.5052 21.4591 61.5052H20.8491ZM16.0423 59.5288C16.0423 57.0888 16.0911 55.21 16.0911 52.77C17.7015 52.526 19.4827 52.3552 20.8491 52.3552C24.2407 52.3552 26.7295 52.648 26.7295 56.6008C26.7295 57.894 26.1927 58.992 25.3143 59.7484C26.6563 60.5048 27.4615 61.5784 27.4615 62.7496C27.4615 66.6292 24.8263 67.288 21.5323 67.288C19.8731 67.288 18.0187 67.2148 16.3351 67.0196C16.1887 66.9952 16.0911 66.8732 16.0911 66.7268C16.0911 64.4332 16.0423 61.9688 16.0423 59.5288ZM28.8431 59.9436C28.8431 57.5036 28.8675 54.966 28.9407 52.526C29.6971 52.5016 30.2583 52.4772 31.0635 52.4772C31.8931 52.4772 32.7471 52.5016 33.5767 52.526C33.6987 52.526 33.8207 52.648 33.8207 52.77C33.8695 55.0636 33.9183 58.2356 33.9183 60.6756C33.9183 62.8472 34.2355 63.1644 34.8943 63.1644C35.5531 63.1644 35.8215 62.8472 35.8215 60.6756C35.8215 58.2356 35.8459 54.966 35.9191 52.526C36.6755 52.5016 37.2367 52.4772 38.0419 52.4772C38.8715 52.4772 39.7255 52.5016 40.5551 52.526C40.6771 52.526 40.7991 52.648 40.7991 52.77C40.8479 55.0636 40.8967 57.5036 40.8967 59.9436C40.8967 65.2384 38.8959 67.2392 35.4555 67.41C31.0391 67.41 28.8431 66.0924 28.8431 59.9436ZM42.9298 59.846C42.9298 57.406 42.9542 54.966 43.0274 52.526C43.7838 52.5016 44.345 52.4772 45.1502 52.4772C45.9798 52.4772 46.8338 52.5016 47.6634 52.526C47.7854 52.526 47.9074 52.648 47.9074 52.77C47.9562 55.0636 48.005 57.406 48.005 59.846C48.005 62.286 47.9562 64.726 47.9074 67.166C47.1266 67.2148 46.5654 67.2392 45.7602 67.2392C44.9306 67.2392 44.0766 67.2148 43.2714 67.166C43.125 67.166 43.0274 67.0684 43.0274 66.922C42.9786 64.6284 42.9298 62.286 42.9298 59.846ZM50.5004 59.846C50.5004 57.406 50.5248 54.966 50.598 52.526C51.3544 52.5016 51.9156 52.4772 52.7208 52.4772C53.5504 52.4772 54.4044 52.5016 55.234 52.526C55.356 52.526 55.478 52.648 55.478 52.77C55.5268 55.0636 55.5756 57.406 55.5756 59.846C55.5756 60.944 55.5512 61.9932 55.5512 63.018H55.6488C56.4784 63.018 58.5524 63.0424 59.382 63.0668C59.504 63.0668 59.6016 63.1888 59.626 63.3108C59.626 64.0672 59.626 64.7504 59.626 65.4336C59.626 66.0192 59.626 66.6048 59.626 67.2148C58.8452 67.2636 56.82 67.288 56.0148 67.288C55.1852 67.288 51.6472 67.2148 50.842 67.166C50.6956 67.166 50.598 67.0684 50.598 66.922C50.5492 64.6284 50.5004 62.286 50.5004 59.846ZM66.1202 59.846C66.1202 61.0416 66.1202 62.0664 66.1446 63.0912H66.5594C67.2182 63.0912 67.7062 62.7496 67.7062 59.846C67.7062 56.9424 67.2182 56.6252 66.5594 56.6252H66.1446C66.1202 57.65 66.1202 58.6748 66.1202 59.846ZM61.289 59.846C61.289 57.406 61.3378 55.21 61.3378 52.77C62.9482 52.526 64.7294 52.3552 66.0958 52.3552C70.2194 52.3552 72.8058 54.112 72.8058 59.846C72.8058 65.946 70.2438 67.2148 66.1446 67.2148C64.8026 67.2148 63.2654 67.0928 61.5818 66.922C61.4354 66.922 61.3378 66.8244 61.3378 66.678C61.3378 64.3844 61.289 62.286 61.289 59.846ZM74.8156 59.846C74.8156 57.406 74.84 54.966 74.9132 52.526C75.6696 52.5016 76.2308 52.4772 77.036 52.4772C77.8656 52.4772 78.7196 52.5016 79.5492 52.526C79.6712 52.526 79.7932 52.648 79.7932 52.77C79.842 55.0636 79.8908 57.406 79.8908 59.846C79.8908 62.286 79.842 64.726 79.7932 67.166C79.0124 67.2148 78.4512 67.2392 77.646 67.2392C76.8164 67.2392 75.9624 67.2148 75.1572 67.166C75.0108 67.166 74.9132 67.0684 74.9132 66.922C74.8644 64.6284 74.8156 62.286 74.8156 59.846ZM82.3863 59.846C82.3863 57.406 82.4107 54.966 82.4839 52.526C83.2403 52.5016 83.6795 52.4772 84.4847 52.4772C85.1923 52.4772 85.8267 52.5016 86.6075 52.526C86.7295 52.5504 86.8027 52.648 86.8759 52.77L89.3891 59.0164L89.3159 52.526C90.0723 52.5016 90.6335 52.4772 91.4387 52.4772C92.2683 52.4772 92.9759 52.5016 93.7079 52.526C93.8299 52.5504 93.9519 52.648 93.9519 52.77C94.0007 55.0636 94.0495 57.406 94.0495 59.846C94.0495 62.286 94.0007 64.726 93.9519 67.166C93.2687 67.2148 92.8539 67.2392 92.0487 67.2392C91.3167 67.2392 90.6091 67.2148 89.8283 67.166C89.6819 67.166 89.6087 67.0684 89.5599 66.922L87.0223 60.7L87.1199 67.166C86.3391 67.2148 85.8999 67.2392 85.0947 67.2392C84.2651 67.2392 83.5087 67.2148 82.7279 67.166C82.5815 67.166 82.4839 67.0684 82.4839 66.922C82.4351 64.6284 82.3863 62.286 82.3863 59.846ZM96.0455 59.846C96.0455 54.112 98.6319 52.3552 102.756 52.3552C104.122 52.3552 105.562 52.526 107.123 52.77L106.611 56.6252H102.268C101.609 56.6252 101.121 56.9424 101.121 59.846C101.121 62.7496 101.706 63.0668 102.39 63.0668H102.878C102.878 62.0908 102.804 60.6268 102.78 59.358C103.439 59.3336 104.073 59.3336 104.708 59.3336C105.366 59.3336 106.05 59.3336 106.83 59.358C106.952 59.3824 107.05 59.48 107.074 59.602C107.123 60.7488 107.172 61.8224 107.172 63.018C107.172 64.1648 107.123 65.7996 107.074 66.7512C105.391 67.0684 104.464 67.2148 102.707 67.2148C98.6075 67.2148 96.0455 65.946 96.0455 59.846ZM20.8735 85.846C20.8735 87.0416 20.8735 88.0664 20.8979 89.0912H21.3127C21.9715 89.0912 22.4595 88.7496 22.4595 85.846C22.4595 82.9424 21.9715 82.6252 21.3127 82.6252H20.8979C20.8735 83.65 20.8735 84.6748 20.8735 85.846ZM16.0423 85.846C16.0423 83.406 16.0911 81.21 16.0911 78.77C17.7015 78.526 19.4827 78.3552 20.8491 78.3552C24.9727 78.3552 27.5591 80.112 27.5591 85.846C27.5591 91.946 24.9971 93.2148 20.8979 93.2148C19.5559 93.2148 18.0187 93.0928 16.3351 92.922C16.1887 92.922 16.0911 92.8244 16.0911 92.678C16.0911 90.3844 16.0423 88.286 16.0423 85.846ZM29.5689 85.846C29.5689 83.406 29.5933 80.966 29.6665 78.526C30.4229 78.5016 33.9121 78.4772 34.7173 78.4772C35.5469 78.4772 38.1577 78.5016 38.9873 78.526C39.1093 78.526 39.2069 78.648 39.2313 78.77C39.2313 79.5264 39.2313 80.2096 39.2313 80.8928C39.2313 81.4784 39.2313 82.064 39.2313 82.674C38.4505 82.7228 36.1569 82.7228 35.3517 82.7228C35.1565 82.7228 34.8149 82.7228 34.4001 82.7228C34.4001 83.1376 34.4001 83.5768 34.4001 84.016C35.3761 84.016 36.6937 84.0404 37.3281 84.0404C37.4501 84.0404 37.5477 84.1624 37.5721 84.2844C37.5721 84.9676 37.5721 85.5532 37.5721 86.1388C37.5721 86.6512 37.5721 87.1636 37.5721 87.7492H34.4001C34.4001 88.1884 34.4001 88.6032 34.4001 89.018H34.7173C35.5469 89.018 38.2065 89.0424 39.0361 89.0668C39.1581 89.0668 39.2557 89.1888 39.2801 89.3108C39.2801 90.0672 39.2801 90.7504 39.2801 91.4336C39.2801 92.0192 39.2801 92.6048 39.2801 93.2148C38.4993 93.2636 35.8885 93.288 35.0833 93.288C34.2537 93.288 30.7157 93.2148 29.9105 93.166C29.7641 93.166 29.6665 93.0684 29.6665 92.922C29.6177 90.6284 29.5689 88.286 29.5689 85.846ZM41.3809 85.846C41.3809 83.406 41.4053 80.966 41.4785 78.526C42.2349 78.5016 42.7961 78.4772 43.6013 78.4772C44.4309 78.4772 45.2849 78.5016 46.1145 78.526C46.2365 78.526 46.3585 78.648 46.3585 78.77C46.4073 81.0636 46.4561 83.406 46.4561 85.846C46.4561 86.944 46.4317 87.9932 46.4317 89.018H46.5293C47.3589 89.018 49.4329 89.0424 50.2625 89.0668C50.3845 89.0668 50.4821 89.1888 50.5065 89.3108C50.5065 90.0672 50.5065 90.7504 50.5065 91.4336C50.5065 92.0192 50.5065 92.6048 50.5065 93.2148C49.7257 93.2636 47.7005 93.288 46.8953 93.288C46.0657 93.288 42.5277 93.2148 41.7225 93.166C41.5761 93.166 41.4785 93.0684 41.4785 92.922C41.4297 90.6284 41.3809 88.286 41.3809 85.846ZM52.1207 85.846C52.1207 83.406 52.1451 80.966 52.2183 78.526C52.9747 78.5016 53.5359 78.4772 54.3411 78.4772C55.1707 78.4772 56.0247 78.5016 56.8543 78.526C56.9763 78.526 57.0983 78.648 57.0983 78.77C57.1471 81.0636 57.1959 83.406 57.1959 85.846C57.1959 88.286 57.1471 90.726 57.0983 93.166C56.3175 93.2148 55.7563 93.2392 54.9511 93.2392C54.1215 93.2392 53.2675 93.2148 52.4623 93.166C52.3159 93.166 52.2183 93.0684 52.2183 92.922C52.1695 90.6284 52.1207 88.286 52.1207 85.846ZM59.2034 85.846C59.2034 80.112 61.7898 78.3552 65.9134 78.3552C67.2798 78.3552 68.7194 78.526 70.281 78.77L69.7686 82.6252H65.4254C64.7666 82.6252 64.2786 82.9424 64.2786 85.846C64.2786 88.7496 64.8642 89.0668 65.5474 89.0668H66.0354C66.0354 88.0908 65.9622 86.6268 65.9378 85.358C66.5966 85.3336 67.231 85.3336 67.8654 85.3336C68.5242 85.3336 69.2074 85.3336 69.9882 85.358C70.1102 85.3824 70.2078 85.48 70.2322 85.602C70.281 86.7488 70.3298 87.8224 70.3298 89.018C70.3298 90.1648 70.281 91.7996 70.2322 92.7512C68.5486 93.0684 67.6214 93.2148 65.8646 93.2148C61.7654 93.2148 59.2034 91.946 59.2034 85.846ZM72.6711 85.846C72.6711 83.406 72.6955 80.966 72.7687 78.526C73.5251 78.5016 74.0863 78.4772 74.8915 78.4772C75.7211 78.4772 76.5751 78.5016 77.4047 78.526C77.5267 78.526 77.6487 78.648 77.6487 78.77C77.6731 80.4536 77.6731 82.1616 77.6731 83.894H79.2835C79.2835 82.0884 79.3079 80.3316 79.3567 78.526C80.1131 78.5016 80.6743 78.4772 81.4795 78.4772C82.3091 78.4772 83.1631 78.5016 83.9927 78.526C84.1147 78.526 84.2367 78.648 84.2367 78.77C84.2855 81.0636 84.3343 83.406 84.3343 85.846C84.3343 88.286 84.2855 90.726 84.2367 93.166C83.4559 93.2148 82.8947 93.2392 82.0895 93.2392C81.2599 93.2392 80.4059 93.2148 79.6007 93.166C79.4543 93.166 79.3567 93.0684 79.3567 92.922C79.3079 91.336 79.3079 89.7256 79.3079 88.042H77.6975C77.6975 89.75 77.6731 91.458 77.6487 93.166C76.8679 93.2148 76.3067 93.2392 75.5015 93.2392C74.6719 93.2392 73.8179 93.2148 73.0127 93.166C72.8663 93.166 72.7687 93.0684 72.7687 92.922C72.7199 90.6284 72.6711 88.286 72.6711 85.846ZM86.0619 80.3804C86.0619 79.7948 86.0619 79.1848 86.0863 78.526C86.8427 78.5016 90.9175 78.4772 91.7227 78.4772C92.5523 78.4772 95.9439 78.5016 96.7735 78.526C96.8955 78.526 96.9931 78.648 97.0175 78.77C97.0175 79.4776 97.0175 80.1608 97.0175 80.8684C97.0175 81.454 97.0175 82.064 97.0175 82.674C96.6027 82.6984 95.3095 82.7228 94.0407 82.7228C94.0651 83.7232 94.0895 84.7236 94.0895 85.846C94.0895 88.286 94.0407 90.726 93.9919 93.166C93.2111 93.2148 92.6499 93.2392 91.8447 93.2392C91.0151 93.2392 90.1611 93.2148 89.3559 93.166C89.2095 93.166 89.1119 93.0684 89.1119 92.922C89.0631 90.6284 89.0143 88.286 89.0143 85.846C89.0143 84.7236 89.0143 83.7232 89.0143 82.6984C87.9163 82.674 86.7451 82.6496 86.3303 82.6252C86.1839 82.6252 86.0863 82.5276 86.0863 82.3812C86.0619 81.698 86.0619 81.0392 86.0619 80.3804ZM98.7734 85.846C98.7734 83.406 98.7978 80.966 98.871 78.526C99.6274 78.5016 103.117 78.4772 103.922 78.4772C104.751 78.4772 107.021 78.5016 107.85 78.526C107.972 78.526 108.07 78.648 108.094 78.77C108.094 79.5264 108.094 80.2096 108.094 80.8928C108.094 81.4784 108.094 82.064 108.094 82.674C107.313 82.7228 105.337 82.7472 104.532 82.7472C104.361 82.7472 104.068 82.7472 103.702 82.7228C103.702 83.406 103.702 84.0892 103.702 84.8456C104.629 84.8456 105.849 84.87 106.435 84.87C106.557 84.87 106.655 84.992 106.679 85.114C106.679 85.8704 106.679 86.5536 106.679 87.2368C106.679 87.8224 106.679 88.408 106.679 89.018C105.996 89.0668 104.605 89.0912 103.702 89.0912C103.727 90.4576 103.751 91.824 103.751 93.166C102.97 93.2148 102.409 93.2392 101.604 93.2392C100.774 93.2392 99.9202 93.2148 99.115 93.166C98.9686 93.166 98.871 93.0684 98.871 92.922C98.8222 90.6284 98.7734 88.286 98.7734 85.846ZM109.288 85.9436C109.288 83.5036 109.312 80.966 109.385 78.526C110.142 78.5016 110.703 78.4772 111.508 78.4772C112.338 78.4772 113.192 78.5016 114.021 78.526C114.143 78.526 114.265 78.648 114.265 78.77C114.314 81.0636 114.363 84.2356 114.363 86.6756C114.363 88.8472 114.68 89.1644 115.339 89.1644C115.998 89.1644 116.266 88.8472 116.266 86.6756C116.266 84.2356 116.291 80.966 116.364 78.526C117.12 78.5016 117.681 78.4772 118.487 78.4772C119.316 78.4772 120.17 78.5016 121 78.526C121.122 78.526 121.244 78.648 121.244 78.77C121.293 81.0636 121.341 83.5036 121.341 85.9436C121.341 91.2384 119.341 93.2392 115.9 93.41C111.484 93.41 109.288 92.0924 109.288 85.9436ZM123.374 85.846C123.374 83.406 123.399 80.966 123.472 78.526C124.228 78.5016 124.79 78.4772 125.595 78.4772C126.424 78.4772 127.278 78.5016 128.108 78.526C128.23 78.526 128.352 78.648 128.352 78.77C128.401 81.0636 128.45 83.406 128.45 85.846C128.45 86.944 128.425 87.9932 128.425 89.018H128.523C129.352 89.018 131.426 89.0424 132.256 89.0668C132.378 89.0668 132.476 89.1888 132.5 89.3108C132.5 90.0672 132.5 90.7504 132.5 91.4336C132.5 92.0192 132.5 92.6048 132.5 93.2148C131.719 93.2636 129.694 93.288 128.889 93.288C128.059 93.288 124.521 93.2148 123.716 93.166C123.57 93.166 123.472 93.0684 123.472 92.922C123.423 90.6284 123.374 88.286 123.374 85.846ZM15.5055 111.846C15.5055 106.112 18.0919 104.355 22.2155 104.355C23.2159 104.355 23.9967 104.55 24.9971 104.77L24.4603 108.601L22.2155 108.454C21.3127 108.406 20.5807 108.942 20.5807 111.846C20.5807 114.75 21.2151 115.311 22.2155 115.262L24.4603 115.091L24.9727 118.946C23.9723 119.142 23.1671 119.215 22.1667 119.215C18.0675 119.215 15.5055 117.946 15.5055 111.846ZM26.3644 111.846C26.3644 107.064 28.4872 104.526 31.9276 104.355C36.5636 104.355 38.7596 106.21 38.7596 111.846C38.7596 116.653 36.588 119.142 33.1476 119.312C28.4872 119.312 26.3644 117.507 26.3644 111.846ZM31.4396 111.846C31.4396 114.75 31.9276 115.067 32.5864 115.067C33.2452 115.067 33.66 114.75 33.66 111.846C33.66 108.942 33.172 108.625 32.5132 108.625C31.8544 108.625 31.4396 108.942 31.4396 111.846ZM40.7614 111.846C40.7614 109.406 40.7858 106.966 40.859 104.526C41.6154 104.502 42.0546 104.477 42.8598 104.477C43.5674 104.477 44.2018 104.502 44.9826 104.526C45.1046 104.55 45.1778 104.648 45.251 104.77L47.7642 111.016L47.691 104.526C48.4474 104.502 49.0086 104.477 49.8138 104.477C50.6434 104.477 51.351 104.502 52.083 104.526C52.205 104.55 52.327 104.648 52.327 104.77C52.3758 107.064 52.4246 109.406 52.4246 111.846C52.4246 114.286 52.3758 116.726 52.327 119.166C51.6438 119.215 51.229 119.239 50.4238 119.239C49.6918 119.239 48.9842 119.215 48.2034 119.166C48.057 119.166 47.9838 119.068 47.935 118.922L45.3974 112.7L45.495 119.166C44.7142 119.215 44.275 119.239 43.4698 119.239C42.6402 119.239 41.8838 119.215 41.103 119.166C40.9566 119.166 40.859 119.068 40.859 118.922C40.8102 116.628 40.7614 114.286 40.7614 111.846ZM54.6158 119.02L55.2014 114.628C56.9094 115.164 58.4222 115.482 59.5202 115.482C60.4474 115.482 60.8378 114.994 60.8378 114.603C60.8378 114.115 60.1302 113.92 59.1786 113.652C57.3486 113.139 54.6402 112.358 54.6402 108.601C54.6402 104.648 57.0802 104.355 60.423 104.355C61.8382 104.355 63.4974 104.575 65.1322 104.892L64.571 108.967C63.4242 108.454 61.6918 107.966 60.179 107.966C59.4226 107.966 58.9346 108.21 58.9346 108.65C58.9346 109.089 59.691 109.308 60.6914 109.601C62.7166 110.211 65.7422 111.114 65.7422 114.506C65.7422 118.385 63.0582 119.288 59.7642 119.288C58.105 119.288 56.2994 119.215 54.6158 119.02ZM67.1864 111.944C67.1864 109.504 67.2108 106.966 67.284 104.526C68.0404 104.502 68.6016 104.477 69.4068 104.477C70.2364 104.477 71.0904 104.502 71.92 104.526C72.042 104.526 72.164 104.648 72.164 104.77C72.2128 107.064 72.2616 110.236 72.2616 112.676C72.2616 114.847 72.5788 115.164 73.2376 115.164C73.8964 115.164 74.1648 114.847 74.1648 112.676C74.1648 110.236 74.1892 106.966 74.2624 104.526C75.0188 104.502 75.58 104.477 76.3852 104.477C77.2148 104.477 78.0688 104.502 78.8984 104.526C79.0204 104.526 79.1424 104.648 79.1424 104.77C79.1912 107.064 79.24 109.504 79.24 111.944C79.24 117.238 77.2392 119.239 73.7988 119.41C69.3824 119.41 67.1864 118.092 67.1864 111.944ZM81.273 111.846C81.273 109.406 81.2974 106.966 81.3706 104.526C82.127 104.502 82.5662 104.477 83.3714 104.477C84.201 104.477 84.7622 104.502 85.4942 104.526C85.6162 104.55 85.7138 104.672 85.7626 104.77L88.8126 111.041L91.887 104.77C91.9602 104.672 92.0578 104.55 92.1798 104.55C92.619 104.502 93.2046 104.477 93.8878 104.477C94.7174 104.477 95.4738 104.502 96.157 104.526C96.279 104.55 96.401 104.648 96.401 104.77C96.4498 107.064 96.4986 109.406 96.4986 111.846C96.4986 114.286 96.4498 116.726 96.401 119.166C95.6934 119.215 95.303 119.239 94.4978 119.239C93.9122 119.239 93.0582 119.215 92.253 119.166C92.1066 119.166 92.009 119.068 92.009 118.922C91.9602 116.775 91.8626 114.579 91.8626 112.285L89.081 117.946L88.8126 117.995L88.5686 117.946L85.909 112.554L86.0066 119.166C85.2258 119.215 84.7866 119.239 83.9814 119.239C83.3958 119.239 82.4198 119.215 81.6146 119.166C81.4682 119.166 81.3706 119.068 81.3706 118.922C81.3218 116.628 81.273 114.286 81.273 111.846ZM98.9945 111.846C98.9945 109.406 99.0189 106.966 99.0921 104.526C99.8485 104.502 103.338 104.477 104.143 104.477C104.972 104.477 107.583 104.502 108.413 104.526C108.535 104.526 108.632 104.648 108.657 104.77C108.657 105.526 108.657 106.21 108.657 106.893C108.657 107.478 108.657 108.064 108.657 108.674C107.876 108.723 105.582 108.723 104.777 108.723C104.582 108.723 104.24 108.723 103.826 108.723C103.826 109.138 103.826 109.577 103.826 110.016C104.802 110.016 106.119 110.04 106.754 110.04C106.876 110.04 106.973 110.162 106.998 110.284C106.998 110.968 106.998 111.553 106.998 112.139C106.998 112.651 106.998 113.164 106.998 113.749H103.826C103.826 114.188 103.826 114.603 103.826 115.018H104.143C104.972 115.018 107.632 115.042 108.462 115.067C108.584 115.067 108.681 115.189 108.706 115.311C108.706 116.067 108.706 116.75 108.706 117.434C108.706 118.019 108.706 118.605 108.706 119.215C107.925 119.264 105.314 119.288 104.509 119.288C103.679 119.288 100.141 119.215 99.3361 119.166C99.1897 119.166 99.0921 119.068 99.0921 118.922C99.0433 116.628 98.9945 114.286 98.9945 111.846ZM110.855 111.529C110.855 109.089 110.904 107.21 110.904 104.77C112.515 104.526 114.54 104.355 115.906 104.355C119.542 104.355 122.031 104.648 122.031 108.601C122.031 110.406 121.03 111.773 119.42 112.529C119.981 112.724 120.445 113.115 120.786 113.676C121.738 115.579 122.299 117.336 122.714 119.166C121.909 119.264 121.03 119.312 120.176 119.312C119.517 119.312 118.859 119.288 118.2 119.239C118.078 119.239 117.883 119.142 117.834 118.995C117.151 116.921 116.467 114.847 115.979 113.164C115.882 113.164 115.76 113.164 115.662 113.164C115.687 115.164 115.76 117.263 115.784 119.166C115.052 119.215 114.345 119.215 113.637 119.215C112.807 119.215 111.978 119.215 111.148 119.166C111.002 119.166 110.904 119.068 110.904 118.922C110.904 116.628 110.855 113.969 110.855 111.529ZM115.662 110.162H116.077C116.833 110.162 117.37 109.748 117.37 109.113C117.37 108.357 117.126 107.942 116.248 107.942C116.053 107.942 115.833 107.942 115.662 107.966C115.662 108.674 115.662 109.382 115.662 110.162ZM16.0423 137.846C16.0423 135.406 16.0911 133.161 16.0911 130.77C17.7015 130.526 19.4827 130.355 20.8491 130.355C24.9727 130.355 27.4615 130.892 27.4615 136.138C27.4615 140.774 24.9971 141.799 20.9223 141.799C20.9223 142.921 20.9467 144.044 20.9711 145.166C20.2391 145.215 19.5315 145.215 18.8239 145.215C17.9943 145.215 17.1647 145.215 16.3351 145.166C16.1887 145.166 16.0911 145.068 16.0911 144.922C16.0911 142.628 16.0423 140.286 16.0423 137.846ZM20.8735 137.822H21.2395C21.8983 137.822 22.5083 137.651 22.5083 136.211C22.5083 134.698 22.3863 134.528 21.4103 134.528H20.8735V137.822ZM29.3555 137.529C29.3555 135.089 29.4043 133.21 29.4043 130.77C31.0147 130.526 33.0399 130.355 34.4063 130.355C38.0419 130.355 40.5307 130.648 40.5307 134.601C40.5307 136.406 39.5303 137.773 37.9199 138.529C38.4811 138.724 38.9447 139.115 39.2863 139.676C40.2379 141.579 40.7991 143.336 41.2139 145.166C40.4087 145.264 39.5303 145.312 38.6763 145.312C38.0175 145.312 37.3587 145.288 36.6999 145.239C36.5779 145.239 36.3827 145.142 36.3339 144.995C35.6507 142.921 34.9675 140.847 34.4795 139.164C34.3819 139.164 34.2599 139.164 34.1623 139.164C34.1867 141.164 34.2599 143.263 34.2843 145.166C33.5523 145.215 32.8447 145.215 32.1371 145.215C31.3075 145.215 30.4779 145.215 29.6483 145.166C29.5019 145.166 29.4043 145.068 29.4043 144.922C29.4043 142.628 29.3555 139.969 29.3555 137.529ZM34.1623 136.162H34.5771C35.3335 136.162 35.8703 135.748 35.8703 135.113C35.8703 134.357 35.6263 133.942 34.7479 133.942C34.5527 133.942 34.3331 133.942 34.1623 133.966C34.1623 134.674 34.1623 135.382 34.1623 136.162ZM42.3941 137.846C42.3941 133.064 44.5169 130.526 47.9573 130.355C52.5933 130.355 54.7893 132.21 54.7893 137.846C54.7893 142.653 52.6177 145.142 49.1773 145.312C44.5169 145.312 42.3941 143.507 42.3941 137.846ZM47.4693 137.846C47.4693 140.75 47.9573 141.067 48.6161 141.067C49.2749 141.067 49.6897 140.75 49.6897 137.846C49.6897 134.942 49.2017 134.625 48.5429 134.625C47.8841 134.625 47.4693 134.942 47.4693 137.846ZM61.6711 137.846C61.6711 139.042 61.6711 140.066 61.6955 141.091H62.1103C62.7691 141.091 63.2571 140.75 63.2571 137.846C63.2571 134.942 62.7691 134.625 62.1103 134.625H61.6955C61.6711 135.65 61.6711 136.675 61.6711 137.846ZM56.8399 137.846C56.8399 135.406 56.8887 133.21 56.8887 130.77C58.4991 130.526 60.2803 130.355 61.6467 130.355C65.7703 130.355 68.3567 132.112 68.3567 137.846C68.3567 143.946 65.7947 145.215 61.6955 145.215C60.3535 145.215 58.8163 145.093 57.1327 144.922C56.9863 144.922 56.8887 144.824 56.8887 144.678C56.8887 142.384 56.8399 140.286 56.8399 137.846ZM69.9028 137.944C69.9028 135.504 69.9272 132.966 70.0004 130.526C70.7568 130.502 71.318 130.477 72.1232 130.477C72.9528 130.477 73.8068 130.502 74.6364 130.526C74.7584 130.526 74.8804 130.648 74.8804 130.77C74.9292 133.064 74.978 136.236 74.978 138.676C74.978 140.847 75.2952 141.164 75.954 141.164C76.6128 141.164 76.8812 140.847 76.8812 138.676C76.8812 136.236 76.9056 132.966 76.9788 130.526C77.7352 130.502 78.2964 130.477 79.1016 130.477C79.9312 130.477 80.7852 130.502 81.6148 130.526C81.7368 130.526 81.8588 130.648 81.8588 130.77C81.9076 133.064 81.9564 135.504 81.9564 137.944C81.9564 143.238 79.9556 145.239 76.5152 145.41C72.0988 145.41 69.9028 144.092 69.9028 137.944ZM83.5014 137.846C83.5014 132.112 86.0878 130.355 90.2114 130.355C91.2118 130.355 91.9926 130.55 92.993 130.77L92.4562 134.601L90.2114 134.454C89.3086 134.406 88.5766 134.942 88.5766 137.846C88.5766 140.75 89.211 141.311 90.2114 141.262L92.4562 141.091L92.9686 144.946C91.9682 145.142 91.163 145.215 90.1626 145.215C86.0634 145.215 83.5014 143.946 83.5014 137.846ZM94.092 132.38C94.092 131.795 94.092 131.185 94.1164 130.526C94.8728 130.502 98.9476 130.477 99.7528 130.477C100.582 130.477 103.974 130.502 104.804 130.526C104.926 130.526 105.023 130.648 105.048 130.77C105.048 131.478 105.048 132.161 105.048 132.868C105.048 133.454 105.048 134.064 105.048 134.674C104.633 134.698 103.34 134.723 102.071 134.723C102.095 135.723 102.12 136.724 102.12 137.846C102.12 140.286 102.071 142.726 102.022 145.166C101.241 145.215 100.68 145.239 99.8748 145.239C99.0452 145.239 98.1912 145.215 97.386 145.166C97.2396 145.166 97.142 145.068 97.142 144.922C97.0932 142.628 97.0444 140.286 97.0444 137.846C97.0444 136.724 97.0444 135.723 97.0444 134.698C95.9464 134.674 94.7752 134.65 94.3604 134.625C94.214 134.625 94.1164 134.528 94.1164 134.381C94.092 133.698 94.092 133.039 94.092 132.38ZM106.511 145.02L107.096 140.628C108.804 141.164 110.317 141.482 111.415 141.482C112.342 141.482 112.733 140.994 112.733 140.603C112.733 140.115 112.025 139.92 111.073 139.652C109.243 139.139 106.535 138.358 106.535 134.601C106.535 130.648 108.975 130.355 112.318 130.355C113.733 130.355 115.392 130.575 117.027 130.892L116.466 134.967C115.319 134.454 113.587 133.966 112.074 133.966C111.317 133.966 110.829 134.21 110.829 134.65C110.829 135.089 111.586 135.308 112.586 135.601C114.611 136.211 117.637 137.114 117.637 140.506C117.637 144.385 114.953 145.288 111.659 145.288C110 145.288 108.194 145.215 106.511 145.02Z" fill="#64431F"/>
<defs>
<clipPath id="clip0_1044_11005">
<rect width="19.9546" height="19.9546" fill="white" transform="translate(14.8711 14.5127)"/>
</clipPath>
</defs>
</svg>
