<svg width="199" height="121" viewBox="0 0 199 121" fill="none" xmlns="http://www.w3.org/2000/svg">
<rect y="0.578125" width="198.33" height="119.449" rx="11.61" fill="#E99FDF"/>
<g clip-path="url(#clip0_1044_11012)">
<path d="M14.5117 15.0908C14.511 17.7563 15.5694 20.3128 17.4541 22.1981C19.3388 24.0835 21.8954 25.1431 24.5616 25.1439V15.0908L14.5117 15.0908ZM24.5616 25.1439L34.6147 25.1439V15.0908C33.2943 15.0906 31.9867 15.3506 30.7667 15.8558C29.5468 16.361 28.4384 17.1015 27.5048 18.0351C26.5712 18.9687 25.8308 20.077 25.3257 21.2968C24.8207 22.5165 24.5611 23.8238 24.5616 25.1439ZM24.5616 25.1439L24.5616 35.1938H34.6147C34.6148 33.874 34.3548 32.567 33.8496 31.3476C33.3444 30.1283 32.6039 29.0203 31.6704 28.0871C30.7368 27.1538 29.6285 26.4136 28.4088 25.9086C27.1891 25.4036 25.8818 25.1438 24.5616 25.1439ZM24.5616 25.1439H14.5117L14.5117 35.1938C17.1774 35.1933 19.7337 34.1342 21.6184 32.2495C23.5031 30.3649 24.5618 27.8089 24.5616 25.1439Z" fill="white"/>
</g>
<path d="M15.3753 68.5917L15.9849 64.0197C17.7629 64.5785 19.3377 64.9087 20.4807 64.9087C21.4459 64.9087 21.8523 64.4007 21.8523 63.9943C21.8523 63.4863 21.1157 63.2831 20.1251 63.0037C18.2201 62.4703 15.4007 61.6575 15.4007 57.7459C15.4007 53.6311 17.9407 53.3263 21.4205 53.3263C22.8937 53.3263 24.6209 53.5549 26.3227 53.8851L25.7385 58.1269C24.5447 57.5935 22.7413 57.0855 21.1665 57.0855C20.3791 57.0855 19.8711 57.3395 19.8711 57.7967C19.8711 58.2539 20.6585 58.4825 21.6999 58.7873C23.8081 59.4223 26.9577 60.3621 26.9577 63.8927C26.9577 67.9313 24.1637 68.8711 20.7347 68.8711C19.0075 68.8711 17.1279 68.7949 15.3753 68.5917ZM28.9437 61.1241C28.9437 58.5841 28.9691 56.0441 29.0453 53.5041C29.8327 53.4787 33.4649 53.4533 34.3031 53.4533C35.1667 53.4533 37.8845 53.4787 38.7481 53.5041C38.8751 53.5041 38.9767 53.6311 39.0021 53.7581C39.0021 54.5455 39.0021 55.2567 39.0021 55.9679C39.0021 56.5775 39.0021 57.1871 39.0021 57.8221C38.1893 57.8729 35.8017 57.8729 34.9635 57.8729C34.7603 57.8729 34.4047 57.8729 33.9729 57.8729C33.9729 58.3047 33.9729 58.7619 33.9729 59.2191C34.9889 59.2191 36.3605 59.2445 37.0209 59.2445C37.1479 59.2445 37.2495 59.3715 37.2749 59.4985C37.2749 60.2097 37.2749 60.8193 37.2749 61.4289C37.2749 61.9623 37.2749 62.4957 37.2749 63.1053H33.9729C33.9729 63.5625 33.9729 63.9943 33.9729 64.4261H34.3031C35.1667 64.4261 37.9353 64.4515 38.7989 64.4769C38.9259 64.4769 39.0275 64.6039 39.0529 64.7309C39.0529 65.5183 39.0529 66.2295 39.0529 66.9407C39.0529 67.5503 39.0529 68.1599 39.0529 68.7949C38.2401 68.8457 35.5223 68.8711 34.6841 68.8711C33.8205 68.8711 30.1375 68.7949 29.2993 68.7441C29.1469 68.7441 29.0453 68.6425 29.0453 68.4901C28.9945 66.1025 28.9437 63.6641 28.9437 61.1241ZM40.4525 55.4345C40.4525 54.8249 40.4525 54.1899 40.4779 53.5041C41.2653 53.4787 45.5071 53.4533 46.3453 53.4533C47.2089 53.4533 50.7395 53.4787 51.6031 53.5041C51.7301 53.5041 51.8317 53.6311 51.8571 53.7581C51.8571 54.4947 51.8571 55.2059 51.8571 55.9425C51.8571 56.5521 51.8571 57.1871 51.8571 57.8221C51.4253 57.8475 50.0791 57.8729 48.7583 57.8729C48.7837 58.9143 48.8091 59.9557 48.8091 61.1241C48.8091 63.6641 48.7583 66.2041 48.7075 68.7441C47.8947 68.7949 47.3105 68.8203 46.4723 68.8203C45.6087 68.8203 44.7197 68.7949 43.8815 68.7441C43.7291 68.7441 43.6275 68.6425 43.6275 68.4901C43.5767 66.1025 43.5259 63.6641 43.5259 61.1241C43.5259 59.9557 43.5259 58.9143 43.5259 57.8475C42.3829 57.8221 41.1637 57.7967 40.7319 57.7713C40.5795 57.7713 40.4779 57.6697 40.4779 57.5173C40.4525 56.8061 40.4525 56.1203 40.4525 55.4345ZM52.8975 55.4345C52.8975 54.8249 52.8975 54.1899 52.9229 53.5041C53.7103 53.4787 57.9521 53.4533 58.7903 53.4533C59.6539 53.4533 63.1845 53.4787 64.0481 53.5041C64.1751 53.5041 64.2767 53.6311 64.3021 53.7581C64.3021 54.4947 64.3021 55.2059 64.3021 55.9425C64.3021 56.5521 64.3021 57.1871 64.3021 57.8221C63.8703 57.8475 62.5241 57.8729 61.2033 57.8729C61.2287 58.9143 61.2541 59.9557 61.2541 61.1241C61.2541 63.6641 61.2033 66.2041 61.1525 68.7441C60.3397 68.7949 59.7555 68.8203 58.9173 68.8203C58.0537 68.8203 57.1647 68.7949 56.3265 68.7441C56.1741 68.7441 56.0725 68.6425 56.0725 68.4901C56.0217 66.1025 55.9709 63.6641 55.9709 61.1241C55.9709 59.9557 55.9709 58.9143 55.9709 57.8475C54.8279 57.8221 53.6087 57.7967 53.1769 57.7713C53.0245 57.7713 52.9229 57.6697 52.9229 57.5173C52.8975 56.8061 52.8975 56.1203 52.8975 55.4345ZM66.1299 61.1241C66.1299 58.5841 66.1553 56.0441 66.2315 53.5041C67.0189 53.4787 67.6031 53.4533 68.4413 53.4533C69.3049 53.4533 70.1939 53.4787 71.0575 53.5041C71.1845 53.5041 71.3115 53.6311 71.3115 53.7581C71.3623 56.1457 71.4131 58.5841 71.4131 61.1241C71.4131 63.6641 71.3623 66.2041 71.3115 68.7441C70.4987 68.7949 69.9145 68.8203 69.0763 68.8203C68.2127 68.8203 67.3237 68.7949 66.4855 68.7441C66.3331 68.7441 66.2315 68.6425 66.2315 68.4901C66.1807 66.1025 66.1299 63.6641 66.1299 61.1241ZM74.0108 61.1241C74.0108 58.5841 74.0362 56.0441 74.1124 53.5041C74.8998 53.4787 75.357 53.4533 76.1952 53.4533C76.9318 53.4533 77.5922 53.4787 78.405 53.5041C78.532 53.5295 78.6082 53.6311 78.6844 53.7581L81.3006 60.2605L81.2244 53.5041C82.0118 53.4787 82.596 53.4533 83.4342 53.4533C84.2978 53.4533 85.0344 53.4787 85.7964 53.5041C85.9234 53.5295 86.0504 53.6311 86.0504 53.7581C86.1012 56.1457 86.152 58.5841 86.152 61.1241C86.152 63.6641 86.1012 66.2041 86.0504 68.7441C85.3392 68.7949 84.9074 68.8203 84.0692 68.8203C83.3072 68.8203 82.5706 68.7949 81.7578 68.7441C81.6054 68.7441 81.5292 68.6425 81.4784 68.4901L78.8368 62.0131L78.9384 68.7441C78.1256 68.7949 77.6684 68.8203 76.8302 68.8203C75.9666 68.8203 75.1792 68.7949 74.3664 68.7441C74.214 68.7441 74.1124 68.6425 74.1124 68.4901C74.0616 66.1025 74.0108 63.6641 74.0108 61.1241ZM88.2299 61.1241C88.2299 55.1551 90.9223 53.3263 95.2149 53.3263C96.6373 53.3263 98.1359 53.5041 99.7615 53.7581L99.2281 57.7713H94.7069C94.0211 57.7713 93.5131 58.1015 93.5131 61.1241C93.5131 64.1467 94.1227 64.4769 94.8339 64.4769H95.3419C95.3419 63.4609 95.2657 61.9369 95.2403 60.6161C95.9261 60.5907 96.5865 60.5907 97.2469 60.5907C97.9327 60.5907 98.6439 60.5907 99.4567 60.6161C99.5837 60.6415 99.6853 60.7431 99.7107 60.8701C99.7615 62.0639 99.8123 63.1815 99.8123 64.4261C99.8123 65.6199 99.7615 67.3217 99.7107 68.3123C97.9581 68.6425 96.9929 68.7949 95.1641 68.7949C90.8969 68.7949 88.2299 67.4741 88.2299 61.1241ZM110.627 61.1241C110.627 58.5841 110.652 56.0441 110.728 53.5041C111.516 53.4787 112.1 53.4533 112.938 53.4533C113.802 53.4533 114.691 53.4787 115.554 53.5041C115.681 53.5041 115.808 53.6311 115.808 53.7581C115.834 55.5107 115.834 57.2887 115.834 59.0921H117.51C117.51 57.2125 117.535 55.3837 117.586 53.5041C118.374 53.4787 118.958 53.4533 119.796 53.4533C120.66 53.4533 121.549 53.4787 122.412 53.5041C122.539 53.5041 122.666 53.6311 122.666 53.7581C122.717 56.1457 122.768 58.5841 122.768 61.1241C122.768 63.6641 122.717 66.2041 122.666 68.7441C121.853 68.7949 121.269 68.8203 120.431 68.8203C119.567 68.8203 118.678 68.7949 117.84 68.7441C117.688 68.7441 117.586 68.6425 117.586 68.4901C117.535 66.8391 117.535 65.1627 117.535 63.4101H115.859C115.859 65.1881 115.834 66.9661 115.808 68.7441C114.995 68.7949 114.411 68.8203 113.573 68.8203C112.709 68.8203 111.82 68.7949 110.982 68.7441C110.83 68.7441 110.728 68.6425 110.728 68.4901C110.677 66.1025 110.627 63.6641 110.627 61.1241ZM125.354 61.1241C125.354 58.5841 125.379 56.0441 125.455 53.5041C126.243 53.4787 126.827 53.4533 127.665 53.4533C128.529 53.4533 129.418 53.4787 130.281 53.5041C130.408 53.5041 130.535 53.6311 130.535 53.7581C130.586 56.1457 130.637 58.5841 130.637 61.1241C130.637 63.6641 130.586 66.2041 130.535 68.7441C129.722 68.7949 129.138 68.8203 128.3 68.8203C127.436 68.8203 126.547 68.7949 125.709 68.7441C125.557 68.7441 125.455 68.6425 125.455 68.4901C125.404 66.1025 125.354 63.6641 125.354 61.1241ZM132.726 61.1241C132.726 55.1551 135.419 53.3263 139.711 53.3263C141.134 53.3263 142.632 53.5041 144.258 53.7581L143.725 57.7713H139.203C138.518 57.7713 138.01 58.1015 138.01 61.1241C138.01 64.1467 138.619 64.4769 139.33 64.4769H139.838C139.838 63.4609 139.762 61.9369 139.737 60.6161C140.423 60.5907 141.083 60.5907 141.743 60.5907C142.429 60.5907 143.14 60.5907 143.953 60.6161C144.08 60.6415 144.182 60.7431 144.207 60.8701C144.258 62.0639 144.309 63.1815 144.309 64.4261C144.309 65.6199 144.258 67.3217 144.207 68.3123C142.455 68.6425 141.489 68.7949 139.661 68.7949C135.393 68.7949 132.726 67.4741 132.726 61.1241ZM146.746 61.1241C146.746 58.5841 146.771 56.0441 146.848 53.5041C147.635 53.4787 148.219 53.4533 149.057 53.4533C149.921 53.4533 150.81 53.4787 151.674 53.5041C151.801 53.5041 151.928 53.6311 151.928 53.7581C151.953 55.5107 151.953 57.2887 151.953 59.0921H153.629C153.629 57.2125 153.655 55.3837 153.706 53.5041C154.493 53.4787 155.077 53.4533 155.915 53.4533C156.779 53.4533 157.668 53.4787 158.532 53.5041C158.659 53.5041 158.786 53.6311 158.786 53.7581C158.836 56.1457 158.887 58.5841 158.887 61.1241C158.887 63.6641 158.836 66.2041 158.786 68.7441C157.973 68.7949 157.389 68.8203 156.55 68.8203C155.687 68.8203 154.798 68.7949 153.96 68.7441C153.807 68.7441 153.706 68.6425 153.706 68.4901C153.655 66.8391 153.655 65.1627 153.655 63.4101H151.978C151.978 65.1881 151.953 66.9661 151.928 68.7441C151.115 68.7949 150.531 68.8203 149.692 68.8203C148.829 68.8203 147.94 68.7949 147.102 68.7441C146.949 68.7441 146.848 68.6425 146.848 68.4901C146.797 66.1025 146.746 63.6641 146.746 61.1241ZM20.7093 86.0921H20.8871C21.6745 86.0921 22.3603 85.7111 22.3603 84.9999C22.3603 84.3141 21.6999 83.9839 21.0395 83.9839C20.9379 83.9839 20.7855 83.9839 20.7347 84.0093C20.7093 84.6443 20.7093 85.3047 20.7093 86.0921ZM20.7347 89.8513C20.7347 90.5371 20.7601 91.2229 20.7855 91.9087H21.1919C22.1571 91.9087 22.5381 91.5277 22.5381 90.8673C22.5381 90.2831 22.0555 89.8513 21.3697 89.8513H20.7347ZM15.7309 87.7939C15.7309 85.2539 15.7817 83.2981 15.7817 80.7581C17.4581 80.5041 19.3123 80.3263 20.7347 80.3263C24.2653 80.3263 26.8561 80.6311 26.8561 84.7459C26.8561 86.0921 26.2973 87.2351 25.3829 88.0225C26.7799 88.8099 27.6181 89.9275 27.6181 91.1467C27.6181 95.1853 24.8749 95.8711 21.4459 95.8711C19.7187 95.8711 17.7883 95.7949 16.0357 95.5917C15.8833 95.5663 15.7817 95.4393 15.7817 95.2869C15.7817 92.8993 15.7309 90.3339 15.7309 87.7939ZM28.5992 95.5409C28.5992 95.4901 28.6754 95.0075 28.7262 94.7535C29.4882 90.1053 30.555 85.2031 31.4948 80.5041C32.6378 80.4533 33.8062 80.4533 35 80.4533C36.2192 80.4533 37.413 80.4787 38.6322 80.5041C38.7592 80.5041 38.8862 80.6311 38.9116 80.7581C39.8768 85.6349 41.0706 90.8165 41.8072 95.7441C41.0198 95.7949 40.461 95.8203 39.5974 95.8203C38.7338 95.8203 37.9972 95.8203 37.1082 95.7441C36.9812 95.7441 36.8542 95.6425 36.8288 95.4901C36.651 94.6773 36.4986 93.8137 36.3716 92.9501H34.0094C33.857 93.8899 33.7046 94.8297 33.5268 95.7441C32.714 95.7949 32.2568 95.8203 31.4186 95.8203C30.555 95.8203 29.666 95.7949 28.8278 95.7441C28.7008 95.7441 28.5992 95.6679 28.5992 95.5409ZM34.4412 89.6481H35.8636C35.5842 87.7685 35.3302 85.8635 35.0762 83.9585C34.8476 85.8381 34.6444 87.7431 34.4412 89.6481ZM43.5479 87.7939C43.5479 85.2539 43.5987 83.2981 43.5987 80.7581C45.2751 80.5041 47.3833 80.3263 48.8057 80.3263C52.5903 80.3263 55.1811 80.6311 55.1811 84.7459C55.1811 86.6255 54.1397 88.0479 52.4633 88.8353C53.0475 89.0385 53.5301 89.4449 53.8857 90.0291C54.8763 92.0103 55.4605 93.8391 55.8923 95.7441C55.0541 95.8457 54.1397 95.8965 53.2507 95.8965C52.5649 95.8965 51.8791 95.8711 51.1933 95.8203C51.0663 95.8203 50.8631 95.7187 50.8123 95.5663C50.1011 93.4073 49.3899 91.2483 48.8819 89.4957C48.7803 89.4957 48.6533 89.4957 48.5517 89.4957C48.5771 91.5785 48.6533 93.7629 48.6787 95.7441C47.9167 95.7949 47.1801 95.7949 46.4435 95.7949C45.5799 95.7949 44.7163 95.7949 43.8527 95.7441C43.7003 95.7441 43.5987 95.6425 43.5987 95.4901C43.5987 93.1025 43.5479 90.3339 43.5479 87.7939ZM48.5517 86.3715H48.9835C49.7709 86.3715 50.3297 85.9397 50.3297 85.2793C50.3297 84.4919 50.0757 84.0601 49.1613 84.0601C48.9581 84.0601 48.7295 84.0601 48.5517 84.0855C48.5517 84.8221 48.5517 85.5587 48.5517 86.3715ZM66.0059 88.1241C66.0059 85.5841 66.0313 83.0441 66.1075 80.5041C66.8949 80.4787 70.5271 80.4533 71.3653 80.4533C72.2289 80.4533 74.5911 80.4787 75.4547 80.5041C75.5817 80.5041 75.6833 80.6311 75.7087 80.7581C75.7087 81.5455 75.7087 82.2567 75.7087 82.9679C75.7087 83.5775 75.7087 84.1871 75.7087 84.8221C74.8959 84.8729 72.8385 84.8983 72.0003 84.8983C71.8225 84.8983 71.5177 84.8983 71.1367 84.8729C71.1367 85.5841 71.1367 86.2953 71.1367 87.0827C72.1019 87.0827 73.3719 87.1081 73.9815 87.1081C74.1085 87.1081 74.2101 87.2351 74.2355 87.3621C74.2355 88.1495 74.2355 88.8607 74.2355 89.5719C74.2355 90.1815 74.2355 90.7911 74.2355 91.4261C73.5243 91.4769 72.0765 91.5023 71.1367 91.5023C71.1621 92.9247 71.1875 94.3471 71.1875 95.7441C70.3747 95.7949 69.7905 95.8203 68.9523 95.8203C68.0887 95.8203 67.1997 95.7949 66.3615 95.7441C66.2091 95.7441 66.1075 95.6425 66.1075 95.4901C66.0567 93.1025 66.0059 90.6641 66.0059 88.1241ZM76.9259 88.1241C76.9259 83.1457 79.1357 80.5041 82.7171 80.3263C87.5431 80.3263 89.8291 82.2567 89.8291 88.1241C89.8291 93.1279 87.5685 95.7187 83.9871 95.8965C79.1357 95.8965 76.9259 94.0169 76.9259 88.1241ZM82.2091 88.1241C82.2091 91.1467 82.7171 91.4769 83.4029 91.4769C84.0887 91.4769 84.5205 91.1467 84.5205 88.1241C84.5205 85.1015 84.0125 84.7713 83.3267 84.7713C82.6409 84.7713 82.2091 85.1015 82.2091 88.1241ZM91.9637 87.7939C91.9637 85.2539 92.0145 83.2981 92.0145 80.7581C93.6909 80.5041 95.7991 80.3263 97.2215 80.3263C101.006 80.3263 103.597 80.6311 103.597 84.7459C103.597 86.6255 102.555 88.0479 100.879 88.8353C101.463 89.0385 101.946 89.4449 102.301 90.0291C103.292 92.0103 103.876 93.8391 104.308 95.7441C103.47 95.8457 102.555 95.8965 101.666 95.8965C100.981 95.8965 100.295 95.8711 99.6091 95.8203C99.4821 95.8203 99.2789 95.7187 99.2281 95.5663C98.5169 93.4073 97.8057 91.2483 97.2977 89.4957C97.1961 89.4957 97.0691 89.4957 96.9675 89.4957C96.9929 91.5785 97.0691 93.7629 97.0945 95.7441C96.3325 95.7949 95.5959 95.7949 94.8593 95.7949C93.9957 95.7949 93.1321 95.7949 92.2685 95.7441C92.1161 95.7441 92.0145 95.6425 92.0145 95.4901C92.0145 93.1025 91.9637 90.3339 91.9637 87.7939ZM96.9675 86.3715H97.3993C98.1867 86.3715 98.7455 85.9397 98.7455 85.2793C98.7455 84.4919 98.4915 84.0601 97.5771 84.0601C97.3739 84.0601 97.1453 84.0601 96.9675 84.0855C96.9675 84.8221 96.9675 85.5587 96.9675 86.3715ZM113.914 88.1241C113.914 82.1551 116.606 80.3263 120.899 80.3263C121.94 80.3263 122.753 80.5295 123.794 80.7581L123.235 84.7459L120.899 84.5935C119.959 84.5427 119.197 85.1015 119.197 88.1241C119.197 91.1467 119.857 91.7309 120.899 91.6801L123.235 91.5023L123.769 95.5155C122.727 95.7187 121.889 95.7949 120.848 95.7949C116.581 95.7949 113.914 94.4741 113.914 88.1241ZM125.776 87.7939C125.776 85.2539 125.827 83.2981 125.827 80.7581C127.504 80.5041 129.612 80.3263 131.034 80.3263C134.819 80.3263 137.41 80.6311 137.41 84.7459C137.41 86.6255 136.368 88.0479 134.692 88.8353C135.276 89.0385 135.759 89.4449 136.114 90.0291C137.105 92.0103 137.689 93.8391 138.121 95.7441C137.283 95.8457 136.368 95.8965 135.479 95.8965C134.793 95.8965 134.108 95.8711 133.422 95.8203C133.295 95.8203 133.092 95.7187 133.041 95.5663C132.33 93.4073 131.618 91.2483 131.11 89.4957C131.009 89.4957 130.882 89.4957 130.78 89.4957C130.806 91.5785 130.882 93.7629 130.907 95.7441C130.145 95.7949 129.409 95.7949 128.672 95.7949C127.808 95.7949 126.945 95.7949 126.081 95.7441C125.929 95.7441 125.827 95.6425 125.827 95.4901C125.827 93.1025 125.776 90.3339 125.776 87.7939ZM130.78 86.3715H131.212C131.999 86.3715 132.558 85.9397 132.558 85.2793C132.558 84.4919 132.304 84.0601 131.39 84.0601C131.187 84.0601 130.958 84.0601 130.78 84.0855C130.78 84.8221 130.78 85.5587 130.78 86.3715ZM138.918 95.5409C138.918 95.4901 138.994 95.0075 139.045 94.7535C139.807 90.1053 140.873 85.2031 141.813 80.5041C142.956 80.4533 144.125 80.4533 145.318 80.4533C146.538 80.4533 147.731 80.4787 148.951 80.5041C149.078 80.5041 149.205 80.6311 149.23 80.7581C150.195 85.6349 151.389 90.8165 152.126 95.7441C151.338 95.7949 150.779 95.8203 149.916 95.8203C149.052 95.8203 148.316 95.8203 147.427 95.7441C147.3 95.7441 147.173 95.6425 147.147 95.4901C146.969 94.6773 146.817 93.8137 146.69 92.9501H144.328C144.175 93.8899 144.023 94.8297 143.845 95.7441C143.032 95.7949 142.575 95.8203 141.737 95.8203C140.873 95.8203 139.984 95.7949 139.146 95.7441C139.019 95.7441 138.918 95.6679 138.918 95.5409ZM144.76 89.6481H146.182C145.903 87.7685 145.649 85.8635 145.395 83.9585C145.166 85.8381 144.963 87.7431 144.76 89.6481ZM153.815 88.1241C153.815 85.5841 153.841 83.0441 153.917 80.5041C154.704 80.4787 158.337 80.4533 159.175 80.4533C160.038 80.4533 162.401 80.4787 163.264 80.5041C163.391 80.5041 163.493 80.6311 163.518 80.7581C163.518 81.5455 163.518 82.2567 163.518 82.9679C163.518 83.5775 163.518 84.1871 163.518 84.8221C162.705 84.8729 160.648 84.8983 159.81 84.8983C159.632 84.8983 159.327 84.8983 158.946 84.8729C158.946 85.5841 158.946 86.2953 158.946 87.0827C159.911 87.0827 161.181 87.1081 161.791 87.1081C161.918 87.1081 162.02 87.2351 162.045 87.3621C162.045 88.1495 162.045 88.8607 162.045 89.5719C162.045 90.1815 162.045 90.7911 162.045 91.4261C161.334 91.4769 159.886 91.5023 158.946 91.5023C158.972 92.9247 158.997 94.3471 158.997 95.7441C158.184 95.7949 157.6 95.8203 156.762 95.8203C155.898 95.8203 155.009 95.7949 154.171 95.7441C154.019 95.7441 153.917 95.6425 153.917 95.4901C153.866 93.1025 153.815 90.6641 153.815 88.1241ZM164.456 82.4345C164.456 81.8249 164.456 81.1899 164.481 80.5041C165.269 80.4787 169.511 80.4533 170.349 80.4533C171.212 80.4533 174.743 80.4787 175.607 80.5041C175.734 80.5041 175.835 80.6311 175.861 80.7581C175.861 81.4947 175.861 82.2059 175.861 82.9425C175.861 83.5521 175.861 84.1871 175.861 84.8221C175.429 84.8475 174.083 84.8729 172.762 84.8729C172.787 85.9143 172.813 86.9557 172.813 88.1241C172.813 90.6641 172.762 93.2041 172.711 95.7441C171.898 95.7949 171.314 95.8203 170.476 95.8203C169.612 95.8203 168.723 95.7949 167.885 95.7441C167.733 95.7441 167.631 95.6425 167.631 95.4901C167.58 93.1025 167.529 90.6641 167.529 88.1241C167.529 86.9557 167.529 85.9143 167.529 84.8475C166.386 84.8221 165.167 84.7967 164.735 84.7713C164.583 84.7713 164.481 84.6697 164.481 84.5173C164.456 83.8061 164.456 83.1203 164.456 82.4345Z" fill="#54194C"/>
<defs>
<clipPath id="clip0_1044_11012">
<rect x="14.5117" y="15.0908" width="19.9546" height="19.9546" rx="4.77792" fill="white"/>
</clipPath>
</defs>
</svg>
