<svg width="199" height="182" viewBox="0 0 199 182" fill="none" xmlns="http://www.w3.org/2000/svg">
<rect y="0.564453" width="198.33" height="181.051" rx="11.61" fill="#F0CB46"/>
<path d="M20.0798 17.1057C20.2033 16.1994 21.258 15.7625 21.9862 16.316L23.7662 17.669C24.1934 17.9937 24.7847 17.9937 25.2119 17.669L26.9919 16.316C27.7201 15.7625 28.7747 16.1994 28.8983 17.1057L29.2002 19.3211C29.2727 19.8527 29.6908 20.2708 30.2224 20.3433L32.4378 20.6453C33.3441 20.7688 33.781 21.8234 33.2275 22.5516L31.8745 24.3317C31.5498 24.7588 31.5498 25.3501 31.8745 25.7773L33.2275 27.5573C33.781 28.2855 33.3441 29.3402 32.4378 29.4637L30.2224 29.7656C29.6908 29.8381 29.2727 30.2562 29.2002 30.7879L28.8983 33.0033C28.7747 33.9096 27.7201 34.3464 26.9919 33.7929L25.2119 32.4399C24.7847 32.1152 24.1934 32.1152 23.7662 32.4399L21.9862 33.7929C21.258 34.3464 20.2033 33.9096 20.0798 33.0033L19.7779 30.7879C19.7054 30.2562 19.2873 29.8381 18.7556 29.7656L16.5402 29.4637C15.6339 29.3402 15.1971 28.2855 15.7506 27.5573L17.1036 25.7773C17.4283 25.3501 17.4283 24.7588 17.1036 24.3317L15.7506 22.5516C15.1971 21.8234 15.6339 20.7688 16.5402 20.6453L18.7556 20.3433C19.2873 20.2708 19.7054 19.8527 19.7779 19.3211L20.0798 17.1057Z" fill="white"/>
<path d="M15.7467 61.676C15.7467 58.9912 15.7736 56.3064 15.8541 53.6216C16.6864 53.5948 17.3039 53.5679 18.1899 53.5679C19.1027 53.5679 20.0424 53.5948 20.9553 53.6216C21.0895 53.6216 21.2237 53.7559 21.2237 53.8901C21.2774 56.4138 21.3311 58.9912 21.3311 61.676C21.3311 62.8842 21.3043 64.0387 21.3043 65.1663H21.4117C22.3245 65.1663 24.6066 65.1931 25.5194 65.22C25.6537 65.22 25.7611 65.3542 25.7879 65.4885C25.7879 66.3208 25.7879 67.0725 25.7879 67.8243C25.7879 68.4686 25.7879 69.113 25.7879 69.7842C24.9288 69.8379 22.7004 69.8647 21.8144 69.8647C20.9016 69.8647 17.0086 69.7842 16.1226 69.7305C15.9615 69.7305 15.8541 69.6231 15.8541 69.462C15.8004 66.9383 15.7467 64.3609 15.7467 61.676ZM26.7586 61.676C26.7586 58.9912 26.7855 56.3064 26.866 53.6216C27.6983 53.5948 31.5376 53.5679 32.4236 53.5679C33.3364 53.5679 36.2092 53.5948 37.122 53.6216C37.2562 53.6216 37.3636 53.7559 37.3905 53.8901C37.3905 54.7224 37.3905 55.4741 37.3905 56.2259C37.3905 56.8702 37.3905 57.5146 37.3905 58.1858C36.5313 58.2395 34.0076 58.2395 33.1216 58.2395C32.9068 58.2395 32.531 58.2395 32.0746 58.2395C32.0746 58.6959 32.0746 59.1792 32.0746 59.6624C33.1485 59.6624 34.5983 59.6893 35.2963 59.6893C35.4306 59.6893 35.538 59.8235 35.5648 59.9578C35.5648 60.7095 35.5648 61.3539 35.5648 61.9982C35.5648 62.562 35.5648 63.1258 35.5648 63.7702H32.0746C32.0746 64.2535 32.0746 64.7099 32.0746 65.1663H32.4236C33.3364 65.1663 36.2629 65.1931 37.1757 65.22C37.3099 65.22 37.4173 65.3542 37.4442 65.4885C37.4442 66.3208 37.4442 67.0725 37.4442 67.8243C37.4442 68.4686 37.4442 69.113 37.4442 69.7842C36.585 69.8379 33.7123 69.8647 32.8263 69.8647C31.9135 69.8647 28.0205 69.7842 27.1345 69.7305C26.9734 69.7305 26.866 69.6231 26.866 69.462C26.8123 66.9383 26.7586 64.3609 26.7586 61.676ZM37.957 69.5157C37.957 69.462 38.0376 68.9519 38.0913 68.6834C38.8967 63.7702 40.0243 58.5885 41.0177 53.6216C42.2259 53.5679 43.4609 53.5679 44.7227 53.5679C46.0114 53.5679 47.2733 53.5948 48.562 53.6216C48.6962 53.6216 48.8305 53.7559 48.8573 53.8901C49.8776 59.0449 51.1394 64.5219 51.918 69.7305C51.0857 69.7842 50.4951 69.811 49.5822 69.811C48.6694 69.811 47.8908 69.811 46.9511 69.7305C46.8169 69.7305 46.6826 69.6231 46.6558 69.462C46.4679 68.6028 46.3068 67.69 46.1725 66.7772H43.6757C43.5146 67.7706 43.3535 68.7639 43.1655 69.7305C42.3064 69.7842 41.8231 69.811 40.9371 69.811C40.0243 69.811 39.0846 69.7842 38.1986 69.7305C38.0644 69.7305 37.957 69.6499 37.957 69.5157ZM44.1321 63.2869H45.6356C45.3402 61.3002 45.0718 59.2866 44.8033 57.273C44.5616 59.2597 44.3469 61.2733 44.1321 63.2869ZM58.2684 61.676C58.2684 62.9916 58.2684 64.1192 58.2953 65.2468H58.7517C59.4766 65.2468 60.0135 64.871 60.0135 61.676C60.0135 58.4811 59.4766 58.1321 58.7517 58.1321H58.2953C58.2684 59.2597 58.2684 60.3873 58.2684 61.676ZM52.9525 61.676C52.9525 58.9912 53.0062 56.5749 53.0062 53.8901C54.7782 53.6216 56.7381 53.4337 58.2416 53.4337C62.7789 53.4337 65.6248 55.3667 65.6248 61.676C65.6248 68.3881 62.8057 69.7842 58.2953 69.7842C56.8186 69.7842 55.1272 69.6499 53.2747 69.462C53.1136 69.462 53.0062 69.3546 53.0062 69.1935C53.0062 66.6698 52.9525 64.3609 52.9525 61.676ZM67.0307 61.676C67.0307 58.9912 67.0576 56.3064 67.1381 53.6216C67.9704 53.5948 68.5879 53.5679 69.4739 53.5679C70.3868 53.5679 71.3264 53.5948 72.2393 53.6216C72.3735 53.6216 72.5078 53.7559 72.5078 53.8901C72.5615 56.4138 72.6151 58.9912 72.6151 61.676C72.6151 64.3609 72.5615 67.0457 72.5078 69.7305C71.6486 69.7842 71.0311 69.811 70.1451 69.811C69.2323 69.811 68.2926 69.7842 67.4066 69.7305C67.2455 69.7305 67.1381 69.6231 67.1381 69.462C67.0844 66.9383 67.0307 64.3609 67.0307 61.676ZM74.5555 61.676C74.5555 58.9912 74.5824 56.3064 74.6629 53.6216C75.4952 53.5948 75.9785 53.5679 76.8645 53.5679C77.6431 53.5679 78.3411 53.5948 79.2003 53.6216C79.3345 53.6485 79.4151 53.7559 79.4956 53.8901L82.2609 60.7632L82.1804 53.6216C83.0127 53.5948 83.6302 53.5679 84.5162 53.5679C85.429 53.5679 86.2076 53.5948 87.0131 53.6216C87.1473 53.6485 87.2815 53.7559 87.2815 53.8901C87.3352 56.4138 87.3889 58.9912 87.3889 61.676C87.3889 64.3609 87.3352 67.0457 87.2815 69.7305C86.5298 69.7842 86.0734 69.811 85.1874 69.811C84.3819 69.811 83.6034 69.7842 82.7442 69.7305C82.5831 69.7305 82.5026 69.6231 82.4489 69.462L79.6567 62.6157L79.7641 69.7305C78.9049 69.7842 78.4217 69.811 77.5357 69.811C76.6229 69.811 75.7906 69.7842 74.9314 69.7305C74.7703 69.7305 74.6629 69.6231 74.6629 69.462C74.6092 66.9383 74.5555 64.3609 74.5555 61.676ZM88.7798 61.676C88.7798 55.3667 91.6257 53.4337 96.163 53.4337C97.6665 53.4337 99.2505 53.6216 100.969 53.8901L100.405 58.1321H95.626C94.9011 58.1321 94.3642 58.4811 94.3642 61.676C94.3642 64.871 95.0085 65.22 95.7603 65.22H96.2972C96.2972 64.1461 96.2167 62.5352 96.1899 61.1391C96.9148 61.1122 97.6128 61.1122 98.3109 61.1122C99.0357 61.1122 99.7875 61.1122 100.647 61.1391C100.781 61.1659 100.888 61.2733 100.915 61.4076C100.969 62.6694 101.023 63.8507 101.023 65.1663C101.023 66.4282 100.969 68.227 100.915 69.2741C99.0626 69.6231 98.0424 69.7842 96.1093 69.7842C91.5988 69.7842 88.7798 68.3881 88.7798 61.676ZM15.7467 89.676C15.7467 86.9912 15.7736 84.3064 15.8541 81.6216C16.6864 81.5948 20.5257 81.5679 21.4117 81.5679C22.3245 81.5679 25.1973 81.5948 26.1101 81.6216C26.2443 81.6216 26.3517 81.7559 26.3786 81.8901C26.3786 82.7224 26.3786 83.4741 26.3786 84.2259C26.3786 84.8702 26.3786 85.5146 26.3786 86.1858C25.5194 86.2395 22.9957 86.2395 22.1097 86.2395C21.8949 86.2395 21.5191 86.2395 21.0626 86.2395C21.0626 86.6959 21.0626 87.1792 21.0626 87.6624C22.1366 87.6624 23.5864 87.6893 24.2844 87.6893C24.4187 87.6893 24.5261 87.8235 24.5529 87.9578C24.5529 88.7095 24.5529 89.3539 24.5529 89.9982C24.5529 90.562 24.5529 91.1258 24.5529 91.7702H21.0626C21.0626 92.2535 21.0626 92.7099 21.0626 93.1663H21.4117C22.3245 93.1663 25.2509 93.1931 26.1638 93.22C26.298 93.22 26.4054 93.3542 26.4323 93.4885C26.4323 94.3208 26.4323 95.0725 26.4323 95.8243C26.4323 96.4686 26.4323 97.113 26.4323 97.7842C25.5731 97.8379 22.7004 97.8647 21.8144 97.8647C20.9016 97.8647 17.0086 97.7842 16.1226 97.7305C15.9615 97.7305 15.8541 97.6231 15.8541 97.462C15.8004 94.9383 15.7467 92.3609 15.7467 89.676ZM27.4015 89.676C27.4015 83.3667 30.2474 81.4337 34.7847 81.4337C35.8855 81.4337 36.7447 81.6485 37.8454 81.8901L37.2548 86.1053L34.7847 85.9442C33.7914 85.8905 32.9859 86.4811 32.9859 89.676C32.9859 92.871 33.684 93.4885 34.7847 93.4348L37.2548 93.2468L37.8186 97.4888C36.7178 97.7036 35.8318 97.7842 34.731 97.7842C30.2206 97.7842 27.4015 96.3881 27.4015 89.676ZM38.5445 89.676C38.5445 84.4138 40.8803 81.6216 44.6659 81.4337C49.767 81.4337 52.1833 83.4741 52.1833 89.676C52.1833 94.9651 49.7939 97.7036 46.0083 97.8916C40.8803 97.8916 38.5445 95.9048 38.5445 89.676ZM44.1289 89.676C44.1289 92.871 44.6659 93.22 45.3908 93.22C46.1157 93.22 46.5721 92.871 46.5721 89.676C46.5721 86.4811 46.0351 86.1321 45.3102 86.1321C44.5853 86.1321 44.1289 86.4811 44.1289 89.676ZM53.101 97.5694L53.7454 92.7367C55.6247 93.3274 57.2893 93.6764 58.4975 93.6764C59.5177 93.6764 59.9473 93.1394 59.9473 92.7099C59.9473 92.1729 59.1687 91.9581 58.1216 91.6628C56.108 91.099 53.1279 90.2399 53.1279 86.1053C53.1279 81.7559 55.8127 81.4337 59.4908 81.4337C61.048 81.4337 62.8737 81.6753 64.6725 82.0243L64.055 86.508C62.7932 85.9442 60.8869 85.4072 59.2224 85.4072C58.3901 85.4072 57.8531 85.6757 57.8531 86.1589C57.8531 86.6422 58.6854 86.8838 59.7862 87.206C62.0146 87.8772 65.3437 88.8706 65.3437 92.6025C65.3437 96.8713 62.3904 97.8647 58.7659 97.8647C56.9403 97.8647 54.9535 97.7842 53.101 97.5694ZM65.2502 81.729C66.1362 81.6216 67.0758 81.5679 68.0424 81.5679C68.7673 81.5679 69.4922 81.5948 70.2171 81.6485C70.3513 81.6485 70.5661 81.7559 70.6198 81.917C71.2104 83.7158 71.828 85.9442 72.3381 87.7698C72.8213 85.9442 73.4657 83.7158 74.0563 81.917C74.11 81.7559 74.3248 81.6485 74.4591 81.6485C75.184 81.5948 75.9089 81.5679 76.6338 81.5679C77.5734 81.5679 78.54 81.6216 79.426 81.729C78.9695 83.7695 78.2446 86.508 77.1976 88.5753C76.5801 89.6223 75.8283 90.4546 75.0229 91.099C75.0497 93.3274 75.0766 95.5289 75.1034 97.7305C74.2443 97.7842 73.5731 97.811 72.6871 97.811C71.7743 97.811 70.7809 97.7842 69.8949 97.7305C69.7338 97.7305 69.6264 97.6231 69.6264 97.462C69.6264 95.3947 69.6264 93.2737 69.6533 91.099C68.8478 90.4546 68.0961 89.6223 67.4786 88.5753C66.4315 86.508 65.7066 83.7695 65.2502 81.729ZM79.9491 97.5694L80.5934 92.7367C82.4728 93.3274 84.1374 93.6764 85.3455 93.6764C86.3658 93.6764 86.7953 93.1394 86.7953 92.7099C86.7953 92.1729 86.0167 91.9581 84.9697 91.6628C82.9561 91.099 79.9759 90.2399 79.9759 86.1053C79.9759 81.7559 82.6607 81.4337 86.3389 81.4337C87.8961 81.4337 89.7218 81.6753 91.5206 82.0243L90.9031 86.508C89.6412 85.9442 87.735 85.4072 86.0704 85.4072C85.2381 85.4072 84.7012 85.6757 84.7012 86.1589C84.7012 86.6422 85.5335 86.8838 86.6342 87.206C88.8626 87.8772 92.1918 88.8706 92.1918 92.6025C92.1918 96.8713 89.2385 97.8647 85.614 97.8647C83.7883 97.8647 81.8016 97.7842 79.9491 97.5694ZM92.3911 83.6621C92.3911 83.0177 92.3911 82.3465 92.4179 81.6216C93.2502 81.5948 97.7338 81.5679 98.6198 81.5679C99.5327 81.5679 103.265 81.5948 104.177 81.6216C104.312 81.6216 104.419 81.7559 104.446 81.8901C104.446 82.6687 104.446 83.4204 104.446 84.199C104.446 84.8434 104.446 85.5146 104.446 86.1858C103.989 86.2126 102.566 86.2395 101.17 86.2395C101.197 87.3403 101.224 88.441 101.224 89.676C101.224 92.3609 101.17 95.0457 101.117 97.7305C100.258 97.7842 99.64 97.811 98.7541 97.811C97.8412 97.811 96.9015 97.7842 96.0156 97.7305C95.8545 97.7305 95.7471 97.6231 95.7471 97.462C95.6934 94.9383 95.6397 92.3609 95.6397 89.676C95.6397 88.441 95.6397 87.3403 95.6397 86.2126C94.4315 86.1858 93.1428 86.1589 92.6864 86.1321C92.5253 86.1321 92.4179 86.0247 92.4179 85.8636C92.3911 85.1119 92.3911 84.387 92.3911 83.6621ZM105.572 89.676C105.572 86.9912 105.599 84.3064 105.68 81.6216C106.512 81.5948 110.351 81.5679 111.237 81.5679C112.15 81.5679 115.023 81.5948 115.936 81.6216C116.07 81.6216 116.177 81.7559 116.204 81.8901C116.204 82.7224 116.204 83.4741 116.204 84.2259C116.204 84.8702 116.204 85.5146 116.204 86.1858C115.345 86.2395 112.821 86.2395 111.935 86.2395C111.721 86.2395 111.345 86.2395 110.888 86.2395C110.888 86.6959 110.888 87.1792 110.888 87.6624C111.962 87.6624 113.412 87.6893 114.11 87.6893C114.244 87.6893 114.352 87.8235 114.379 87.9578C114.379 88.7095 114.379 89.3539 114.379 89.9982C114.379 90.562 114.379 91.1258 114.379 91.7702H110.888C110.888 92.2535 110.888 92.7099 110.888 93.1663H111.237C112.15 93.1663 115.077 93.1931 115.989 93.22C116.124 93.22 116.231 93.3542 116.258 93.4885C116.258 94.3208 116.258 95.0725 116.258 95.8243C116.258 96.4686 116.258 97.113 116.258 97.7842C115.399 97.8379 112.526 97.8647 111.64 97.8647C110.727 97.8647 106.834 97.7842 105.948 97.7305C105.787 97.7305 105.68 97.6231 105.68 97.462C105.626 94.9383 105.572 92.3609 105.572 89.676ZM117.764 89.676C117.764 86.9912 117.791 84.3064 117.872 81.6216C118.704 81.5948 119.187 81.5679 120.073 81.5679C120.986 81.5679 121.603 81.5948 122.409 81.6216C122.543 81.6485 122.651 81.7827 122.704 81.8901L126.06 88.7901L129.443 81.8901C129.524 81.7827 129.631 81.6485 129.765 81.6485C130.249 81.5948 130.893 81.5679 131.645 81.5679C132.557 81.5679 133.39 81.5948 134.141 81.6216C134.276 81.6485 134.41 81.7559 134.41 81.8901C134.464 84.4138 134.517 86.9912 134.517 89.676C134.517 92.3609 134.464 95.0457 134.41 97.7305C133.631 97.7842 133.202 97.811 132.316 97.811C131.671 97.811 130.732 97.7842 129.846 97.7305C129.685 97.7305 129.577 97.6231 129.577 97.462C129.524 95.0994 129.416 92.683 129.416 90.1593L126.356 96.3881L126.06 96.4418L125.792 96.3881L122.865 90.4546L122.973 97.7305C122.114 97.7842 121.63 97.811 120.744 97.811C120.1 97.811 119.026 97.7842 118.14 97.7305C117.979 97.7305 117.872 97.6231 117.872 97.462C117.818 94.9383 117.764 92.3609 117.764 89.676ZM14.646 109.622C15.5051 109.595 16.2031 109.568 17.0891 109.568C18.002 109.568 18.8074 109.568 19.7202 109.622C19.8813 109.648 20.0156 109.756 20.0424 109.89C20.4988 112.145 20.7942 114.401 21.0895 116.656C21.5728 114.642 22.244 112.065 22.8078 110.454L24.0696 110.4L25.3046 110.454C25.8416 112.038 26.5128 114.562 26.9961 116.548C27.2914 114.239 27.5867 111.931 27.9626 109.622C28.8217 109.595 29.4929 109.568 30.1105 109.568C31.0233 109.568 32.0435 109.595 32.9563 109.622C33.0906 109.622 33.198 109.729 33.198 109.863C33.198 109.944 33.1174 110.427 33.0637 110.722C32.3388 115.609 31.2918 120.79 30.0031 125.73C29.1439 125.784 26.9692 125.811 26.0832 125.811C25.4389 123.663 24.6334 121.515 24.0428 119.314C23.3984 121.515 22.5393 123.636 21.9218 125.811C21.009 125.811 19.049 125.784 18.1362 125.73C18.002 125.73 17.8677 125.623 17.814 125.462C16.5253 120.334 15.3709 114.857 14.646 109.622ZM34.0475 117.676C34.0475 114.991 34.0743 112.306 34.1549 109.622C34.9872 109.595 35.6047 109.568 36.4906 109.568C37.4035 109.568 38.3432 109.595 39.256 109.622C39.3902 109.622 39.5245 109.756 39.5245 109.89C39.5782 112.414 39.6319 114.991 39.6319 117.676C39.6319 120.361 39.5782 123.046 39.5245 125.73C38.6653 125.784 38.0478 125.811 37.1618 125.811C36.249 125.811 35.3093 125.784 34.4233 125.73C34.2623 125.73 34.1549 125.623 34.1549 125.462C34.1012 122.938 34.0475 120.361 34.0475 117.676ZM46.9419 117.676C46.9419 118.992 46.9419 120.119 46.9687 121.247H47.4251C48.15 121.247 48.687 120.871 48.687 117.676C48.687 114.481 48.15 114.132 47.4251 114.132H46.9687C46.9419 115.26 46.9419 116.387 46.9419 117.676ZM41.626 117.676C41.626 114.991 41.6797 112.575 41.6797 109.89C43.4516 109.622 45.4115 109.434 46.915 109.434C51.4524 109.434 54.2983 111.367 54.2983 117.676C54.2983 124.388 51.4792 125.784 46.9687 125.784C45.4921 125.784 43.8007 125.65 41.9481 125.462C41.7871 125.462 41.6797 125.355 41.6797 125.194C41.6797 122.67 41.626 120.361 41.626 117.676ZM55.7042 117.676C55.7042 114.991 55.7311 112.306 55.8116 109.622C56.6439 109.595 60.4832 109.568 61.3692 109.568C62.282 109.568 65.1547 109.595 66.0676 109.622C66.2018 109.622 66.3092 109.756 66.3361 109.89C66.3361 110.722 66.3361 111.474 66.3361 112.226C66.3361 112.87 66.3361 113.515 66.3361 114.186C65.4769 114.239 62.9532 114.239 62.0672 114.239C61.8524 114.239 61.4766 114.239 61.0201 114.239C61.0201 114.696 61.0201 115.179 61.0201 115.662C62.0941 115.662 63.5439 115.689 64.2419 115.689C64.3761 115.689 64.4835 115.824 64.5104 115.958C64.5104 116.71 64.5104 117.354 64.5104 117.998C64.5104 118.562 64.5104 119.126 64.5104 119.77H61.0201C61.0201 120.253 61.0201 120.71 61.0201 121.166H61.3692C62.282 121.166 65.2084 121.193 66.1213 121.22C66.2555 121.22 66.3629 121.354 66.3897 121.488C66.3897 122.321 66.3897 123.073 66.3897 123.824C66.3897 124.469 66.3897 125.113 66.3897 125.784C65.5306 125.838 62.6579 125.865 61.7719 125.865C60.859 125.865 56.9661 125.784 56.0801 125.73C55.919 125.73 55.8116 125.623 55.8116 125.462C55.7579 122.938 55.7042 120.361 55.7042 117.676ZM75.9988 117.327C75.9988 114.642 76.0525 112.575 76.0525 109.89C77.8245 109.622 80.0529 109.434 81.5564 109.434C85.5568 109.434 88.2953 109.756 88.2953 114.105C88.2953 116.092 87.1945 117.596 85.4225 118.428C86.04 118.643 86.5501 119.072 86.926 119.69C87.9731 121.784 88.5906 123.717 89.047 125.73C88.161 125.838 87.1945 125.892 86.2548 125.892C85.5299 125.892 84.805 125.865 84.0801 125.811C83.9459 125.811 83.7311 125.704 83.6774 125.543C82.9256 123.26 82.1739 120.978 81.6369 119.126C81.5295 119.126 81.3953 119.126 81.2879 119.126C81.3148 121.327 81.3953 123.636 81.4222 125.73C80.6167 125.784 79.8381 125.784 79.0595 125.784C78.1467 125.784 77.2339 125.784 76.321 125.73C76.1599 125.73 76.0525 125.623 76.0525 125.462C76.0525 122.938 75.9988 120.012 75.9988 117.327ZM81.2879 115.824H81.7443C82.5766 115.824 83.1673 115.367 83.1673 114.669C83.1673 113.837 82.8988 113.38 81.9323 113.38C81.7175 113.38 81.4759 113.38 81.2879 113.407C81.2879 114.186 81.2879 114.964 81.2879 115.824ZM90.0771 117.676C90.0771 114.991 90.1039 112.306 90.1845 109.622C91.0168 109.595 94.856 109.568 95.742 109.568C96.6549 109.568 99.5276 109.595 100.44 109.622C100.575 109.622 100.682 109.756 100.709 109.89C100.709 110.722 100.709 111.474 100.709 112.226C100.709 112.87 100.709 113.515 100.709 114.186C99.8498 114.239 97.3261 114.239 96.4401 114.239C96.2253 114.239 95.8494 114.239 95.393 114.239C95.393 114.696 95.393 115.179 95.393 115.662C96.4669 115.662 97.9167 115.689 98.6148 115.689C98.749 115.689 98.8564 115.824 98.8833 115.958C98.8833 116.71 98.8833 117.354 98.8833 117.998C98.8833 118.562 98.8833 119.126 98.8833 119.77H95.393C95.393 120.253 95.393 120.71 95.393 121.166H95.742C96.6549 121.166 99.5813 121.193 100.494 121.22C100.628 121.22 100.736 121.354 100.763 121.488C100.763 122.321 100.763 123.073 100.763 123.824C100.763 124.469 100.763 125.113 100.763 125.784C99.9035 125.838 97.0307 125.865 96.1448 125.865C95.2319 125.865 91.339 125.784 90.453 125.73C90.2919 125.73 90.1845 125.623 90.1845 125.462C90.1308 122.938 90.0771 120.361 90.0771 117.676ZM107.638 117.676C107.638 118.992 107.638 120.119 107.665 121.247H108.122C108.847 121.247 109.384 120.871 109.384 117.676C109.384 114.481 108.847 114.132 108.122 114.132H107.665C107.638 115.26 107.638 116.387 107.638 117.676ZM102.323 117.676C102.323 114.991 102.376 112.575 102.376 109.89C104.148 109.622 106.108 109.434 107.612 109.434C112.149 109.434 114.995 111.367 114.995 117.676C114.995 124.388 112.176 125.784 107.665 125.784C106.189 125.784 104.497 125.65 102.645 125.462C102.484 125.462 102.376 125.355 102.376 125.194C102.376 122.67 102.323 120.361 102.323 117.676ZM116.401 117.676C116.401 114.991 116.428 112.306 116.508 109.622C117.34 109.595 121.18 109.568 122.066 109.568C122.979 109.568 125.851 109.595 126.764 109.622C126.898 109.622 127.006 109.756 127.033 109.89C127.033 110.722 127.033 111.474 127.033 112.226C127.033 112.87 127.033 113.515 127.033 114.186C126.173 114.239 123.65 114.239 122.764 114.239C122.549 114.239 122.173 114.239 121.717 114.239C121.717 114.696 121.717 115.179 121.717 115.662C122.791 115.662 124.24 115.689 124.938 115.689C125.073 115.689 125.18 115.824 125.207 115.958C125.207 116.71 125.207 117.354 125.207 117.998C125.207 118.562 125.207 119.126 125.207 119.77H121.717C121.717 120.253 121.717 120.71 121.717 121.166H122.066C122.979 121.166 125.905 121.193 126.818 121.22C126.952 121.22 127.059 121.354 127.086 121.488C127.086 122.321 127.086 123.073 127.086 123.824C127.086 124.469 127.086 125.113 127.086 125.784C126.227 125.838 123.354 125.865 122.468 125.865C121.556 125.865 117.663 125.784 116.777 125.73C116.616 125.73 116.508 125.623 116.508 125.462C116.454 122.938 116.401 120.361 116.401 117.676ZM128.27 125.569L128.915 120.737C130.794 121.327 132.459 121.676 133.667 121.676C134.687 121.676 135.117 121.139 135.117 120.71C135.117 120.173 134.338 119.958 133.291 119.663C131.277 119.099 128.297 118.24 128.297 114.105C128.297 109.756 130.982 109.434 134.66 109.434C136.217 109.434 138.043 109.675 139.842 110.024L139.224 114.508C137.963 113.944 136.056 113.407 134.392 113.407C133.559 113.407 133.022 113.676 133.022 114.159C133.022 114.642 133.855 114.884 134.956 115.206C137.184 115.877 140.513 116.871 140.513 120.602C140.513 124.871 137.56 125.865 133.935 125.865C132.11 125.865 130.123 125.784 128.27 125.569ZM141.807 117.676C141.807 114.991 141.834 112.306 141.914 109.622C142.747 109.595 143.364 109.568 144.25 109.568C145.163 109.568 146.103 109.595 147.015 109.622C147.15 109.622 147.284 109.756 147.284 109.89C147.338 112.414 147.391 114.991 147.391 117.676C147.391 120.361 147.338 123.046 147.284 125.73C146.425 125.784 145.807 125.811 144.921 125.811C144.008 125.811 143.069 125.784 142.183 125.73C142.022 125.73 141.914 125.623 141.914 125.462C141.861 122.938 141.807 120.361 141.807 117.676ZM148.795 117.676C148.795 111.367 151.641 109.434 156.178 109.434C157.681 109.434 159.265 109.622 160.984 109.89L160.42 114.132H155.641C154.916 114.132 154.379 114.481 154.379 117.676C154.379 120.871 155.023 121.22 155.775 121.22H156.312C156.312 120.146 156.232 118.535 156.205 117.139C156.93 117.112 157.628 117.112 158.326 117.112C159.051 117.112 159.802 117.112 160.662 117.139C160.796 117.166 160.903 117.273 160.93 117.408C160.984 118.669 161.037 119.851 161.037 121.166C161.037 122.428 160.984 124.227 160.93 125.274C159.077 125.623 158.057 125.784 156.124 125.784C151.614 125.784 148.795 124.388 148.795 117.676ZM162.808 117.676C162.808 114.991 162.835 112.306 162.915 109.622C163.748 109.595 164.231 109.568 165.117 109.568C165.896 109.568 166.594 109.595 167.453 109.622C167.587 109.648 167.668 109.756 167.748 109.89L170.513 116.763L170.433 109.622C171.265 109.595 171.883 109.568 172.769 109.568C173.682 109.568 174.46 109.595 175.266 109.622C175.4 109.648 175.534 109.756 175.534 109.89C175.588 112.414 175.641 114.991 175.641 117.676C175.641 120.361 175.588 123.046 175.534 125.73C174.782 125.784 174.326 125.811 173.44 125.811C172.634 125.811 171.856 125.784 170.997 125.73C170.836 125.73 170.755 125.623 170.701 125.462L167.909 118.616L168.017 125.73C167.157 125.784 166.674 125.811 165.788 125.811C164.875 125.811 164.043 125.784 163.184 125.73C163.023 125.73 162.915 125.623 162.915 125.462C162.862 122.938 162.808 120.361 162.808 117.676ZM15.8004 145.676C15.8004 142.991 15.8541 140.521 15.8541 137.89C17.6261 137.622 19.586 137.434 21.0895 137.434C25.6268 137.434 28.3653 138.024 28.3653 143.797C28.3653 148.898 25.6537 150.025 21.17 150.025C21.17 151.26 21.1969 152.495 21.2237 153.73C20.4183 153.784 19.6397 153.784 18.8611 153.784C17.9483 153.784 17.0354 153.784 16.1226 153.73C15.9615 153.73 15.8541 153.623 15.8541 153.462C15.8541 150.938 15.8004 148.361 15.8004 145.676ZM21.1163 145.649H21.5191C22.244 145.649 22.9152 145.461 22.9152 143.877C22.9152 142.213 22.7809 142.025 21.707 142.025H21.1163V145.649ZM29.644 145.327C29.644 142.642 29.6977 140.575 29.6977 137.89C31.4696 137.622 33.698 137.434 35.2015 137.434C39.2019 137.434 41.9404 137.756 41.9404 142.105C41.9404 144.092 40.8396 145.596 39.0676 146.428C39.6851 146.643 40.1953 147.072 40.5711 147.69C41.6182 149.784 42.2357 151.717 42.6921 153.73C41.8061 153.838 40.8396 153.892 39.8999 153.892C39.175 153.892 38.4501 153.865 37.7252 153.811C37.591 153.811 37.3762 153.704 37.3225 153.543C36.5708 151.26 35.819 148.978 35.2821 147.126C35.1747 147.126 35.0404 147.126 34.933 147.126C34.9599 149.327 35.0404 151.636 35.0673 153.73C34.2618 153.784 33.4832 153.784 32.7046 153.784C31.7918 153.784 30.879 153.784 29.9661 153.73C29.8051 153.73 29.6977 153.623 29.6977 153.462C29.6977 150.938 29.644 148.012 29.644 145.327ZM34.933 143.824H35.3895C36.2217 143.824 36.8124 143.367 36.8124 142.669C36.8124 141.837 36.5439 141.38 35.5774 141.38C35.3626 141.38 35.121 141.38 34.933 141.407C34.933 142.186 34.933 142.964 34.933 143.824ZM43.1853 145.676C43.1853 140.414 45.521 137.622 49.3066 137.434C54.4077 137.434 56.8241 139.474 56.8241 145.676C56.8241 150.965 54.4346 153.704 50.649 153.892C45.521 153.892 43.1853 151.905 43.1853 145.676ZM48.7697 145.676C48.7697 148.871 49.3066 149.22 50.0315 149.22C50.7564 149.22 51.2128 148.871 51.2128 145.676C51.2128 142.481 50.6759 142.132 49.951 142.132C49.2261 142.132 48.7697 142.481 48.7697 145.676ZM57.8454 153.838L58.0333 149.435L60.6912 149.676C61.792 149.757 62.5169 149.488 62.5169 146.831C62.5169 145.488 62.5169 143.877 62.5438 142.239C61.1477 142.213 59.1341 142.159 58.4629 142.132C58.3018 142.132 58.1944 142.025 58.1944 141.864C58.1675 141.112 58.1675 140.387 58.1675 139.662C58.1675 139.018 58.1675 138.347 58.1944 137.622C59.0267 137.595 63.1881 137.568 64.0741 137.568C64.9869 137.568 66.8126 137.595 67.7254 137.622C67.8597 137.622 67.9939 137.756 67.9939 137.89C68.0476 140.414 68.1013 144.011 68.1013 146.696C68.1013 152.871 65.2286 154.187 60.7181 154.187C59.5905 154.187 58.9193 154.053 57.8454 153.838ZM69.8624 145.676C69.8624 142.991 69.8892 140.306 69.9698 137.622C70.8021 137.595 74.6413 137.568 75.5273 137.568C76.4402 137.568 79.3129 137.595 80.2257 137.622C80.36 137.622 80.4674 137.756 80.4942 137.89C80.4942 138.722 80.4942 139.474 80.4942 140.226C80.4942 140.87 80.4942 141.515 80.4942 142.186C79.6351 142.239 77.1114 142.239 76.2254 142.239C76.0106 142.239 75.6347 142.239 75.1783 142.239C75.1783 142.696 75.1783 143.179 75.1783 143.662C76.2522 143.662 77.702 143.689 78.4001 143.689C78.5343 143.689 78.6417 143.824 78.6685 143.958C78.6685 144.71 78.6685 145.354 78.6685 145.998C78.6685 146.562 78.6685 147.126 78.6685 147.77H75.1783C75.1783 148.253 75.1783 148.71 75.1783 149.166H75.5273C76.4402 149.166 79.3666 149.193 80.2794 149.22C80.4137 149.22 80.5211 149.354 80.5479 149.488C80.5479 150.321 80.5479 151.073 80.5479 151.824C80.5479 152.469 80.5479 153.113 80.5479 153.784C79.6888 153.838 76.816 153.865 75.93 153.865C75.0172 153.865 71.1242 153.784 70.2383 153.73C70.0772 153.73 69.9698 153.623 69.9698 153.462C69.9161 150.938 69.8624 148.361 69.8624 145.676ZM81.5172 145.676C81.5172 139.367 84.3631 137.434 88.9004 137.434C90.0012 137.434 90.8603 137.648 91.9611 137.89L91.3704 142.105L88.9004 141.944C87.907 141.89 87.1016 142.481 87.1016 145.676C87.1016 148.871 87.7996 149.488 88.9004 149.435L91.3704 149.247L91.9342 153.489C90.8335 153.704 89.9475 153.784 88.8467 153.784C84.3362 153.784 81.5172 152.388 81.5172 145.676ZM92.3648 139.662C92.3648 139.018 92.3648 138.347 92.3917 137.622C93.224 137.595 97.7076 137.568 98.5936 137.568C99.5064 137.568 103.238 137.595 104.151 137.622C104.285 137.622 104.393 137.756 104.42 137.89C104.42 138.669 104.42 139.42 104.42 140.199C104.42 140.843 104.42 141.515 104.42 142.186C103.963 142.213 102.54 142.239 101.144 142.239C101.171 143.34 101.198 144.441 101.198 145.676C101.198 148.361 101.144 151.046 101.09 153.73C100.231 153.784 99.6138 153.811 98.7278 153.811C97.815 153.811 96.8753 153.784 95.9893 153.73C95.8282 153.73 95.7209 153.623 95.7209 153.462C95.6672 150.938 95.6135 148.361 95.6135 145.676C95.6135 144.441 95.6135 143.34 95.6135 142.213C94.4053 142.186 93.1166 142.159 92.6602 142.132C92.4991 142.132 92.3917 142.025 92.3917 141.864C92.3648 141.112 92.3648 140.387 92.3648 139.662ZM105.224 153.569L105.868 148.737C107.748 149.327 109.412 149.676 110.62 149.676C111.641 149.676 112.07 149.139 112.07 148.71C112.07 148.173 111.292 147.958 110.245 147.663C108.231 147.099 105.251 146.24 105.251 142.105C105.251 137.756 107.936 137.434 111.614 137.434C113.171 137.434 114.997 137.675 116.796 138.024L116.178 142.508C114.916 141.944 113.01 141.407 111.345 141.407C110.513 141.407 109.976 141.676 109.976 142.159C109.976 142.642 110.808 142.884 111.909 143.206C114.138 143.877 117.467 144.871 117.467 148.602C117.467 152.871 114.513 153.865 110.889 153.865C109.063 153.865 107.077 153.784 105.224 153.569Z" fill="#674545"/>
</svg>
