<svg width="160" height="324" viewBox="0 0 160 324" fill="none" xmlns="http://www.w3.org/2000/svg">
<rect x="0.359375" y="0.578125" width="159.64" height="323.037" rx="11.61" fill="#40BCD9"/>
<path d="M28.5672 24.0477C28.3104 23.9835 28.1099 23.783 28.0457 23.5263L26.6321 17.872C26.4512 17.1482 25.4225 17.1482 25.2416 17.872L23.828 23.5263C23.7638 23.783 23.5633 23.9835 23.3065 24.0477L17.6523 25.4613C16.9284 25.6422 16.9284 26.6709 17.6522 26.8519L23.3065 28.2654C23.5633 28.3296 23.7638 28.5301 23.828 28.7869L25.2416 34.4412C25.4225 35.165 26.4512 35.165 26.6321 34.4412L28.0457 28.7869C28.1099 28.5301 28.3104 28.3296 28.5672 28.2654L34.2215 26.8519C34.9453 26.6709 34.9453 25.6422 34.2215 25.4613L28.5672 24.0477Z" fill="white"/>
<path d="M21.1187 63.3019C21.1187 64.5463 21.1187 65.613 21.1441 66.6796H21.5759C22.2616 66.6796 22.7695 66.3241 22.7695 63.3019C22.7695 60.2796 22.2616 59.9495 21.5759 59.9495H21.1441C21.1187 61.0161 21.1187 62.0828 21.1187 63.3019ZM16.0901 63.3019C16.0901 60.7622 16.1409 58.4765 16.1409 55.9368C17.8171 55.6828 19.6711 55.505 21.0933 55.505C25.3854 55.505 28.0774 57.3336 28.0774 63.3019C28.0774 69.6511 25.4108 70.9717 21.1441 70.9717C19.7473 70.9717 18.1473 70.8447 16.3949 70.6669C16.2425 70.6669 16.1409 70.5653 16.1409 70.413C16.1409 68.0257 16.0901 65.8415 16.0901 63.3019ZM29.4074 63.3019C29.4074 60.7622 29.4328 58.2225 29.509 55.6828C30.2963 55.6574 33.928 55.632 34.7661 55.632C35.6296 55.632 38.3471 55.6574 39.2106 55.6828C39.3376 55.6828 39.4391 55.8098 39.4645 55.9368C39.4645 56.7241 39.4645 57.4352 39.4645 58.1463C39.4645 58.7558 39.4645 59.3653 39.4645 60.0003C38.6518 60.0511 36.2645 60.0511 35.4265 60.0511C35.2233 60.0511 34.8677 60.0511 34.436 60.0511C34.436 60.4828 34.436 60.9399 34.436 61.3971C35.4518 61.3971 36.8233 61.4225 37.4836 61.4225C37.6106 61.4225 37.7122 61.5495 37.7376 61.6765C37.7376 62.3876 37.7376 62.9971 37.7376 63.6066C37.7376 64.1399 37.7376 64.6733 37.7376 65.2828H34.436C34.436 65.7399 34.436 66.1717 34.436 66.6034H34.7661C35.6296 66.6034 38.3979 66.6288 39.2614 66.6542C39.3884 66.6542 39.4899 66.7812 39.5153 66.9082C39.5153 67.6955 39.5153 68.4066 39.5153 69.1177C39.5153 69.7272 39.5153 70.3368 39.5153 70.9717C38.7026 71.0225 35.9852 71.0479 35.1471 71.0479C34.2836 71.0479 30.6011 70.9717 29.763 70.9209C29.6106 70.9209 29.509 70.8193 29.509 70.6669C29.4582 68.2796 29.4074 65.8415 29.4074 63.3019ZM40.6354 70.7685L41.2449 66.1971C43.0227 66.7558 44.5973 67.086 45.7401 67.086C46.7052 67.086 47.1116 66.578 47.1116 66.1717C47.1116 65.6638 46.3751 65.4606 45.3846 65.1812C43.4798 64.6479 40.6608 63.8352 40.6608 59.9241C40.6608 55.8098 43.2005 55.505 46.6798 55.505C48.1528 55.505 49.8798 55.7336 51.5814 56.0638L50.9973 60.305C49.8036 59.7717 48.0005 59.2638 46.4259 59.2638C45.6386 59.2638 45.1306 59.5177 45.1306 59.9749C45.1306 60.432 45.9179 60.6606 46.9592 60.9653C49.0671 61.6003 52.2163 62.5399 52.2163 66.0701C52.2163 70.1082 49.4227 71.0479 45.9941 71.0479C44.2671 71.0479 42.3878 70.9717 40.6354 70.7685ZM53.4401 63.3019C53.4401 60.7622 53.4655 58.2225 53.5417 55.6828C54.329 55.6574 54.9132 55.632 55.7513 55.632C56.6147 55.632 57.5036 55.6574 58.3671 55.6828C58.4941 55.6828 58.6211 55.8098 58.6211 55.9368C58.6719 58.3241 58.7227 60.7622 58.7227 63.3019C58.7227 65.8415 58.6719 68.3812 58.6211 70.9209C57.8084 70.9717 57.2243 70.9971 56.3862 70.9971C55.5227 70.9971 54.6338 70.9717 53.7957 70.9209C53.6433 70.9209 53.5417 70.8193 53.5417 70.6669C53.4909 68.2796 53.4401 65.8415 53.4401 63.3019ZM60.0503 63.3019C60.0503 57.3336 62.7423 55.505 67.0344 55.505C68.4566 55.505 69.955 55.6828 71.5804 55.9368L71.0471 59.9495H66.5265C65.8407 59.9495 65.3328 60.2796 65.3328 63.3019C65.3328 66.3241 65.9423 66.6542 66.6534 66.6542H67.1614C67.1614 65.6384 67.0852 64.1145 67.0598 62.7939C67.7455 62.7685 68.4058 62.7685 69.0661 62.7685C69.7518 62.7685 70.463 62.7685 71.2757 62.7939C71.4026 62.8193 71.5042 62.9209 71.5296 63.0479C71.5804 64.2415 71.6312 65.359 71.6312 66.6034C71.6312 67.7971 71.5804 69.4987 71.5296 70.4892C69.7772 70.8193 68.8122 70.9717 66.9836 70.9717C62.7169 70.9717 60.0503 69.6511 60.0503 63.3019ZM73.3062 63.3019C73.3062 60.7622 73.3316 58.2225 73.4078 55.6828C74.1951 55.6574 74.6522 55.632 75.4903 55.632C76.2268 55.632 76.8872 55.6574 77.6999 55.6828C77.8268 55.7082 77.903 55.8098 77.9792 55.9368L80.5951 62.4384L80.5189 55.6828C81.3062 55.6574 81.8903 55.632 82.7284 55.632C83.5919 55.632 84.3284 55.6574 85.0903 55.6828C85.2173 55.7082 85.3443 55.8098 85.3443 55.9368C85.3951 58.3241 85.4459 60.7622 85.4459 63.3019C85.4459 65.8415 85.3951 68.3812 85.3443 70.9209C84.6332 70.9717 84.2015 70.9971 83.3634 70.9971C82.6015 70.9971 81.8649 70.9717 81.0522 70.9209C80.8999 70.9209 80.8237 70.8193 80.7729 70.6669L78.1316 64.1907L78.2332 70.9209C77.4205 70.9717 76.9634 70.9971 76.1253 70.9971C75.2618 70.9971 74.4745 70.9717 73.6618 70.9209C73.5094 70.9209 73.4078 70.8193 73.4078 70.6669C73.357 68.2796 73.3062 65.8415 73.3062 63.3019ZM87.2695 63.3019C87.2695 60.7622 87.2949 58.2225 87.3711 55.6828C88.1584 55.6574 88.7425 55.632 89.5806 55.632C90.4441 55.632 91.333 55.6574 92.1965 55.6828C92.3235 55.6828 92.4505 55.8098 92.4505 55.9368C92.5013 58.3241 92.5521 60.7622 92.5521 63.3019C92.5521 65.8415 92.5013 68.3812 92.4505 70.9209C91.6378 70.9717 91.0536 70.9971 90.2155 70.9971C89.3521 70.9971 88.4632 70.9717 87.6251 70.9209C87.4727 70.9209 87.3711 70.8193 87.3711 70.6669C87.3203 68.2796 87.2695 65.8415 87.2695 63.3019ZM94.3876 63.3019C94.3876 60.7622 94.413 58.2225 94.4891 55.6828C95.2764 55.6574 95.7336 55.632 96.5717 55.632C97.3082 55.632 97.9685 55.6574 98.7812 55.6828C98.9082 55.7082 98.9844 55.8098 99.0606 55.9368L101.676 62.4384L101.6 55.6828C102.388 55.6574 102.972 55.632 103.81 55.632C104.673 55.632 105.41 55.6574 106.172 55.6828C106.299 55.7082 106.426 55.8098 106.426 55.9368C106.476 58.3241 106.527 60.7622 106.527 63.3019C106.527 65.8415 106.476 68.3812 106.426 70.9209C105.715 70.9717 105.283 70.9971 104.445 70.9971C103.683 70.9971 102.946 70.9717 102.134 70.9209C101.981 70.9209 101.905 70.8193 101.854 70.6669L99.213 64.1907L99.3145 70.9209C98.5018 70.9717 98.0447 70.9971 97.2066 70.9971C96.3431 70.9971 95.5558 70.9717 94.7431 70.9209C94.5907 70.9209 94.4891 70.8193 94.4891 70.6669C94.4384 68.2796 94.3876 65.8415 94.3876 63.3019ZM107.843 63.3019C107.843 57.3336 110.535 55.505 114.827 55.505C116.249 55.505 117.748 55.6828 119.373 55.9368L118.84 59.9495H114.319C113.633 59.9495 113.125 60.2796 113.125 63.3019C113.125 66.3241 113.735 66.6542 114.446 66.6542H114.954C114.954 65.6384 114.878 64.1145 114.852 62.7939C115.538 62.7685 116.198 62.7685 116.859 62.7685C117.545 62.7685 118.256 62.7685 119.068 62.7939C119.195 62.8193 119.297 62.9209 119.322 63.0479C119.373 64.2415 119.424 65.359 119.424 66.6034C119.424 67.7971 119.373 69.4987 119.322 70.4892C117.57 70.8193 116.605 70.9717 114.776 70.9717C110.51 70.9717 107.843 69.6511 107.843 63.3019ZM16.0393 90.3019C16.0393 87.7622 16.0647 85.2225 16.1409 82.6828C16.9282 82.6574 17.3854 82.632 18.2235 82.632C18.96 82.632 19.6203 82.6574 20.433 82.6828C20.56 82.7082 20.6362 82.8098 20.7124 82.9368L23.3282 89.4384L23.252 82.6828C24.0393 82.6574 24.6235 82.632 25.4616 82.632C26.3251 82.632 27.0616 82.6574 27.8235 82.6828C27.9505 82.7082 28.0774 82.8098 28.0774 82.9368C28.1282 85.3241 28.179 87.7622 28.179 90.3019C28.179 92.8415 28.1282 95.3812 28.0774 97.9209C27.3663 97.9717 26.9346 97.9971 26.0965 97.9971C25.3346 97.9971 24.5981 97.9717 23.7854 97.9209C23.633 97.9209 23.5568 97.8193 23.506 97.6669L20.8647 91.1907L20.9663 97.9209C20.1536 97.9717 19.6965 97.9971 18.8584 97.9971C17.9949 97.9971 17.2076 97.9717 16.3949 97.9209C16.2425 97.9209 16.1409 97.8193 16.1409 97.6669C16.0901 95.2796 16.0393 92.8415 16.0393 90.3019ZM30.0026 90.3019C30.0026 87.7622 30.028 85.2225 30.1042 82.6828C30.8915 82.6574 34.5233 82.632 35.3614 82.632C36.2249 82.632 38.9423 82.6574 39.8058 82.6828C39.9328 82.6828 40.0344 82.8098 40.0598 82.9368C40.0598 83.7241 40.0598 84.4352 40.0598 85.1463C40.0598 85.7558 40.0598 86.3653 40.0598 87.0003C39.2471 87.0511 36.8598 87.0511 36.0217 87.0511C35.8185 87.0511 35.463 87.0511 35.0312 87.0511C35.0312 87.4828 35.0312 87.9399 35.0312 88.3971C36.0471 88.3971 37.4185 88.4225 38.0788 88.4225C38.2058 88.4225 38.3074 88.5495 38.3328 88.6765C38.3328 89.3876 38.3328 89.9971 38.3328 90.6066C38.3328 91.1399 38.3328 91.6733 38.3328 92.2828H35.0312C35.0312 92.7399 35.0312 93.1717 35.0312 93.6034H35.3614C36.2249 93.6034 38.9931 93.6288 39.8566 93.6542C39.9836 93.6542 40.0852 93.7812 40.1106 93.9082C40.1106 94.6955 40.1106 95.4066 40.1106 96.1177C40.1106 96.7272 40.1106 97.3368 40.1106 97.9717C39.2979 98.0225 36.5804 98.0479 35.7423 98.0479C34.8788 98.0479 31.1963 97.9717 30.3582 97.9209C30.2058 97.9209 30.1042 97.8193 30.1042 97.6669C30.0534 95.2796 30.0026 92.8415 30.0026 90.3019ZM40.8497 97.9209C41.3068 95.7368 42.3989 90.6828 44.6592 89.5907V89.5653C43.0846 89.0828 41.3322 84.5622 40.9005 82.7082C41.7386 82.6066 42.5005 82.5558 43.4147 82.5558C44.1005 82.5558 44.7862 82.5812 45.4719 82.632C45.5989 82.632 45.802 82.7336 45.8528 82.886C46.3608 84.4098 46.8687 85.832 47.3259 87.1018C47.8084 85.832 48.3417 84.4098 48.8497 82.886C48.9005 82.7336 49.1036 82.632 49.2306 82.632C49.9163 82.5812 50.602 82.5558 51.2878 82.5558C52.1767 82.5558 52.964 82.6066 53.802 82.7082C53.3703 84.5622 51.6941 89.1336 50.0433 89.5653V89.5907C52.4306 91.0638 53.2941 95.686 53.8528 97.9209C53.0147 98.0225 52.1005 98.0733 51.2116 98.0733C50.5259 98.0733 49.8401 98.0479 49.1544 97.9971C49.0274 97.9971 48.8243 97.8955 48.7735 97.7431C48.2909 96.2955 47.783 94.3145 47.3513 92.613C46.9195 94.3145 46.4116 96.2955 45.929 97.7431C45.8782 97.8955 45.6751 97.9971 45.5481 97.9971C44.8624 98.0479 44.1767 98.0733 43.4909 98.0733C42.5767 98.0733 41.6878 98.0225 40.8497 97.9209ZM54.2153 84.613C54.2153 84.0034 54.2153 83.3685 54.2407 82.6828C55.028 82.6574 59.2693 82.632 60.1074 82.632C60.9709 82.632 64.5011 82.6574 65.3645 82.6828C65.4915 82.6828 65.5931 82.8098 65.6185 82.9368C65.6185 83.6733 65.6185 84.3844 65.6185 85.1209C65.6185 85.7304 65.6185 86.3653 65.6185 87.0003C65.1868 87.0257 63.8407 87.0511 62.5201 87.0511C62.5455 88.0923 62.5709 89.1336 62.5709 90.3019C62.5709 92.8415 62.5201 95.3812 62.4693 97.9209C61.6566 97.9717 61.0725 97.9971 60.2344 97.9971C59.3709 97.9971 58.482 97.9717 57.6439 97.9209C57.4915 97.9209 57.3899 97.8193 57.3899 97.6669C57.3392 95.2796 57.2884 92.8415 57.2884 90.3019C57.2884 89.1336 57.2884 88.0923 57.2884 87.0257C56.1455 87.0003 54.9265 86.9749 54.4947 86.9495C54.3423 86.9495 54.2407 86.8479 54.2407 86.6955C54.2153 85.9844 54.2153 85.2987 54.2153 84.613ZM15.5314 117.302C15.5314 111.334 18.2235 109.505 22.5155 109.505C23.9378 109.505 25.4362 109.683 27.0616 109.937L26.5282 113.949H22.0076C21.3219 113.949 20.814 114.28 20.814 117.302C20.814 120.324 21.4235 120.654 22.1346 120.654H22.6425C22.6425 119.638 22.5663 118.115 22.5409 116.794C23.2267 116.769 23.887 116.769 24.5473 116.769C25.233 116.769 25.9441 116.769 26.7568 116.794C26.8838 116.819 26.9854 116.921 27.0108 117.048C27.0616 118.242 27.1124 119.359 27.1124 120.603C27.1124 121.797 27.0616 123.499 27.0108 124.489C25.2584 124.819 24.2933 124.972 22.4647 124.972C18.1981 124.972 15.5314 123.651 15.5314 117.302ZM28.7874 117.302C28.7874 114.762 28.8128 112.222 28.889 109.683C29.6763 109.657 33.308 109.632 34.1461 109.632C35.0096 109.632 37.727 109.657 38.5905 109.683C38.7175 109.683 38.8191 109.81 38.8445 109.937C38.8445 110.724 38.8445 111.435 38.8445 112.146C38.8445 112.756 38.8445 113.365 38.8445 114C38.0318 114.051 35.6445 114.051 34.8064 114.051C34.6032 114.051 34.2477 114.051 33.8159 114.051C33.8159 114.483 33.8159 114.94 33.8159 115.397C34.8318 115.397 36.2032 115.422 36.8636 115.422C36.9905 115.422 37.0921 115.549 37.1175 115.676C37.1175 116.388 37.1175 116.997 37.1175 117.607C37.1175 118.14 37.1175 118.673 37.1175 119.283H33.8159C33.8159 119.74 33.8159 120.172 33.8159 120.603H34.1461C35.0096 120.603 37.7778 120.629 38.6413 120.654C38.7683 120.654 38.8699 120.781 38.8953 120.908C38.8953 121.696 38.8953 122.407 38.8953 123.118C38.8953 123.727 38.8953 124.337 38.8953 124.972C38.0826 125.022 35.3651 125.048 34.527 125.048C33.6636 125.048 29.981 124.972 29.1429 124.921C28.9905 124.921 28.889 124.819 28.889 124.667C28.8382 122.28 28.7874 119.842 28.7874 117.302ZM40.3201 117.302C40.3201 114.762 40.3455 112.222 40.4217 109.683C41.209 109.657 41.6661 109.632 42.5042 109.632C43.2407 109.632 43.9011 109.657 44.7138 109.683C44.8407 109.708 44.9169 109.81 44.9931 109.937L47.609 116.438L47.5328 109.683C48.3201 109.657 48.9042 109.632 49.7423 109.632C50.6058 109.632 51.3423 109.657 52.1042 109.683C52.2312 109.708 52.3582 109.81 52.3582 109.937C52.409 112.324 52.4598 114.762 52.4598 117.302C52.4598 119.842 52.409 122.381 52.3582 124.921C51.6471 124.972 51.2153 124.997 50.3772 124.997C49.6153 124.997 48.8788 124.972 48.0661 124.921C47.9138 124.921 47.8376 124.819 47.7868 124.667L45.1455 118.191L45.2471 124.921C44.4344 124.972 43.9772 124.997 43.1391 124.997C42.2757 124.997 41.4884 124.972 40.6757 124.921C40.5233 124.921 40.4217 124.819 40.4217 124.667C40.3709 122.28 40.3201 119.842 40.3201 117.302ZM54.2834 117.302C54.2834 114.762 54.3088 112.222 54.385 109.683C55.1723 109.657 58.804 109.632 59.6421 109.632C60.5056 109.632 63.2231 109.657 64.0866 109.683C64.2136 109.683 64.3151 109.81 64.3405 109.937C64.3405 110.724 64.3405 111.435 64.3405 112.146C64.3405 112.756 64.3405 113.365 64.3405 114C63.5278 114.051 61.1405 114.051 60.3024 114.051C60.0993 114.051 59.7437 114.051 59.312 114.051C59.312 114.483 59.312 114.94 59.312 115.397C60.3278 115.397 61.6993 115.422 62.3596 115.422C62.4866 115.422 62.5882 115.549 62.6136 115.676C62.6136 116.388 62.6136 116.997 62.6136 117.607C62.6136 118.14 62.6136 118.673 62.6136 119.283H59.312C59.312 119.74 59.312 120.172 59.312 120.603H59.6421C60.5056 120.603 63.2739 120.629 64.1374 120.654C64.2643 120.654 64.3659 120.781 64.3913 120.908C64.3913 121.696 64.3913 122.407 64.3913 123.118C64.3913 123.727 64.3913 124.337 64.3913 124.972C63.5786 125.022 60.8612 125.048 60.0231 125.048C59.1596 125.048 55.477 124.972 54.639 124.921C54.4866 124.921 54.385 124.819 54.385 124.667C54.3342 122.28 54.2834 119.842 54.2834 117.302ZM65.8669 116.972C65.8669 114.432 65.9177 112.476 65.9177 109.937C67.5939 109.683 69.7018 109.505 71.1241 109.505C74.9082 109.505 77.4987 109.81 77.4987 113.924C77.4987 115.803 76.4574 117.226 74.7812 118.013C75.3653 118.216 75.8479 118.622 76.2034 119.207C77.1939 121.188 77.778 123.016 78.2098 124.921C77.3717 125.022 76.4574 125.073 75.5685 125.073C74.8828 125.073 74.1971 125.048 73.5114 124.997C73.3844 124.997 73.1812 124.896 73.1304 124.743C72.4193 122.584 71.7082 120.426 71.2003 118.673C71.0987 118.673 70.9717 118.673 70.8701 118.673C70.8955 120.756 70.9717 122.94 70.9971 124.921C70.2352 124.972 69.4987 124.972 68.7622 124.972C67.8987 124.972 67.0352 124.972 66.1717 124.921C66.0193 124.921 65.9177 124.819 65.9177 124.667C65.9177 122.28 65.8669 119.511 65.8669 116.972ZM70.8701 115.549H71.3018C72.0892 115.549 72.6479 115.118 72.6479 114.457C72.6479 113.67 72.3939 113.238 71.4796 113.238C71.2765 113.238 71.0479 113.238 70.8701 113.264C70.8701 114 70.8701 114.737 70.8701 115.549ZM78.2445 124.718C78.2445 124.667 78.3207 124.184 78.3715 123.93C79.1334 119.283 80.2001 114.381 81.1397 109.683C82.2826 109.632 83.4509 109.632 84.6445 109.632C85.8636 109.632 87.0572 109.657 88.2763 109.683C88.4032 109.683 88.5302 109.81 88.5556 109.937C89.5207 114.813 90.7144 119.994 91.4509 124.921C90.6636 124.972 90.1048 124.997 89.2413 124.997C88.3778 124.997 87.6413 124.997 86.7524 124.921C86.6255 124.921 86.4985 124.819 86.4731 124.667C86.2953 123.854 86.1429 122.991 86.0159 122.127H83.654C83.5017 123.067 83.3493 124.007 83.1715 124.921C82.3588 124.972 81.9017 124.997 81.0636 124.997C80.2001 124.997 79.3112 124.972 78.4731 124.921C78.3461 124.921 78.2445 124.845 78.2445 124.718ZM84.0858 118.826H85.508C85.2286 116.946 84.9747 115.042 84.7207 113.137C84.4921 115.016 84.289 116.921 84.0858 118.826ZM91.0209 111.613C91.0209 111.003 91.0209 110.369 91.0463 109.683C91.8336 109.657 96.0749 109.632 96.913 109.632C97.7765 109.632 101.307 109.657 102.17 109.683C102.297 109.683 102.399 109.81 102.424 109.937C102.424 110.673 102.424 111.384 102.424 112.121C102.424 112.73 102.424 113.365 102.424 114C101.992 114.026 100.646 114.051 99.3257 114.051C99.3511 115.092 99.3765 116.134 99.3765 117.302C99.3765 119.842 99.3257 122.381 99.2749 124.921C98.4622 124.972 97.878 124.997 97.0399 124.997C96.1765 124.997 95.2876 124.972 94.4495 124.921C94.2971 124.921 94.1955 124.819 94.1955 124.667C94.1447 122.28 94.0939 119.842 94.0939 117.302C94.0939 116.134 94.0939 115.092 94.0939 114.026C92.9511 114 91.732 113.975 91.3003 113.949C91.1479 113.949 91.0463 113.848 91.0463 113.696C91.0209 112.984 91.0209 112.299 91.0209 111.613ZM103.49 117.302C103.49 114.762 103.515 112.222 103.591 109.683C104.379 109.657 104.963 109.632 105.801 109.632C106.664 109.632 107.553 109.657 108.417 109.683C108.544 109.683 108.671 109.81 108.671 109.937C108.721 112.324 108.772 114.762 108.772 117.302C108.772 119.842 108.721 122.381 108.671 124.921C107.858 124.972 107.274 124.997 106.436 124.997C105.572 124.997 104.683 124.972 103.845 124.921C103.693 124.921 103.591 124.819 103.591 124.667C103.541 122.28 103.49 119.842 103.49 117.302ZM110.1 117.302C110.1 112.324 112.309 109.683 115.89 109.505C120.716 109.505 123.001 111.435 123.001 117.302C123.001 122.305 120.741 124.896 117.16 125.073C112.309 125.073 110.1 123.194 110.1 117.302ZM115.382 117.302C115.382 120.324 115.89 120.654 116.576 120.654C117.262 120.654 117.694 120.324 117.694 117.302C117.694 114.28 117.186 113.949 116.5 113.949C115.814 113.949 115.382 114.28 115.382 117.302ZM124.323 117.302C124.323 114.762 124.348 112.222 124.425 109.683C125.212 109.657 125.669 109.632 126.507 109.632C127.244 109.632 127.904 109.657 128.717 109.683C128.844 109.708 128.92 109.81 128.996 109.937L131.612 116.438L131.536 109.683C132.323 109.657 132.907 109.632 133.745 109.632C134.609 109.632 135.345 109.657 136.107 109.683C136.234 109.708 136.361 109.81 136.361 109.937C136.412 112.324 136.463 114.762 136.463 117.302C136.463 119.842 136.412 122.381 136.361 124.921C135.65 124.972 135.218 124.997 134.38 124.997C133.618 124.997 132.882 124.972 132.069 124.921C131.917 124.921 131.841 124.819 131.79 124.667L129.148 118.191L129.25 124.921C128.437 124.972 127.98 124.997 127.142 124.997C126.279 124.997 125.491 124.972 124.679 124.921C124.526 124.921 124.425 124.819 124.425 124.667C124.374 122.28 124.323 119.842 124.323 117.302ZM15.5314 144.302C15.5314 139.324 17.6901 136.683 21.2711 136.505C26.0965 136.505 28.179 138.435 28.179 144.302C28.179 149.305 26.1219 151.896 22.5409 152.073C17.6901 152.073 15.5314 150.194 15.5314 144.302ZM20.7632 144.302C20.7632 147.324 21.1695 147.654 21.8552 147.654C22.5409 147.654 22.9219 147.324 22.9219 144.302C22.9219 141.28 22.4647 140.949 21.779 140.949C21.0933 140.949 20.7632 141.28 20.7632 144.302ZM29.0495 144.276C29.0495 143.794 29.0749 143.261 29.1003 142.422C29.8876 142.397 33.8749 142.372 34.713 142.372C35.5765 142.372 37.5828 142.397 38.4463 142.422C38.5733 142.422 38.6749 142.549 38.7003 142.676C38.7003 143.286 38.7257 143.565 38.7257 144.835C38.7257 145.343 38.7003 145.902 38.7003 146.435C38.1415 146.486 35.1701 146.511 34.332 146.511C33.4685 146.511 30.1923 146.435 29.3542 146.384C29.2018 146.384 29.1003 146.283 29.1003 146.13C29.0749 145.496 29.0495 144.911 29.0495 144.276ZM39.4614 140.721C39.4614 139.578 39.4868 138.283 39.5376 137.14C40.3503 136.962 41.9503 136.683 42.7884 136.607C43.6518 136.607 44.4392 136.632 45.2518 136.657C45.3788 136.683 45.5058 136.784 45.5058 136.911C45.5566 139.299 45.6074 141.762 45.6074 144.302C45.6074 146.842 45.5566 149.381 45.5058 151.921C44.6931 151.972 44.109 151.997 43.2709 151.997C42.4074 151.997 41.5185 151.972 40.6804 151.921C40.528 151.921 40.4265 151.819 40.4265 151.667C40.3757 149.28 40.3249 146.842 40.3249 144.302C40.3249 143.007 40.3249 142.016 40.3503 140.696L39.4614 140.721ZM16.0901 171.302C16.0901 168.762 16.1409 166.426 16.1409 163.937C17.8171 163.683 19.6711 163.505 21.0933 163.505C25.3854 163.505 27.9759 164.064 27.9759 169.524C27.9759 174.349 25.4108 175.416 21.1695 175.416C21.1695 176.584 21.1949 177.753 21.2203 178.921C20.4584 178.972 19.7219 178.972 18.9854 178.972C18.1219 178.972 17.2584 178.972 16.3949 178.921C16.2425 178.921 16.1409 178.819 16.1409 178.667C16.1409 176.28 16.0901 173.842 16.0901 171.302ZM21.1187 171.276H21.4997C22.1854 171.276 22.8203 171.099 22.8203 169.6C22.8203 168.026 22.6933 167.848 21.6774 167.848H21.1187V171.276ZM29.1854 170.972C29.1854 168.432 29.2362 166.476 29.2362 163.937C30.9124 163.683 33.0203 163.505 34.4425 163.505C38.2267 163.505 40.8171 163.81 40.8171 167.924C40.8171 169.803 39.7759 171.226 38.0997 172.013C38.6838 172.216 39.1663 172.622 39.5219 173.207C40.5124 175.188 41.0965 177.016 41.5282 178.921C40.6901 179.022 39.7759 179.073 38.887 179.073C38.2013 179.073 37.5155 179.048 36.8298 178.997C36.7028 178.997 36.4997 178.896 36.4489 178.743C35.7378 176.584 35.0267 174.426 34.5187 172.673C34.4171 172.673 34.2901 172.673 34.1886 172.673C34.214 174.756 34.2901 176.94 34.3155 178.921C33.5536 178.972 32.8171 178.972 32.0806 178.972C31.2171 178.972 30.3536 178.972 29.4901 178.921C29.3378 178.921 29.2362 178.819 29.2362 178.667C29.2362 176.28 29.1854 173.511 29.1854 170.972ZM34.1886 169.549H34.6203C35.4076 169.549 35.9663 169.118 35.9663 168.457C35.9663 167.67 35.7124 167.238 34.7981 167.238C34.5949 167.238 34.3663 167.238 34.1886 167.264C34.1886 168 34.1886 168.737 34.1886 169.549ZM41.9947 171.302C41.9947 166.324 44.2042 163.683 47.7852 163.505C52.6106 163.505 54.8963 165.435 54.8963 171.302C54.8963 176.305 52.636 178.896 49.055 179.073C44.2042 179.073 41.9947 177.194 41.9947 171.302ZM47.2772 171.302C47.2772 174.324 47.7852 174.654 48.4709 174.654C49.1566 174.654 49.5884 174.324 49.5884 171.302C49.5884 168.28 49.0804 167.949 48.3947 167.949C47.709 167.949 47.2772 168.28 47.2772 171.302ZM61.2973 171.302C61.2973 172.546 61.2973 173.613 61.3227 174.68H61.7544C62.4401 174.68 62.9481 174.324 62.9481 171.302C62.9481 168.28 62.4401 167.949 61.7544 167.949H61.3227C61.2973 169.016 61.2973 170.083 61.2973 171.302ZM56.2687 171.302C56.2687 168.762 56.3195 166.476 56.3195 163.937C57.9957 163.683 59.8497 163.505 61.2719 163.505C65.564 163.505 68.256 165.334 68.256 171.302C68.256 177.651 65.5894 178.972 61.3227 178.972C59.9259 178.972 58.3259 178.845 56.5735 178.667C56.4211 178.667 56.3195 178.565 56.3195 178.413C56.3195 176.026 56.2687 173.842 56.2687 171.302ZM69.1034 171.403C69.1034 168.864 69.1288 166.222 69.205 163.683C69.9923 163.657 70.5765 163.632 71.4145 163.632C72.278 163.632 73.1669 163.657 74.0304 163.683C74.1574 163.683 74.2844 163.81 74.2844 163.937C74.3352 166.324 74.386 169.626 74.386 172.165C74.386 174.426 74.7161 174.756 75.4018 174.756C76.0876 174.756 76.3669 174.426 76.3669 172.165C76.3669 169.626 76.3923 166.222 76.4685 163.683C77.2558 163.657 77.8399 163.632 78.678 163.632C79.5415 163.632 80.4304 163.657 81.2939 163.683C81.4209 163.683 81.5479 163.81 81.5479 163.937C81.5987 166.324 81.6495 168.864 81.6495 171.403C81.6495 176.915 79.5669 178.997 75.986 179.175C71.3891 179.175 69.1034 177.803 69.1034 171.403ZM82.4957 171.302C82.4957 165.334 85.1878 163.505 89.4798 163.505C90.5211 163.505 91.3338 163.708 92.3751 163.937L91.8163 167.924L89.4798 167.772C88.5401 167.721 87.7782 168.28 87.7782 171.302C87.7782 174.324 88.4386 174.908 89.4798 174.857L91.8163 174.68L92.3497 178.692C91.3084 178.896 90.4703 178.972 89.429 178.972C85.1624 178.972 82.4957 177.651 82.4957 171.302ZM92.757 165.613C92.757 165.003 92.757 164.369 92.7824 163.683C93.5697 163.657 97.811 163.632 98.6491 163.632C99.5126 163.632 103.043 163.657 103.906 163.683C104.033 163.683 104.135 163.81 104.16 163.937C104.16 164.673 104.16 165.384 104.16 166.121C104.16 166.73 104.16 167.365 104.16 168C103.728 168.026 102.382 168.051 101.062 168.051C101.087 169.092 101.113 170.134 101.113 171.302C101.113 173.842 101.062 176.381 101.011 178.921C100.198 178.972 99.6141 178.997 98.7761 178.997C97.9126 178.997 97.0237 178.972 96.1856 178.921C96.0332 178.921 95.9316 178.819 95.9316 178.667C95.8808 176.28 95.83 173.842 95.83 171.302C95.83 170.134 95.83 169.092 95.83 168.026C94.6872 168 93.4681 167.975 93.0364 167.949C92.884 167.949 92.7824 167.848 92.7824 167.696C92.757 166.984 92.757 166.299 92.757 165.613ZM104.921 178.769L105.531 174.197C107.308 174.756 108.883 175.086 110.026 175.086C110.991 175.086 111.397 174.578 111.397 174.172C111.397 173.664 110.661 173.461 109.67 173.181C107.766 172.648 104.946 171.835 104.946 167.924C104.946 163.81 107.486 163.505 110.966 163.505C112.439 163.505 114.166 163.734 115.867 164.064L115.283 168.305C114.089 167.772 112.286 167.264 110.712 167.264C109.924 167.264 109.416 167.518 109.416 167.975C109.416 168.432 110.204 168.661 111.245 168.965C113.353 169.6 116.502 170.54 116.502 174.07C116.502 178.108 113.708 179.048 110.28 179.048C108.553 179.048 106.673 178.972 104.921 178.769ZM16.0393 198.302C16.0393 195.762 16.0647 193.222 16.1409 190.683C16.9282 190.657 20.56 190.632 21.3981 190.632C22.2616 190.632 24.6235 190.657 25.487 190.683C25.614 190.683 25.7155 190.81 25.7409 190.937C25.7409 191.724 25.7409 192.435 25.7409 193.146C25.7409 193.756 25.7409 194.365 25.7409 195C24.9282 195.051 22.8711 195.076 22.033 195.076C21.8552 195.076 21.5505 195.076 21.1695 195.051C21.1695 195.762 21.1695 196.473 21.1695 197.261C22.1346 197.261 23.4044 197.286 24.014 197.286C24.1409 197.286 24.2425 197.413 24.2679 197.54C24.2679 198.327 24.2679 199.038 24.2679 199.749C24.2679 200.359 24.2679 200.969 24.2679 201.603C23.5568 201.654 22.1092 201.68 21.1695 201.68C21.1949 203.102 21.2203 204.524 21.2203 205.921C20.4076 205.972 19.8235 205.997 18.9854 205.997C18.1219 205.997 17.233 205.972 16.3949 205.921C16.2425 205.921 16.1409 205.819 16.1409 205.667C16.0901 203.28 16.0393 200.842 16.0393 198.302ZM26.7548 197.972C26.7548 195.432 26.8056 193.476 26.8056 190.937C28.4818 190.683 30.5897 190.505 32.012 190.505C35.7961 190.505 38.3866 190.81 38.3866 194.924C38.3866 196.803 37.3453 198.226 35.6691 199.013C36.2532 199.216 36.7358 199.622 37.0913 200.207C38.0818 202.188 38.6659 204.016 39.0977 205.921C38.2596 206.022 37.3453 206.073 36.4564 206.073C35.7707 206.073 35.085 206.048 34.3993 205.997C34.2723 205.997 34.0691 205.896 34.0183 205.743C33.3072 203.584 32.5961 201.426 32.0882 199.673C31.9866 199.673 31.8596 199.673 31.758 199.673C31.7834 201.756 31.8596 203.94 31.885 205.921C31.1231 205.972 30.3866 205.972 29.6501 205.972C28.7866 205.972 27.9231 205.972 27.0596 205.921C26.9072 205.921 26.8056 205.819 26.8056 205.667C26.8056 203.28 26.7548 200.511 26.7548 197.972ZM31.758 196.549H32.1897C32.977 196.549 33.5358 196.118 33.5358 195.457C33.5358 194.67 33.2818 194.238 32.3675 194.238C32.1643 194.238 31.9358 194.238 31.758 194.264C31.758 195 31.758 195.737 31.758 196.549ZM39.5641 198.302C39.5641 193.324 41.7737 190.683 45.3546 190.505C50.18 190.505 52.4657 192.435 52.4657 198.302C52.4657 203.305 50.2054 205.896 46.6245 206.073C41.7737 206.073 39.5641 204.194 39.5641 198.302ZM44.8467 198.302C44.8467 201.324 45.3546 201.654 46.0403 201.654C46.7261 201.654 47.1578 201.324 47.1578 198.302C47.1578 195.28 46.6499 194.949 45.9641 194.949C45.2784 194.949 44.8467 195.28 44.8467 198.302ZM53.7874 198.302C53.7874 195.762 53.8128 193.222 53.889 190.683C54.6763 190.657 55.1334 190.632 55.9715 190.632C56.835 190.632 57.4191 190.657 58.181 190.683C58.308 190.708 58.4096 190.835 58.4604 190.937L61.635 197.464L64.835 190.937C64.9112 190.835 65.0128 190.708 65.1397 190.708C65.5969 190.657 66.2064 190.632 66.9175 190.632C67.781 190.632 68.5683 190.657 69.2794 190.683C69.4064 190.708 69.5334 190.81 69.5334 190.937C69.5842 193.324 69.635 195.762 69.635 198.302C69.635 200.842 69.5842 203.381 69.5334 205.921C68.7969 205.972 68.3905 205.997 67.5524 205.997C66.9429 205.997 66.054 205.972 65.2159 205.921C65.0636 205.921 64.962 205.819 64.962 205.667C64.9112 203.432 64.8096 201.146 64.8096 198.759L61.9143 204.651L61.635 204.702L61.381 204.651L58.6128 199.038L58.7143 205.921C57.9016 205.972 57.4445 205.997 56.6064 205.997C55.9969 205.997 54.981 205.972 54.1429 205.921C53.9905 205.921 53.889 205.819 53.889 205.667C53.8382 203.28 53.7874 200.842 53.7874 198.302ZM79.085 198.302C79.085 195.762 79.1104 193.222 79.1866 190.683C79.9739 190.657 80.431 190.632 81.2691 190.632C82.0056 190.632 82.6659 190.657 83.4786 190.683C83.6056 190.708 83.6818 190.81 83.758 190.937L86.3739 197.438L86.2977 190.683C87.085 190.657 87.6691 190.632 88.5072 190.632C89.3707 190.632 90.1072 190.657 90.8691 190.683C90.9961 190.708 91.1231 190.81 91.1231 190.937C91.1739 193.324 91.2247 195.762 91.2247 198.302C91.2247 200.842 91.1739 203.381 91.1231 205.921C90.412 205.972 89.9802 205.997 89.1421 205.997C88.3802 205.997 87.6437 205.972 86.831 205.921C86.6786 205.921 86.6024 205.819 86.5516 205.667L83.9104 199.191L84.012 205.921C83.1993 205.972 82.7421 205.997 81.904 205.997C81.0405 205.997 80.2532 205.972 79.4405 205.921C79.2882 205.921 79.1866 205.819 79.1866 205.667C79.1358 203.28 79.085 200.842 79.085 198.302ZM93.0483 198.302C93.0483 195.762 93.0737 193.222 93.1499 190.683C93.9372 190.657 97.5689 190.632 98.407 190.632C99.2705 190.632 101.988 190.657 102.851 190.683C102.978 190.683 103.08 190.81 103.105 190.937C103.105 191.724 103.105 192.435 103.105 193.146C103.105 193.756 103.105 194.365 103.105 195C102.293 195.051 99.9054 195.051 99.0673 195.051C98.8641 195.051 98.5086 195.051 98.0768 195.051C98.0768 195.483 98.0768 195.94 98.0768 196.397C99.0927 196.397 100.464 196.422 101.124 196.422C101.251 196.422 101.353 196.549 101.378 196.676C101.378 197.388 101.378 197.997 101.378 198.607C101.378 199.14 101.378 199.673 101.378 200.283H98.0768C98.0768 200.74 98.0768 201.172 98.0768 201.603H98.407C99.2705 201.603 102.039 201.629 102.902 201.654C103.029 201.654 103.131 201.781 103.156 201.908C103.156 202.696 103.156 203.407 103.156 204.118C103.156 204.727 103.156 205.337 103.156 205.972C102.344 206.022 99.6261 206.048 98.788 206.048C97.9245 206.048 94.2419 205.972 93.4038 205.921C93.2514 205.921 93.1499 205.819 93.1499 205.667C93.0991 203.28 93.0483 200.842 93.0483 198.302ZM103.54 190.683C104.352 190.657 105.013 190.632 105.851 190.632C106.714 190.632 107.476 190.632 108.34 190.683C108.492 190.708 108.619 190.81 108.645 190.937C109.076 193.07 109.356 195.203 109.635 197.337C110.092 195.432 110.727 192.994 111.26 191.47L112.454 191.419L113.622 191.47C114.13 192.969 114.765 195.356 115.222 197.235C115.502 195.051 115.781 192.867 116.137 190.683C116.949 190.657 117.584 190.632 118.168 190.632C119.032 190.632 119.997 190.657 120.86 190.683C120.987 190.683 121.089 190.784 121.089 190.911C121.089 190.988 121.013 191.445 120.962 191.724C120.276 196.346 119.286 201.248 118.067 205.921C117.254 205.972 115.197 205.997 114.359 205.997C113.749 203.965 112.987 201.934 112.429 199.851C111.819 201.934 111.006 203.94 110.422 205.997C109.559 205.997 107.705 205.972 106.841 205.921C106.714 205.921 106.587 205.819 106.537 205.667C105.318 200.816 104.225 195.635 103.54 190.683ZM128.795 201.324C128.795 200.054 129.735 198.759 131.335 197.921C130.548 197.159 130.142 196.143 130.142 194.848C130.142 191.851 132.046 190.962 135.348 190.962C136.389 190.962 137.989 191.165 139.03 191.394L138.497 195.127L135.678 194.975C134.865 194.975 134.383 195.178 134.383 195.788C134.383 196.422 135.018 196.626 135.805 196.626L135.424 198.302H135.526C135.78 197.845 136.262 197.134 136.821 196.626C137.913 196.6 138.751 196.575 139.462 196.575C140.554 196.575 141.367 196.6 142.408 196.626C142.535 196.626 142.637 196.753 142.662 196.88C142.662 197.184 142.662 197.692 142.662 198.302C142.662 198.835 142.662 199.445 142.662 200.08C142.18 200.08 141.494 200.105 140.783 200.105C140.986 200.842 141.113 201.527 141.113 202.162C141.113 204.422 139.615 206.048 135.373 206.048C131.767 206.048 128.795 205.515 128.795 201.324ZM134.002 200.867C134.002 201.527 134.357 201.807 135.297 201.807C136.237 201.807 136.567 201.553 136.567 201.045C136.567 200.74 136.542 200.41 136.516 200.08C136.034 200.054 135.526 200.029 135.018 199.978C134.383 199.978 134.002 200.334 134.002 200.867ZM16.0393 225.302C16.0393 222.762 16.0647 220.222 16.1409 217.683C16.9282 217.657 17.3854 217.632 18.2235 217.632C19.087 217.632 19.6711 217.657 20.433 217.683C20.56 217.708 20.6616 217.835 20.7124 217.937L23.887 224.464L27.087 217.937C27.1632 217.835 27.2647 217.708 27.3917 217.708C27.8489 217.657 28.4584 217.632 29.1695 217.632C30.033 217.632 30.8203 217.657 31.5314 217.683C31.6584 217.708 31.7854 217.81 31.7854 217.937C31.8362 220.324 31.887 222.762 31.887 225.302C31.887 227.842 31.8362 230.381 31.7854 232.921C31.0489 232.972 30.6425 232.997 29.8044 232.997C29.1949 232.997 28.306 232.972 27.4679 232.921C27.3155 232.921 27.214 232.819 27.214 232.667C27.1632 230.432 27.0616 228.146 27.0616 225.759L24.1663 231.651L23.887 231.702L23.633 231.651L20.8647 226.038L20.9663 232.921C20.1536 232.972 19.6965 232.997 18.8584 232.997C18.2489 232.997 17.233 232.972 16.3949 232.921C16.2425 232.921 16.1409 232.819 16.1409 232.667C16.0901 230.28 16.0393 227.842 16.0393 225.302ZM33.7229 225.302C33.7229 222.762 33.7483 220.222 33.8245 217.683C34.6118 217.657 38.2435 217.632 39.0816 217.632C39.9451 217.632 42.6626 217.657 43.5261 217.683C43.653 217.683 43.7546 217.81 43.78 217.937C43.78 218.724 43.78 219.435 43.78 220.146C43.78 220.756 43.78 221.365 43.78 222C42.9673 222.051 40.58 222.051 39.7419 222.051C39.5388 222.051 39.1832 222.051 38.7515 222.051C38.7515 222.483 38.7515 222.94 38.7515 223.397C39.7673 223.397 41.1388 223.422 41.7991 223.422C41.9261 223.422 42.0276 223.549 42.053 223.676C42.053 224.388 42.053 224.997 42.053 225.607C42.053 226.14 42.053 226.673 42.053 227.283H38.7515C38.7515 227.74 38.7515 228.172 38.7515 228.603H39.0816C39.9451 228.603 42.7134 228.629 43.5768 228.654C43.7038 228.654 43.8054 228.781 43.8308 228.908C43.8308 229.696 43.8308 230.407 43.8308 231.118C43.8308 231.727 43.8308 232.337 43.8308 232.972C43.0181 233.022 40.3007 233.048 39.4626 233.048C38.5991 233.048 34.9165 232.972 34.0784 232.921C33.9261 232.921 33.8245 232.819 33.8245 232.667C33.7737 230.28 33.7229 227.842 33.7229 225.302ZM44.9509 232.769L45.5604 228.197C47.3382 228.756 48.9128 229.086 50.0556 229.086C51.0207 229.086 51.427 228.578 51.427 228.172C51.427 227.664 50.6905 227.461 49.7001 227.181C47.7953 226.648 44.9763 225.835 44.9763 221.924C44.9763 217.81 47.5159 217.505 50.9953 217.505C52.4683 217.505 54.1953 217.734 55.8969 218.064L55.3128 222.305C54.1191 221.772 52.3159 221.264 50.7413 221.264C49.954 221.264 49.4461 221.518 49.4461 221.975C49.4461 222.432 50.2334 222.661 51.2747 222.965C53.3826 223.6 56.5318 224.54 56.5318 228.07C56.5318 232.108 53.7382 233.048 50.3096 233.048C48.5826 233.048 46.7032 232.972 44.9509 232.769ZM57.302 232.769L57.9116 228.197C59.6894 228.756 61.264 229.086 62.4068 229.086C63.3719 229.086 63.7782 228.578 63.7782 228.172C63.7782 227.664 63.0417 227.461 62.0513 227.181C60.1465 226.648 57.3274 225.835 57.3274 221.924C57.3274 217.81 59.8671 217.505 63.3465 217.505C64.8195 217.505 66.5465 217.734 68.2481 218.064L67.664 222.305C66.4703 221.772 64.6671 221.264 63.0925 221.264C62.3052 221.264 61.7973 221.518 61.7973 221.975C61.7973 222.432 62.5846 222.661 63.6259 222.965C65.7338 223.6 68.883 224.54 68.883 228.07C68.883 232.108 66.0894 233.048 62.6608 233.048C60.9338 233.048 59.0544 232.972 57.302 232.769ZM68.7945 217.784C69.6326 217.683 70.5215 217.632 71.4358 217.632C72.1215 217.632 72.8072 217.657 73.4929 217.708C73.6199 217.708 73.8231 217.81 73.8739 217.962C74.4326 219.664 75.0167 221.772 75.4993 223.499C75.9564 221.772 76.5659 219.664 77.1247 217.962C77.1755 217.81 77.3786 217.708 77.5056 217.708C78.1913 217.657 78.877 217.632 79.5628 217.632C80.4516 217.632 81.3659 217.683 82.204 217.784C81.7723 219.715 81.0866 222.305 80.0961 224.261C79.512 225.251 78.8009 226.038 78.039 226.648C78.0643 228.756 78.0897 230.838 78.1151 232.921C77.3024 232.972 76.6675 232.997 75.8294 232.997C74.9659 232.997 74.0263 232.972 73.1882 232.921C73.0358 232.921 72.9342 232.819 72.9342 232.667C72.9342 230.711 72.9342 228.705 72.9596 226.648C72.1977 226.038 71.4866 225.251 70.9024 224.261C69.912 222.305 69.2263 219.715 68.7945 217.784ZM16.0901 252.302C16.0901 249.762 16.1409 247.426 16.1409 244.937C17.8171 244.683 19.6711 244.505 21.0933 244.505C25.3854 244.505 27.9759 245.064 27.9759 250.524C27.9759 255.349 25.4108 256.416 21.1695 256.416C21.1695 257.584 21.1949 258.753 21.2203 259.921C20.4584 259.972 19.7219 259.972 18.9854 259.972C18.1219 259.972 17.2584 259.972 16.3949 259.921C16.2425 259.921 16.1409 259.819 16.1409 259.667C16.1409 257.28 16.0901 254.842 16.0901 252.302ZM21.1187 252.276H21.4997C22.1854 252.276 22.8203 252.099 22.8203 250.6C22.8203 249.026 22.6933 248.848 21.6774 248.848H21.1187V252.276ZM29.1854 251.972C29.1854 249.432 29.2362 247.476 29.2362 244.937C30.9124 244.683 33.0203 244.505 34.4425 244.505C38.2267 244.505 40.8171 244.81 40.8171 248.924C40.8171 250.803 39.7759 252.226 38.0997 253.013C38.6838 253.216 39.1663 253.622 39.5219 254.207C40.5124 256.188 41.0965 258.016 41.5282 259.921C40.6901 260.022 39.7759 260.073 38.887 260.073C38.2013 260.073 37.5155 260.048 36.8298 259.997C36.7028 259.997 36.4997 259.896 36.4489 259.743C35.7378 257.584 35.0267 255.426 34.5187 253.673C34.4171 253.673 34.2901 253.673 34.1886 253.673C34.214 255.756 34.2901 257.94 34.3155 259.921C33.5536 259.972 32.8171 259.972 32.0806 259.972C31.2171 259.972 30.3536 259.972 29.4901 259.921C29.3378 259.921 29.2362 259.819 29.2362 259.667C29.2362 257.28 29.1854 254.511 29.1854 251.972ZM34.1886 250.549H34.6203C35.4076 250.549 35.9663 250.118 35.9663 249.457C35.9663 248.67 35.7124 248.238 34.7981 248.238C34.5949 248.238 34.3663 248.238 34.1886 248.264C34.1886 249 34.1886 249.737 34.1886 250.549ZM41.9947 252.302C41.9947 247.324 44.2042 244.683 47.7852 244.505C52.6106 244.505 54.8963 246.435 54.8963 252.302C54.8963 257.305 52.636 259.896 49.055 260.073C44.2042 260.073 41.9947 258.194 41.9947 252.302ZM47.2772 252.302C47.2772 255.324 47.7852 255.654 48.4709 255.654C49.1566 255.654 49.5884 255.324 49.5884 252.302C49.5884 249.28 49.0804 248.949 48.3947 248.949C47.709 248.949 47.2772 249.28 47.2772 252.302ZM61.2465 250.27H61.4243C62.2116 250.27 62.8973 249.889 62.8973 249.178C62.8973 248.492 62.237 248.162 61.5767 248.162C61.4751 248.162 61.3227 248.162 61.2719 248.188C61.2465 248.822 61.2465 249.483 61.2465 250.27ZM61.2719 254.029C61.2719 254.715 61.2973 255.4 61.3227 256.086H61.729C62.6941 256.086 63.0751 255.705 63.0751 255.045C63.0751 254.461 62.5925 254.029 61.9068 254.029H61.2719ZM56.2687 251.972C56.2687 249.432 56.3195 247.476 56.3195 244.937C57.9957 244.683 59.8497 244.505 61.2719 244.505C64.802 244.505 67.3925 244.81 67.3925 248.924C67.3925 250.27 66.8338 251.413 65.9195 252.2C67.3163 252.988 68.1544 254.105 68.1544 255.324C68.1544 259.362 65.4116 260.048 61.983 260.048C60.256 260.048 58.3259 259.972 56.5735 259.769C56.4211 259.743 56.3195 259.616 56.3195 259.464C56.3195 257.076 56.2687 254.511 56.2687 251.972ZM69.3132 252.302C69.3132 249.762 69.3386 247.222 69.4147 244.683C70.202 244.657 70.7862 244.632 71.6243 244.632C72.4878 244.632 73.3767 244.657 74.2401 244.683C74.3671 244.683 74.4941 244.81 74.4941 244.937C74.5449 247.324 74.5957 249.762 74.5957 252.302C74.5957 253.445 74.5703 254.537 74.5703 255.603H74.6719C75.5354 255.603 77.6941 255.629 78.5576 255.654C78.6846 255.654 78.7862 255.781 78.8116 255.908C78.8116 256.696 78.8116 257.407 78.8116 258.118C78.8116 258.727 78.8116 259.337 78.8116 259.972C77.9989 260.022 75.8909 260.048 75.0528 260.048C74.1893 260.048 70.5068 259.972 69.6687 259.921C69.5163 259.921 69.4147 259.819 69.4147 259.667C69.364 257.28 69.3132 254.842 69.3132 252.302ZM79.7298 252.302C79.7298 249.762 79.7552 247.222 79.8314 244.683C80.6187 244.657 84.2505 244.632 85.0886 244.632C85.952 244.632 88.6695 244.657 89.533 244.683C89.66 244.683 89.7616 244.81 89.787 244.937C89.787 245.724 89.787 246.435 89.787 247.146C89.787 247.756 89.787 248.365 89.787 249C88.9743 249.051 86.587 249.051 85.7489 249.051C85.5457 249.051 85.1901 249.051 84.7584 249.051C84.7584 249.483 84.7584 249.94 84.7584 250.397C85.7743 250.397 87.1457 250.422 87.806 250.422C87.933 250.422 88.0346 250.549 88.06 250.676C88.06 251.388 88.06 251.997 88.06 252.607C88.06 253.14 88.06 253.673 88.06 254.283H84.7584C84.7584 254.74 84.7584 255.172 84.7584 255.603H85.0886C85.952 255.603 88.7203 255.629 89.5838 255.654C89.7108 255.654 89.8124 255.781 89.8378 255.908C89.8378 256.696 89.8378 257.407 89.8378 258.118C89.8378 258.727 89.8378 259.337 89.8378 259.972C89.0251 260.022 86.3076 260.048 85.4695 260.048C84.606 260.048 80.9235 259.972 80.0854 259.921C79.933 259.921 79.8314 259.819 79.8314 259.667C79.7806 257.28 79.7298 254.842 79.7298 252.302ZM91.2626 252.302C91.2626 249.762 91.288 247.222 91.3641 244.683C92.1514 244.657 92.6086 244.632 93.4467 244.632C94.3102 244.632 94.8943 244.657 95.6562 244.683C95.7832 244.708 95.8848 244.835 95.9356 244.937L99.1102 251.464L102.31 244.937C102.386 244.835 102.488 244.708 102.615 244.708C103.072 244.657 103.682 244.632 104.393 244.632C105.256 244.632 106.044 244.657 106.755 244.683C106.882 244.708 107.009 244.81 107.009 244.937C107.059 247.324 107.11 249.762 107.11 252.302C107.11 254.842 107.059 257.381 107.009 259.921C106.272 259.972 105.866 259.997 105.028 259.997C104.418 259.997 103.529 259.972 102.691 259.921C102.539 259.921 102.437 259.819 102.437 259.667C102.386 257.432 102.285 255.146 102.285 252.759L99.3895 258.651L99.1102 258.702L98.8562 258.651L96.088 253.038L96.1895 259.921C95.3768 259.972 94.9197 259.997 94.0816 259.997C93.4721 259.997 92.4562 259.972 91.6181 259.921C91.4657 259.921 91.3641 259.819 91.3641 259.667C91.3134 257.28 91.2626 254.842 91.2626 252.302ZM108.641 259.769L109.251 255.197C111.029 255.756 112.603 256.086 113.746 256.086C114.711 256.086 115.118 255.578 115.118 255.172C115.118 254.664 114.381 254.461 113.391 254.181C111.486 253.648 108.667 252.835 108.667 248.924C108.667 244.81 111.206 244.505 114.686 244.505C116.159 244.505 117.886 244.734 119.587 245.064L119.003 249.305C117.81 248.772 116.006 248.264 114.432 248.264C113.645 248.264 113.137 248.518 113.137 248.975C113.137 249.432 113.924 249.661 114.965 249.965C117.073 250.6 120.222 251.54 120.222 255.07C120.222 259.108 117.429 260.048 114 260.048C112.273 260.048 110.394 259.972 108.641 259.769Z" fill="#314144"/>
</svg>
