<svg width="376" height="120" viewBox="0 0 376 120" fill="none" xmlns="http://www.w3.org/2000/svg">
<rect y="0.15332" width="376" height="119.449" rx="11.61" fill="#948DBC"/>
<path d="M34.4664 17.9918C34.4664 19.8286 32.9774 21.3176 31.1406 21.3176C29.3038 21.3176 27.8148 19.8286 27.8148 17.9918C27.8148 16.155 29.3038 14.666 31.1406 14.666C32.9774 14.666 34.4664 16.155 34.4664 17.9918Z" fill="white"/>
<path d="M34.4664 24.6433C34.4664 26.4801 32.9774 27.9691 31.1406 27.9691C29.3038 27.9691 27.8148 26.4801 27.8148 24.6433C27.8148 22.8066 29.3038 21.3176 31.1406 21.3176C32.9774 21.3176 34.4664 22.8066 34.4664 24.6433Z" fill="white"/>
<path d="M34.4664 31.2949C34.4664 33.1317 32.9774 34.6207 31.1406 34.6207C29.3038 34.6207 27.8148 33.1317 27.8148 31.2949C27.8148 29.4581 29.3038 27.9691 31.1406 27.9691C32.9774 27.9691 34.4664 29.4581 34.4664 31.2949Z" fill="white"/>
<path d="M27.8148 17.9918C27.8148 19.8286 26.3258 21.3176 24.489 21.3176C22.6523 21.3176 21.1633 19.8286 21.1633 17.9918C21.1633 16.155 22.6523 14.666 24.489 14.666C26.3258 14.666 27.8148 16.155 27.8148 17.9918Z" fill="white"/>
<path d="M27.8148 24.6433C27.8148 26.4801 26.3258 27.9691 24.489 27.9691C22.6523 27.9691 21.1633 26.4801 21.1633 24.6433C21.1633 22.8066 22.6523 21.3176 24.489 21.3176C26.3258 21.3176 27.8148 22.8066 27.8148 24.6433Z" fill="white"/>
<path d="M27.8148 31.2949C27.8148 33.1317 26.3258 34.6207 24.489 34.6207C22.6523 34.6207 21.1633 33.1317 21.1633 31.2949C21.1633 29.4581 22.6523 27.9691 24.489 27.9691C26.3258 27.9691 27.8148 29.4581 27.8148 31.2949Z" fill="white"/>
<path d="M21.1633 17.9918C21.1633 19.8286 19.6743 21.3176 17.8375 21.3176C16.0007 21.3176 14.5117 19.8286 14.5117 17.9918C14.5117 16.155 16.0007 14.666 17.8375 14.666C19.6743 14.666 21.1633 16.155 21.1633 17.9918Z" fill="white"/>
<path d="M21.1633 24.6433C21.1633 26.4801 19.6743 27.9691 17.8375 27.9691C16.0007 27.9691 14.5117 26.4801 14.5117 24.6433C14.5117 22.8066 16.0007 21.3176 17.8375 21.3176C19.6743 21.3176 21.1633 22.8066 21.1633 24.6433Z" fill="white"/>
<path d="M21.1633 31.2949C21.1633 33.1317 19.6743 34.6207 17.8375 34.6207C16.0007 34.6207 14.5117 33.1317 14.5117 31.2949C14.5117 29.4581 16.0007 27.9691 17.8375 27.9691C19.6743 27.9691 21.1633 29.4581 21.1633 31.2949Z" fill="white"/>
<path d="M20.7593 60.7003C20.7593 61.9447 20.7593 63.0114 20.7847 64.0781H21.2165C21.9022 64.0781 22.4101 63.7225 22.4101 60.7003C22.4101 57.6781 21.9022 57.3479 21.2165 57.3479H20.7847C20.7593 58.4146 20.7593 59.4812 20.7593 60.7003ZM15.7308 60.7003C15.7308 58.1606 15.7816 55.8749 15.7816 53.3352C17.4578 53.0812 19.3117 52.9035 20.7339 52.9035C25.026 52.9035 27.7181 54.732 27.7181 60.7003C27.7181 67.0495 25.0514 68.3701 20.7847 68.3701C19.3879 68.3701 17.7879 68.2431 16.0355 68.0654C15.8831 68.0654 15.7816 67.9638 15.7816 67.8114C15.7816 65.4241 15.7308 63.24 15.7308 60.7003ZM29.048 60.7003C29.048 58.1606 29.0734 55.6209 29.1496 53.0812C29.9369 53.0558 33.5687 53.0304 34.4068 53.0304C35.2703 53.0304 37.9877 53.0558 38.8512 53.0812C38.9782 53.0812 39.0798 53.2082 39.1052 53.3352C39.1052 54.1225 39.1052 54.8336 39.1052 55.5447C39.1052 56.1543 39.1052 56.7638 39.1052 57.3987C38.2925 57.4495 35.9052 57.4495 35.0671 57.4495C34.8639 57.4495 34.5083 57.4495 34.0766 57.4495C34.0766 57.8812 34.0766 58.3384 34.0766 58.7955C35.0925 58.7955 36.4639 58.8209 37.1242 58.8209C37.2512 58.8209 37.3528 58.9479 37.3782 59.0749C37.3782 59.786 37.3782 60.3955 37.3782 61.005C37.3782 61.5384 37.3782 62.0717 37.3782 62.6812H34.0766C34.0766 63.1384 34.0766 63.5701 34.0766 64.0019H34.4068C35.2703 64.0019 38.0385 64.0273 38.902 64.0527C39.029 64.0527 39.1306 64.1797 39.156 64.3066C39.156 65.0939 39.156 65.8051 39.156 66.5162C39.156 67.1257 39.156 67.7352 39.156 68.3701C38.3433 68.4209 35.6258 68.4463 34.7877 68.4463C33.9242 68.4463 30.2417 68.3701 29.4036 68.3193C29.2512 68.3193 29.1496 68.2177 29.1496 68.0654C29.0988 65.6781 29.048 63.24 29.048 60.7003ZM40.276 68.167L40.8855 63.5955C42.6633 64.1543 44.2379 64.4844 45.3808 64.4844C46.3458 64.4844 46.7522 63.9765 46.7522 63.5701C46.7522 63.0622 46.0157 62.859 45.0252 62.5797C43.1205 62.0463 40.3014 61.2336 40.3014 57.3225C40.3014 53.2082 42.8411 52.9035 46.3205 52.9035C47.7935 52.9035 49.5205 53.132 51.222 53.4622L50.6379 57.7035C49.4443 57.1701 47.6411 56.6622 46.0665 56.6622C45.2792 56.6622 44.7712 56.9162 44.7712 57.3733C44.7712 57.8304 45.5585 58.059 46.5998 58.3638C48.7078 58.9987 51.857 59.9384 51.857 63.4685C51.857 67.5066 49.0633 68.4463 45.6347 68.4463C43.9078 68.4463 42.0284 68.3701 40.276 68.167ZM53.0808 60.7003C53.0808 58.1606 53.1062 55.6209 53.1824 53.0812C53.9697 53.0558 54.5538 53.0304 55.3919 53.0304C56.2554 53.0304 57.1443 53.0558 58.0078 53.0812C58.1347 53.0812 58.2617 53.2082 58.2617 53.3352C58.3125 55.7225 58.3633 58.1606 58.3633 60.7003C58.3633 63.24 58.3125 65.7797 58.2617 68.3193C57.449 68.3701 56.8649 68.3955 56.0268 68.3955C55.1633 68.3955 54.2744 68.3701 53.4363 68.3193C53.2839 68.3193 53.1824 68.2177 53.1824 68.0654C53.1316 65.6781 53.0808 63.24 53.0808 60.7003ZM59.6909 60.7003C59.6909 54.732 62.3829 52.9035 66.675 52.9035C68.0972 52.9035 69.5956 53.0812 71.221 53.3352L70.6877 57.3479H66.1671C65.4814 57.3479 64.9734 57.6781 64.9734 60.7003C64.9734 63.7225 65.5829 64.0527 66.2941 64.0527H66.802C66.802 63.0368 66.7258 61.513 66.7004 60.1924C67.3861 60.167 68.0464 60.167 68.7068 60.167C69.3925 60.167 70.1036 60.167 70.9163 60.1924C71.0433 60.2177 71.1449 60.3193 71.1703 60.4463C71.221 61.64 71.2718 62.7574 71.2718 64.0019C71.2718 65.1955 71.221 66.8971 71.1703 67.8876C69.4179 68.2177 68.4528 68.3701 66.6242 68.3701C62.3576 68.3701 59.6909 67.0495 59.6909 60.7003ZM72.9468 60.7003C72.9468 58.1606 72.9722 55.6209 73.0484 53.0812C73.8357 53.0558 74.2929 53.0304 75.131 53.0304C75.8675 53.0304 76.5278 53.0558 77.3405 53.0812C77.4675 53.1066 77.5437 53.2082 77.6199 53.3352L80.2357 59.8368L80.1595 53.0812C80.9468 53.0558 81.531 53.0304 82.3691 53.0304C83.2326 53.0304 83.9691 53.0558 84.731 53.0812C84.8579 53.1066 84.9849 53.2082 84.9849 53.3352C85.0357 55.7225 85.0865 58.1606 85.0865 60.7003C85.0865 63.24 85.0357 65.7797 84.9849 68.3193C84.2738 68.3701 83.8421 68.3955 83.004 68.3955C82.2421 68.3955 81.5056 68.3701 80.6929 68.3193C80.5405 68.3193 80.4643 68.2177 80.4135 68.0654L77.7722 61.5892L77.8738 68.3193C77.0611 68.3701 76.604 68.3955 75.7659 68.3955C74.9024 68.3955 74.1151 68.3701 73.3024 68.3193C73.15 68.3193 73.0484 68.2177 73.0484 68.0654C72.9976 65.6781 72.9468 63.24 72.9468 60.7003ZM86.9101 60.7003C86.9101 58.1606 86.9355 55.6209 87.0117 53.0812C87.799 53.0558 88.3832 53.0304 89.2212 53.0304C90.0847 53.0304 90.9736 53.0558 91.8371 53.0812C91.9641 53.0812 92.0911 53.2082 92.0911 53.3352C92.1419 55.7225 92.1927 58.1606 92.1927 60.7003C92.1927 63.24 92.1419 65.7797 92.0911 68.3193C91.2784 68.3701 90.6943 68.3955 89.8562 68.3955C88.9927 68.3955 88.1038 68.3701 87.2657 68.3193C87.1133 68.3193 87.0117 68.2177 87.0117 68.0654C86.9609 65.6781 86.9101 63.24 86.9101 60.7003ZM94.0282 60.7003C94.0282 58.1606 94.0536 55.6209 94.1298 53.0812C94.9171 53.0558 95.3742 53.0304 96.2123 53.0304C96.9488 53.0304 97.6091 53.0558 98.4218 53.0812C98.5488 53.1066 98.625 53.2082 98.7012 53.3352L101.317 59.8368L101.241 53.0812C102.028 53.0558 102.612 53.0304 103.45 53.0304C104.314 53.0304 105.05 53.0558 105.812 53.0812C105.939 53.1066 106.066 53.2082 106.066 53.3352C106.117 55.7225 106.168 58.1606 106.168 60.7003C106.168 63.24 106.117 65.7797 106.066 68.3193C105.355 68.3701 104.923 68.3955 104.085 68.3955C103.323 68.3955 102.587 68.3701 101.774 68.3193C101.622 68.3193 101.546 68.2177 101.495 68.0654L98.8536 61.5892L98.9552 68.3193C98.1425 68.3701 97.6853 68.3955 96.8472 68.3955C95.9837 68.3955 95.1964 68.3701 94.3837 68.3193C94.2314 68.3193 94.1298 68.2177 94.1298 68.0654C94.079 65.6781 94.0282 63.24 94.0282 60.7003ZM107.484 60.7003C107.484 54.732 110.176 52.9035 114.468 52.9035C115.89 52.9035 117.388 53.0812 119.014 53.3352L118.48 57.3479H113.96C113.274 57.3479 112.766 57.6781 112.766 60.7003C112.766 63.7225 113.376 64.0527 114.087 64.0527H114.595C114.595 63.0368 114.518 61.513 114.493 60.1924C115.179 60.167 115.839 60.167 116.499 60.167C117.185 60.167 117.896 60.167 118.709 60.1924C118.836 60.2177 118.938 60.3193 118.963 60.4463C119.014 61.64 119.064 62.7574 119.064 64.0019C119.064 65.1955 119.014 66.8971 118.963 67.8876C117.211 68.2177 116.245 68.3701 114.417 68.3701C110.15 68.3701 107.484 67.0495 107.484 60.7003ZM128.354 60.7003C128.354 58.1606 128.379 55.6209 128.455 53.0812C129.242 53.0558 129.827 53.0304 130.665 53.0304C131.528 53.0304 132.417 53.0558 133.281 53.0812C133.408 53.0812 133.535 53.2082 133.535 53.3352C133.585 55.7225 133.636 58.1606 133.636 60.7003C133.636 61.8431 133.611 62.9352 133.611 64.0019H133.712C134.576 64.0019 136.735 64.0273 137.598 64.0527C137.725 64.0527 137.827 64.1797 137.852 64.3066C137.852 65.0939 137.852 65.8051 137.852 66.5162C137.852 67.1257 137.852 67.7352 137.852 68.3701C137.039 68.4209 134.931 68.4463 134.093 68.4463C133.23 68.4463 129.547 68.3701 128.709 68.3193C128.557 68.3193 128.455 68.2177 128.455 68.0654C128.404 65.6781 128.354 63.24 128.354 60.7003ZM137.831 68.1162C137.831 68.0654 137.907 67.5828 137.958 67.3289C138.719 62.6812 139.786 57.7797 140.726 53.0812C141.869 53.0304 143.037 53.0304 144.231 53.0304C145.45 53.0304 146.643 53.0558 147.862 53.0812C147.989 53.0812 148.116 53.2082 148.142 53.3352C149.107 58.2114 150.3 63.3924 151.037 68.3193C150.25 68.3701 149.691 68.3955 148.827 68.3955C147.964 68.3955 147.227 68.3955 146.339 68.3193C146.212 68.3193 146.085 68.2177 146.059 68.0654C145.881 67.2527 145.729 66.3892 145.602 65.5257H143.24C143.088 66.4654 142.935 67.4051 142.758 68.3193C141.945 68.3701 141.488 68.3955 140.65 68.3955C139.786 68.3955 138.897 68.3701 138.059 68.3193C137.932 68.3193 137.831 68.2431 137.831 68.1162ZM143.672 62.2241H145.094C144.815 60.3447 144.561 58.44 144.307 56.5352C144.078 58.4146 143.875 60.3193 143.672 62.2241ZM152.015 60.3701C152.015 57.8304 152.066 55.8749 152.066 53.3352C153.742 53.0812 155.85 52.9035 157.273 52.9035C161.057 52.9035 163.647 53.2082 163.647 57.3225C163.647 59.2019 162.606 60.6241 160.93 61.4114C161.514 61.6146 161.996 62.0209 162.352 62.605C163.342 64.586 163.927 66.4146 164.358 68.3193C163.52 68.4209 162.606 68.4717 161.717 68.4717C161.031 68.4717 160.346 68.4463 159.66 68.3955C159.533 68.3955 159.33 68.2939 159.279 68.1416C158.568 65.9828 157.857 63.8241 157.349 62.0717C157.247 62.0717 157.12 62.0717 157.019 62.0717C157.044 64.1543 157.12 66.3384 157.146 68.3193C156.384 68.3701 155.647 68.3701 154.911 68.3701C154.047 68.3701 153.184 68.3701 152.32 68.3193C152.168 68.3193 152.066 68.2177 152.066 68.0654C152.066 65.6781 152.015 62.9098 152.015 60.3701ZM157.019 58.9479H157.45C158.238 58.9479 158.796 58.5162 158.796 57.8558C158.796 57.0685 158.542 56.6368 157.628 56.6368C157.425 56.6368 157.196 56.6368 157.019 56.6622C157.019 57.3987 157.019 58.1352 157.019 58.9479ZM164.825 60.7003C164.825 54.732 167.517 52.9035 171.809 52.9035C173.231 52.9035 174.73 53.0812 176.355 53.3352L175.822 57.3479H171.301C170.615 57.3479 170.107 57.6781 170.107 60.7003C170.107 63.7225 170.717 64.0527 171.428 64.0527H171.936C171.936 63.0368 171.86 61.513 171.834 60.1924C172.52 60.167 173.18 60.167 173.841 60.167C174.526 60.167 175.238 60.167 176.05 60.1924C176.177 60.2177 176.279 60.3193 176.304 60.4463C176.355 61.64 176.406 62.7574 176.406 64.0019C176.406 65.1955 176.355 66.8971 176.304 67.8876C174.552 68.2177 173.587 68.3701 171.758 68.3701C167.491 68.3701 164.825 67.0495 164.825 60.7003ZM178.081 60.7003C178.081 58.1606 178.106 55.6209 178.182 53.0812C178.97 53.0558 182.601 53.0304 183.44 53.0304C184.303 53.0304 187.02 53.0558 187.884 53.0812C188.011 53.0812 188.113 53.2082 188.138 53.3352C188.138 54.1225 188.138 54.8336 188.138 55.5447C188.138 56.1543 188.138 56.7638 188.138 57.3987C187.325 57.4495 184.938 57.4495 184.1 57.4495C183.897 57.4495 183.541 57.4495 183.109 57.4495C183.109 57.8812 183.109 58.3384 183.109 58.7955C184.125 58.7955 185.497 58.8209 186.157 58.8209C186.284 58.8209 186.386 58.9479 186.411 59.0749C186.411 59.786 186.411 60.3955 186.411 61.005C186.411 61.5384 186.411 62.0717 186.411 62.6812H183.109C183.109 63.1384 183.109 63.5701 183.109 64.0019H183.44C184.303 64.0019 187.071 64.0273 187.935 64.0527C188.062 64.0527 188.163 64.1797 188.189 64.3066C188.189 65.0939 188.189 65.8051 188.189 66.5162C188.189 67.1257 188.189 67.7352 188.189 68.3701C187.376 68.4209 184.659 68.4463 183.82 68.4463C182.957 68.4463 179.274 68.3701 178.436 68.3193C178.284 68.3193 178.182 68.2177 178.182 68.0654C178.132 65.6781 178.081 63.24 178.081 60.7003ZM196.923 68.167L197.532 63.5955C199.31 64.1543 200.885 64.4844 202.028 64.4844C202.993 64.4844 203.399 63.9765 203.399 63.5701C203.399 63.0622 202.663 62.859 201.672 62.5797C199.767 62.0463 196.948 61.2336 196.948 57.3225C196.948 53.2082 199.488 52.9035 202.967 52.9035C204.44 52.9035 206.167 53.132 207.869 53.4622L207.285 57.7035C206.091 57.1701 204.288 56.6622 202.713 56.6622C201.926 56.6622 201.418 56.9162 201.418 57.3733C201.418 57.8304 202.205 58.059 203.247 58.3638C205.355 58.9987 208.504 59.9384 208.504 63.4685C208.504 67.5066 205.71 68.4463 202.282 68.4463C200.555 68.4463 198.675 68.3701 196.923 68.167ZM209.22 60.7003C209.22 54.732 211.912 52.9035 216.204 52.9035C217.245 52.9035 218.058 53.1066 219.099 53.3352L218.54 57.3225L216.204 57.1701C215.264 57.1193 214.502 57.6781 214.502 60.7003C214.502 63.7225 215.163 64.3066 216.204 64.2558L218.54 64.0781L219.074 68.0908C218.032 68.2939 217.194 68.3701 216.153 68.3701C211.886 68.3701 209.22 67.0495 209.22 60.7003ZM219.329 68.1162C219.329 68.0654 219.405 67.5828 219.456 67.3289C220.217 62.6812 221.284 57.7797 222.224 53.0812C223.367 53.0304 224.535 53.0304 225.729 53.0304C226.948 53.0304 228.141 53.0558 229.36 53.0812C229.487 53.0812 229.614 53.2082 229.64 53.3352C230.605 58.2114 231.798 63.3924 232.535 68.3193C231.748 68.3701 231.189 68.3955 230.325 68.3955C229.462 68.3955 228.725 68.3955 227.837 68.3193C227.71 68.3193 227.583 68.2177 227.557 68.0654C227.379 67.2527 227.227 66.3892 227.1 65.5257H224.738C224.586 66.4654 224.433 67.4051 224.256 68.3193C223.443 68.3701 222.986 68.3955 222.148 68.3955C221.284 68.3955 220.395 68.3701 219.557 68.3193C219.43 68.3193 219.329 68.2431 219.329 68.1162ZM225.17 62.2241H226.592C226.313 60.3447 226.059 58.44 225.805 56.5352C225.576 58.4146 225.373 60.3193 225.17 62.2241ZM233.463 60.7003C233.463 58.1606 233.488 55.6209 233.564 53.0812C234.352 53.0558 234.936 53.0304 235.774 53.0304C236.637 53.0304 237.526 53.0558 238.39 53.0812C238.517 53.0812 238.644 53.2082 238.644 53.3352C238.694 55.7225 238.745 58.1606 238.745 60.7003C238.745 61.8431 238.72 62.9352 238.72 64.0019H238.821C239.685 64.0019 241.844 64.0273 242.707 64.0527C242.834 64.0527 242.936 64.1797 242.961 64.3066C242.961 65.0939 242.961 65.8051 242.961 66.5162C242.961 67.1257 242.961 67.7352 242.961 68.3701C242.148 68.4209 240.04 68.4463 239.202 68.4463C238.339 68.4463 234.656 68.3701 233.818 68.3193C233.666 68.3193 233.564 68.2177 233.564 68.0654C233.514 65.6781 233.463 63.24 233.463 60.7003ZM243.879 60.7003C243.879 58.1606 243.905 55.6209 243.981 53.0812C244.768 53.0558 248.4 53.0304 249.238 53.0304C250.102 53.0304 252.819 53.0558 253.683 53.0812C253.81 53.0812 253.911 53.2082 253.937 53.3352C253.937 54.1225 253.937 54.8336 253.937 55.5447C253.937 56.1543 253.937 56.7638 253.937 57.3987C253.124 57.4495 250.737 57.4495 249.898 57.4495C249.695 57.4495 249.34 57.4495 248.908 57.4495C248.908 57.8812 248.908 58.3384 248.908 58.7955C249.924 58.7955 251.295 58.8209 251.956 58.8209C252.083 58.8209 252.184 58.9479 252.21 59.0749C252.21 59.786 252.21 60.3955 252.21 61.005C252.21 61.5384 252.21 62.0717 252.21 62.6812H248.908C248.908 63.1384 248.908 63.5701 248.908 64.0019H249.238C250.102 64.0019 252.87 64.0273 253.733 64.0527C253.86 64.0527 253.962 64.1797 253.987 64.3066C253.987 65.0939 253.987 65.8051 253.987 66.5162C253.987 67.1257 253.987 67.7352 253.987 68.3701C253.175 68.4209 250.457 68.4463 249.619 68.4463C248.756 68.4463 245.073 68.3701 244.235 68.3193C244.083 68.3193 243.981 68.2177 243.981 68.0654C243.93 65.6781 243.879 63.24 243.879 60.7003ZM15.68 87.7003C15.68 85.1606 15.7054 82.6209 15.7816 80.0812C16.5689 80.0558 20.2006 80.0304 21.0387 80.0304C21.9022 80.0304 24.6197 80.0558 25.4831 80.0812C25.6101 80.0812 25.7117 80.2082 25.7371 80.3352C25.7371 81.1225 25.7371 81.8336 25.7371 82.5447C25.7371 83.1543 25.7371 83.7638 25.7371 84.3987C24.9244 84.4495 22.5371 84.4495 21.699 84.4495C21.4958 84.4495 21.1403 84.4495 20.7085 84.4495C20.7085 84.8812 20.7085 85.3384 20.7085 85.7955C21.7244 85.7955 23.0958 85.8209 23.7562 85.8209C23.8831 85.8209 23.9847 85.9479 24.0101 86.0749C24.0101 86.786 24.0101 87.3955 24.0101 88.005C24.0101 88.5384 24.0101 89.0717 24.0101 89.6812H20.7085C20.7085 90.1384 20.7085 90.5701 20.7085 91.0019H21.0387C21.9022 91.0019 24.6704 91.0273 25.5339 91.0527C25.6609 91.0527 25.7625 91.1797 25.7879 91.3066C25.7879 92.0939 25.7879 92.8051 25.7879 93.5162C25.7879 94.1257 25.7879 94.7352 25.7879 95.3701C24.9752 95.4209 22.2578 95.4463 21.4197 95.4463C20.5562 95.4463 16.8736 95.3701 16.0355 95.3193C15.8831 95.3193 15.7816 95.2177 15.7816 95.0654C15.7308 92.6781 15.68 90.24 15.68 87.7003ZM27.2127 87.7003C27.2127 85.1606 27.2381 82.6209 27.3143 80.0812C28.1016 80.0558 28.5587 80.0304 29.3968 80.0304C30.1333 80.0304 30.7937 80.0558 31.6064 80.0812C31.7333 80.1066 31.8095 80.2082 31.8857 80.3352L34.5016 86.8368L34.4254 80.0812C35.2127 80.0558 35.7968 80.0304 36.6349 80.0304C37.4984 80.0304 38.2349 80.0558 38.9968 80.0812C39.1238 80.1066 39.2508 80.2082 39.2508 80.3352C39.3016 82.7225 39.3524 85.1606 39.3524 87.7003C39.3524 90.24 39.3016 92.7797 39.2508 95.3193C38.5397 95.3701 38.108 95.3955 37.2699 95.3955C36.508 95.3955 35.7714 95.3701 34.9587 95.3193C34.8064 95.3193 34.7302 95.2177 34.6794 95.0654L32.0381 88.5892L32.1397 95.3193C31.327 95.3701 30.8699 95.3955 30.0318 95.3955C29.1683 95.3955 28.381 95.3701 27.5683 95.3193C27.4159 95.3193 27.3143 95.2177 27.3143 95.0654C27.2635 92.6781 27.2127 90.24 27.2127 87.7003ZM40.3887 82.0114C40.3887 81.4019 40.3887 80.767 40.4141 80.0812C41.2014 80.0558 45.4427 80.0304 46.2808 80.0304C47.1443 80.0304 50.6744 80.0558 51.5379 80.0812C51.6649 80.0812 51.7665 80.2082 51.7919 80.3352C51.7919 81.0717 51.7919 81.7828 51.7919 82.5193C51.7919 83.1289 51.7919 83.7638 51.7919 84.3987C51.3601 84.4241 50.0141 84.4495 48.6935 84.4495C48.7189 85.4908 48.7443 86.532 48.7443 87.7003C48.7443 90.24 48.6935 92.7797 48.6427 95.3193C47.83 95.3701 47.2458 95.3955 46.4078 95.3955C45.5443 95.3955 44.6554 95.3701 43.8173 95.3193C43.6649 95.3193 43.5633 95.2177 43.5633 95.0654C43.5125 92.6781 43.4617 90.24 43.4617 87.7003C43.4617 86.532 43.4617 85.4908 43.4617 84.4241C42.3189 84.3987 41.0998 84.3733 40.6681 84.3479C40.5157 84.3479 40.4141 84.2463 40.4141 84.0939C40.3887 83.3828 40.3887 82.6971 40.3887 82.0114ZM52.8576 87.7003C52.8576 85.1606 52.883 82.6209 52.9591 80.0812C53.7464 80.0558 57.3782 80.0304 58.2163 80.0304C59.0798 80.0304 61.7972 80.0558 62.6607 80.0812C62.7877 80.0812 62.8893 80.2082 62.9147 80.3352C62.9147 81.1225 62.9147 81.8336 62.9147 82.5447C62.9147 83.1543 62.9147 83.7638 62.9147 84.3987C62.102 84.4495 59.7147 84.4495 58.8766 84.4495C58.6734 84.4495 58.3179 84.4495 57.8861 84.4495C57.8861 84.8812 57.8861 85.3384 57.8861 85.7955C58.902 85.7955 60.2734 85.8209 60.9337 85.8209C61.0607 85.8209 61.1623 85.9479 61.1877 86.0749C61.1877 86.786 61.1877 87.3955 61.1877 88.005C61.1877 88.5384 61.1877 89.0717 61.1877 89.6812H57.8861C57.8861 90.1384 57.8861 90.5701 57.8861 91.0019H58.2163C59.0798 91.0019 61.848 91.0273 62.7115 91.0527C62.8385 91.0527 62.9401 91.1797 62.9655 91.3066C62.9655 92.0939 62.9655 92.8051 62.9655 93.5162C62.9655 94.1257 62.9655 94.7352 62.9655 95.3701C62.1528 95.4209 59.4353 95.4463 58.5972 95.4463C57.7337 95.4463 54.0512 95.3701 53.2131 95.3193C53.0607 95.3193 52.9591 95.2177 52.9591 95.0654C52.9083 92.6781 52.8576 90.24 52.8576 87.7003ZM64.4411 87.3701C64.4411 84.8304 64.4919 82.8749 64.4919 80.3352C66.1681 80.0812 68.276 79.9035 69.6982 79.9035C73.4824 79.9035 76.0728 80.2082 76.0728 84.3225C76.0728 86.2019 75.0316 87.6241 73.3554 88.4114C73.9395 88.6146 74.422 89.0209 74.7776 89.605C75.7681 91.586 76.3522 93.4146 76.7839 95.3193C75.9458 95.4209 75.0316 95.4717 74.1427 95.4717C73.457 95.4717 72.7712 95.4463 72.0855 95.3955C71.9585 95.3955 71.7554 95.2939 71.7046 95.1416C70.9935 92.9828 70.2824 90.8241 69.7744 89.0717C69.6728 89.0717 69.5458 89.0717 69.4443 89.0717C69.4697 91.1543 69.5458 93.3384 69.5712 95.3193C68.8093 95.3701 68.0728 95.3701 67.3363 95.3701C66.4728 95.3701 65.6093 95.3701 64.7458 95.3193C64.5935 95.3193 64.4919 95.2177 64.4919 95.0654C64.4919 92.6781 64.4411 89.9098 64.4411 87.3701ZM69.4443 85.9479H69.876C70.6633 85.9479 71.222 85.5162 71.222 84.8558C71.222 84.0685 70.9681 83.6368 70.0538 83.6368C69.8506 83.6368 69.622 83.6368 69.4443 83.6622C69.4443 84.3987 69.4443 85.1352 69.4443 85.9479ZM77.8091 87.7003C77.8091 85.1606 77.8599 82.8241 77.8599 80.3352C79.5361 80.0812 81.3901 79.9035 82.8123 79.9035C87.1044 79.9035 89.6949 80.4622 89.6949 85.9225C89.6949 90.7479 87.1298 91.8146 82.8885 91.8146C82.8885 92.9828 82.9139 94.1511 82.9393 95.3193C82.1774 95.3701 81.4409 95.3701 80.7044 95.3701C79.8409 95.3701 78.9774 95.3701 78.1139 95.3193C77.9615 95.3193 77.8599 95.2177 77.8599 95.0654C77.8599 92.6781 77.8091 90.24 77.8091 87.7003ZM82.8377 87.6749H83.2187C83.9044 87.6749 84.5393 87.4971 84.5393 85.9987C84.5393 84.4241 84.4123 84.2463 83.3964 84.2463H82.8377V87.6749ZM90.9044 87.3701C90.9044 84.8304 90.9552 82.8749 90.9552 80.3352C92.6314 80.0812 94.7393 79.9035 96.1615 79.9035C99.9457 79.9035 102.536 80.2082 102.536 84.3225C102.536 86.2019 101.495 87.6241 99.8187 88.4114C100.403 88.6146 100.885 89.0209 101.241 89.605C102.231 91.586 102.815 93.4146 103.247 95.3193C102.409 95.4209 101.495 95.4717 100.606 95.4717C99.9203 95.4717 99.2345 95.4463 98.5488 95.3955C98.4218 95.3955 98.2187 95.2939 98.1679 95.1416C97.4568 92.9828 96.7457 90.8241 96.2377 89.0717C96.1361 89.0717 96.0091 89.0717 95.9076 89.0717C95.933 91.1543 96.0091 93.3384 96.0345 95.3193C95.2726 95.3701 94.5361 95.3701 93.7996 95.3701C92.9361 95.3701 92.0726 95.3701 91.2091 95.3193C91.0568 95.3193 90.9552 95.2177 90.9552 95.0654C90.9552 92.6781 90.9044 89.9098 90.9044 87.3701ZM95.9076 85.9479H96.3393C97.1266 85.9479 97.6853 85.5162 97.6853 84.8558C97.6853 84.0685 97.4314 83.6368 96.5171 83.6368C96.3139 83.6368 96.0853 83.6368 95.9076 83.6622C95.9076 84.3987 95.9076 85.1352 95.9076 85.9479ZM104.222 87.7003C104.222 85.1606 104.247 82.6209 104.323 80.0812C105.111 80.0558 105.695 80.0304 106.533 80.0304C107.396 80.0304 108.285 80.0558 109.149 80.0812C109.276 80.0812 109.403 80.2082 109.403 80.3352C109.453 82.7225 109.504 85.1606 109.504 87.7003C109.504 90.24 109.453 92.7797 109.403 95.3193C108.59 95.3701 108.006 95.3955 107.168 95.3955C106.304 95.3955 105.415 95.3701 104.577 95.3193C104.425 95.3193 104.323 95.2177 104.323 95.0654C104.272 92.6781 104.222 90.24 104.222 87.7003ZM111.035 95.167L111.644 90.5955C113.422 91.1543 114.997 91.4844 116.14 91.4844C117.105 91.4844 117.511 90.9765 117.511 90.5701C117.511 90.0622 116.775 89.859 115.784 89.5797C113.879 89.0463 111.06 88.2336 111.06 84.3225C111.06 80.2082 113.6 79.9035 117.079 79.9035C118.552 79.9035 120.279 80.132 121.981 80.4622L121.397 84.7035C120.203 84.1701 118.4 83.6622 116.825 83.6622C116.038 83.6622 115.53 83.9162 115.53 84.3733C115.53 84.8304 116.317 85.059 117.359 85.3638C119.467 85.9987 122.616 86.9384 122.616 90.4685C122.616 94.5066 119.822 95.4463 116.394 95.4463C114.667 95.4463 112.787 95.3701 111.035 95.167ZM123.84 87.7003C123.84 85.1606 123.865 82.6209 123.941 80.0812C124.729 80.0558 128.36 80.0304 129.198 80.0304C130.062 80.0304 132.779 80.0558 133.643 80.0812C133.77 80.0812 133.871 80.2082 133.897 80.3352C133.897 81.1225 133.897 81.8336 133.897 82.5447C133.897 83.1543 133.897 83.7638 133.897 84.3987C133.084 84.4495 130.697 84.4495 129.859 84.4495C129.656 84.4495 129.3 84.4495 128.868 84.4495C128.868 84.8812 128.868 85.3384 128.868 85.7955C129.884 85.7955 131.256 85.8209 131.916 85.8209C132.043 85.8209 132.144 85.9479 132.17 86.0749C132.17 86.786 132.17 87.3955 132.17 88.005C132.17 88.5384 132.17 89.0717 132.17 89.6812H128.868C128.868 90.1384 128.868 90.5701 128.868 91.0019H129.198C130.062 91.0019 132.83 91.0273 133.694 91.0527C133.821 91.0527 133.922 91.1797 133.948 91.3066C133.948 92.0939 133.948 92.8051 133.948 93.5162C133.948 94.1257 133.948 94.7352 133.948 95.3701C133.135 95.4209 130.417 95.4463 129.579 95.4463C128.716 95.4463 125.033 95.3701 124.195 95.3193C124.043 95.3193 123.941 95.2177 123.941 95.0654C123.89 92.6781 123.84 90.24 123.84 87.7003ZM142.047 95.1162C142.047 95.0654 142.123 94.5828 142.174 94.3289C142.936 89.6812 144.002 84.7797 144.942 80.0812C146.085 80.0304 147.253 80.0304 148.447 80.0304C149.666 80.0304 150.86 80.0558 152.079 80.0812C152.206 80.0812 152.333 80.2082 152.358 80.3352C153.323 85.2114 154.517 90.3924 155.253 95.3193C154.466 95.3701 153.907 95.3955 153.044 95.3955C152.18 95.3955 151.444 95.3955 150.555 95.3193C150.428 95.3193 150.301 95.2177 150.275 95.0654C150.098 94.2527 149.945 93.3892 149.818 92.5257H147.456C147.304 93.4654 147.152 94.4051 146.974 95.3193C146.161 95.3701 145.704 95.3955 144.866 95.3955C144.002 95.3955 143.114 95.3701 142.275 95.3193C142.148 95.3193 142.047 95.2431 142.047 95.1162ZM147.888 89.2241H149.31C149.031 87.3447 148.777 85.44 148.523 83.5352C148.294 85.4146 148.091 87.3193 147.888 89.2241ZM156.232 87.7003C156.232 85.1606 156.283 82.8241 156.283 80.3352C157.959 80.0812 159.813 79.9035 161.235 79.9035C165.527 79.9035 168.117 80.4622 168.117 85.9225C168.117 90.7479 165.552 91.8146 161.311 91.8146C161.311 92.9828 161.337 94.1511 161.362 95.3193C160.6 95.3701 159.864 95.3701 159.127 95.3701C158.264 95.3701 157.4 95.3701 156.537 95.3193C156.384 95.3193 156.283 95.2177 156.283 95.0654C156.283 92.6781 156.232 90.24 156.232 87.7003ZM161.26 87.6749H161.641C162.327 87.6749 162.962 87.4971 162.962 85.9987C162.962 84.4241 162.835 84.2463 161.819 84.2463H161.26V87.6749ZM169.327 87.7003C169.327 85.1606 169.378 82.8241 169.378 80.3352C171.054 80.0812 172.908 79.9035 174.33 79.9035C178.622 79.9035 181.213 80.4622 181.213 85.9225C181.213 90.7479 178.648 91.8146 174.406 91.8146C174.406 92.9828 174.432 94.1511 174.457 95.3193C173.695 95.3701 172.959 95.3701 172.222 95.3701C171.359 95.3701 170.495 95.3701 169.632 95.3193C169.479 95.3193 169.378 95.2177 169.378 95.0654C169.378 92.6781 169.327 90.24 169.327 87.7003ZM174.356 87.6749H174.737C175.422 87.6749 176.057 87.4971 176.057 85.9987C176.057 84.4241 175.93 84.2463 174.914 84.2463H174.356V87.6749ZM182.067 95.167L182.676 90.5955C184.454 91.1543 186.029 91.4844 187.171 91.4844C188.137 91.4844 188.543 90.9765 188.543 90.5701C188.543 90.0622 187.806 89.859 186.816 89.5797C184.911 89.0463 182.092 88.2336 182.092 84.3225C182.092 80.2082 184.632 79.9035 188.111 79.9035C189.584 79.9035 191.311 80.132 193.013 80.4622L192.429 84.7035C191.235 84.1701 189.432 83.6622 187.857 83.6622C187.07 83.6622 186.562 83.9162 186.562 84.3733C186.562 84.8304 187.349 85.059 188.39 85.3638C190.498 85.9987 193.648 86.9384 193.648 90.4685C193.648 94.5066 190.854 95.4463 187.425 95.4463C185.698 95.4463 183.819 95.3701 182.067 95.167Z" fill="#312C4E"/>
</svg>
