<svg width="340" height="79" viewBox="0 0 340 79" fill="none" xmlns="http://www.w3.org/2000/svg">
<rect width="340" height="79" rx="22" fill="white" fill-opacity="0.1"/>
<path d="M26.326 53C25.936 53 25.741 52.857 25.741 52.571C25.741 52.337 25.91 52.181 26.248 52.103L27.145 51.947C27.691 51.843 28.042 51.7 28.198 51.518C28.38 51.336 28.471 50.972 28.471 50.426V27.494C28.471 26.948 28.38 26.584 28.198 26.402C28.042 26.22 27.691 26.077 27.145 25.973L26.248 25.817C25.91 25.739 25.741 25.583 25.741 25.349C25.741 25.063 25.936 24.92 26.326 24.92H33.463C33.853 24.92 34.048 25.076 34.048 25.388C34.048 25.622 33.905 25.765 33.619 25.817L32.566 25.973C32.02 26.051 31.656 26.194 31.474 26.402C31.318 26.61 31.24 26.987 31.24 27.533V37.322C31.24 37.686 31.422 37.868 31.786 37.868H39.508C39.872 37.868 40.054 37.686 40.054 37.322V27.533C40.054 26.987 39.963 26.61 39.781 26.402C39.625 26.194 39.274 26.051 38.728 25.973L37.675 25.817C37.389 25.765 37.246 25.622 37.246 25.388C37.246 25.076 37.441 24.92 37.831 24.92H44.968C45.358 24.92 45.553 25.063 45.553 25.349C45.553 25.583 45.384 25.739 45.046 25.817L44.149 25.973C43.603 26.077 43.239 26.22 43.057 26.402C42.901 26.584 42.823 26.948 42.823 27.494V50.426C42.823 50.972 42.901 51.336 43.057 51.518C43.239 51.7 43.603 51.843 44.149 51.947L45.046 52.103C45.384 52.181 45.553 52.337 45.553 52.571C45.553 52.857 45.358 53 44.968 53H37.831C37.441 53 37.246 52.844 37.246 52.532C37.246 52.298 37.389 52.155 37.675 52.103L38.728 51.947C39.274 51.869 39.625 51.726 39.781 51.518C39.963 51.31 40.054 50.933 40.054 50.387V39.584C40.054 39.22 39.872 39.038 39.508 39.038H31.786C31.422 39.038 31.24 39.22 31.24 39.584V50.387C31.24 50.933 31.318 51.31 31.474 51.518C31.656 51.726 32.02 51.869 32.566 51.947L33.619 52.103C33.905 52.155 34.048 52.298 34.048 52.532C34.048 52.844 33.853 53 33.463 53H26.326ZM50.279 29.405C49.733 29.405 49.265 29.21 48.875 28.82C48.511 28.43 48.329 27.936 48.329 27.338C48.329 26.74 48.511 26.259 48.875 25.895C49.265 25.505 49.733 25.31 50.279 25.31C50.825 25.31 51.28 25.505 51.644 25.895C52.008 26.259 52.19 26.74 52.19 27.338C52.19 27.936 52.008 28.43 51.644 28.82C51.28 29.21 50.825 29.405 50.279 29.405ZM47.003 53C46.613 53 46.418 52.857 46.418 52.571C46.418 52.337 46.587 52.181 46.925 52.103L47.393 52.025C48.043 51.921 48.459 51.765 48.641 51.557C48.823 51.323 48.914 50.933 48.914 50.387V37.283C48.914 36.815 48.836 36.503 48.68 36.347C48.55 36.165 48.303 36.048 47.939 35.996L47.12 35.879C46.782 35.853 46.613 35.71 46.613 35.45C46.613 35.242 46.821 35.099 47.237 35.021C48.043 34.891 48.693 34.683 49.187 34.397C49.681 34.111 50.162 33.76 50.63 33.344C50.864 33.11 51.059 32.993 51.215 32.993C51.449 32.993 51.566 33.149 51.566 33.461V50.387C51.566 50.933 51.644 51.323 51.8 51.557C51.956 51.791 52.255 51.934 52.697 51.986L53.672 52.103C53.958 52.155 54.101 52.298 54.101 52.532C54.101 52.844 53.906 53 53.516 53H47.003ZM57.4806 59.084C57.1946 59.37 56.9476 59.422 56.7396 59.24C56.5056 59.058 56.5446 58.811 56.8566 58.499C57.6106 57.745 58.1436 57.043 58.4556 56.393C58.7676 55.743 58.9236 55.067 58.9236 54.365C58.9236 53.949 58.8196 53.624 58.6116 53.39C58.4036 53.182 58.1696 52.987 57.9096 52.805C57.6496 52.623 57.4156 52.415 57.2076 52.181C56.9996 51.921 56.8956 51.557 56.8956 51.089C56.8956 50.569 57.0646 50.14 57.4026 49.802C57.7666 49.438 58.2216 49.256 58.7676 49.256C59.4176 49.256 59.9246 49.49 60.2886 49.958C60.6786 50.426 60.8736 51.063 60.8736 51.869C60.8736 53.247 60.5486 54.573 59.8986 55.847C59.2746 57.147 58.4686 58.226 57.4806 59.084ZM70.9246 53C70.5346 53 70.3396 52.857 70.3396 52.571C70.3396 52.337 70.5086 52.181 70.8466 52.103L71.7436 51.947C72.2896 51.843 72.6406 51.7 72.7966 51.518C72.9786 51.336 73.0696 50.972 73.0696 50.426V27.494C73.0696 26.948 72.9786 26.584 72.7966 26.402C72.6406 26.22 72.2896 26.077 71.7436 25.973L70.8466 25.817C70.5086 25.739 70.3396 25.583 70.3396 25.349C70.3396 25.063 70.5346 24.92 70.9246 24.92H77.9836C78.3736 24.92 78.5686 25.063 78.5686 25.349C78.5686 25.583 78.3996 25.739 78.0616 25.817L77.1646 25.973C76.6186 26.077 76.2546 26.22 76.0726 26.402C75.9166 26.584 75.8386 26.948 75.8386 27.494V50.426C75.8386 50.972 75.9166 51.336 76.0726 51.518C76.2546 51.7 76.6186 51.843 77.1646 51.947L78.0616 52.103C78.3996 52.181 78.5686 52.337 78.5686 52.571C78.5686 52.857 78.3736 53 77.9836 53H70.9246ZM90.6175 53.351C89.5255 53.351 88.6285 53.013 87.9265 52.337C87.2245 51.635 86.8735 50.712 86.8735 49.568C86.8735 48.45 87.2245 47.397 87.9265 46.409C88.6285 45.395 89.5905 44.485 90.8125 43.679C92.0345 42.873 93.4255 42.223 94.9855 41.729C95.3235 41.625 95.4925 41.404 95.4925 41.066V37.517C95.4925 36.269 95.2975 35.385 94.9075 34.865C94.5175 34.319 93.9845 34.046 93.3085 34.046C92.6585 34.046 92.0605 34.345 91.5145 34.943C90.9945 35.515 90.6175 36.49 90.3835 37.868C90.2535 38.7 89.9675 39.311 89.5255 39.701C89.1095 40.065 88.6805 40.247 88.2385 40.247C87.5105 40.247 87.1465 39.883 87.1465 39.155C87.1465 38.401 87.3545 37.66 87.7705 36.932C88.2125 36.178 88.7845 35.502 89.4865 34.904C90.1885 34.28 90.9555 33.786 91.7875 33.422C92.6195 33.058 93.4515 32.876 94.2835 32.876C96.8575 32.876 98.1445 34.371 98.1445 37.361V49.295C98.1445 50.387 98.4175 50.933 98.9635 50.933C99.3015 50.933 99.6135 50.712 99.8995 50.27C100.186 49.802 100.329 49.022 100.329 47.93C100.329 47.514 100.498 47.306 100.836 47.306C101.148 47.306 101.304 47.527 101.304 47.969C101.304 49.867 100.966 51.245 100.29 52.103C99.6395 52.935 98.8985 53.351 98.0665 53.351C97.4425 53.351 96.9485 53.104 96.5845 52.61C96.2205 52.09 95.9735 51.479 95.8435 50.777C95.8175 50.517 95.7005 50.387 95.4925 50.387C95.3105 50.361 95.1285 50.478 94.9465 50.738C94.3225 51.596 93.6855 52.246 93.0355 52.688C92.3855 53.13 91.5795 53.351 90.6175 53.351ZM91.6705 51.557C92.3465 51.557 92.9705 51.323 93.5425 50.855C94.1145 50.361 94.5825 49.711 94.9465 48.905C95.3105 48.099 95.4925 47.189 95.4925 46.175V43.328C95.4925 42.834 95.2195 42.691 94.6735 42.899C93.0875 43.471 91.8525 44.264 90.9685 45.278C90.1105 46.266 89.6815 47.462 89.6815 48.866C89.6815 50.66 90.3445 51.557 91.6705 51.557ZM102.685 53C102.295 53 102.1 52.857 102.1 52.571C102.1 52.337 102.269 52.181 102.607 52.103L103.075 52.025C103.621 51.921 103.972 51.765 104.128 51.557C104.31 51.323 104.401 50.933 104.401 50.387V37.283C104.401 36.815 104.323 36.503 104.167 36.347C104.037 36.165 103.79 36.048 103.426 35.996L102.607 35.879C102.269 35.853 102.1 35.71 102.1 35.45C102.1 35.242 102.308 35.099 102.724 35.021C103.53 34.891 104.141 34.683 104.557 34.397C104.999 34.111 105.454 33.76 105.922 33.344C106.156 33.11 106.351 32.993 106.507 32.993C106.741 32.993 106.858 33.149 106.858 33.461V35.216C106.858 35.398 106.936 35.541 107.092 35.645C107.248 35.723 107.417 35.671 107.599 35.489C108.665 34.475 109.588 33.786 110.368 33.422C111.174 33.058 111.98 32.876 112.786 32.876C113.54 32.876 114.203 33.084 114.775 33.5C115.373 33.89 115.815 34.488 116.101 35.294C116.179 35.502 116.309 35.632 116.491 35.684C116.699 35.71 116.894 35.632 117.076 35.45C118.142 34.462 119.065 33.786 119.845 33.422C120.625 33.058 121.418 32.876 122.224 32.876C123.316 32.876 124.2 33.292 124.876 34.124C125.578 34.93 125.929 36.126 125.929 37.712V50.387C125.929 50.933 126.007 51.323 126.163 51.557C126.345 51.765 126.709 51.908 127.255 51.986L128.113 52.103C128.399 52.155 128.542 52.311 128.542 52.571C128.542 52.857 128.386 53 128.074 53H121.405C121.041 53 120.859 52.857 120.859 52.571C120.859 52.311 121.002 52.155 121.288 52.103L121.834 52.025C122.432 51.947 122.822 51.791 123.004 51.557C123.186 51.323 123.277 50.933 123.277 50.387V38.141C123.277 36.867 123.043 35.97 122.575 35.45C122.133 34.93 121.522 34.67 120.742 34.67C119.962 34.67 119.247 34.917 118.597 35.411C117.973 35.879 117.466 36.516 117.076 37.322C116.686 38.102 116.491 38.973 116.491 39.935V50.387C116.491 50.933 116.582 51.323 116.764 51.557C116.946 51.765 117.323 51.908 117.895 51.986L118.753 52.103C119.039 52.155 119.182 52.311 119.182 52.571C119.182 52.857 119.026 53 118.714 53H112.084C111.72 53 111.538 52.857 111.538 52.571C111.538 52.311 111.681 52.155 111.967 52.103L112.513 52.025C113.059 51.947 113.41 51.791 113.566 51.557C113.748 51.323 113.839 50.933 113.839 50.387V38.141C113.839 36.867 113.605 35.97 113.137 35.45C112.695 34.93 112.084 34.67 111.304 34.67C110.524 34.67 109.809 34.917 109.159 35.411C108.535 35.879 108.028 36.516 107.638 37.322C107.248 38.102 107.053 38.973 107.053 39.935V50.387C107.053 50.933 107.131 51.323 107.287 51.557C107.469 51.791 107.833 51.934 108.379 51.986L109.432 52.103C109.718 52.155 109.861 52.298 109.861 52.532C109.861 52.844 109.666 53 109.276 53H102.685ZM144.533 53.39C144.429 53.39 144.312 53.351 144.182 53.273C144.052 53.195 143.961 53.026 143.909 52.766L137.747 28.04C137.565 27.312 137.357 26.805 137.123 26.519C136.915 26.233 136.551 26.038 136.031 25.934L135.446 25.817C135.082 25.739 134.9 25.57 134.9 25.31C134.9 25.05 135.095 24.92 135.485 24.92H142.154C142.518 24.92 142.7 25.063 142.7 25.349C142.7 25.635 142.479 25.791 142.037 25.817L141.296 25.895C140.854 25.921 140.568 26.064 140.438 26.324C140.334 26.558 140.347 26.961 140.477 27.533L145.001 46.292C145.053 46.448 145.131 46.526 145.235 46.526C145.365 46.526 145.443 46.448 145.469 46.292L149.954 28.352C150.318 26.87 149.928 26.051 148.784 25.895L148.199 25.817C147.757 25.739 147.536 25.583 147.536 25.349C147.536 25.063 147.718 24.92 148.082 24.92H153.542C153.932 24.92 154.127 25.05 154.127 25.31C154.127 25.57 153.945 25.739 153.581 25.817L152.996 25.934C152.502 26.038 152.112 26.298 151.826 26.714C151.566 27.104 151.345 27.663 151.163 28.391L145.118 52.766C145.066 53.026 144.975 53.195 144.845 53.273C144.741 53.351 144.637 53.39 144.533 53.39ZM156.011 53.351C154.919 53.351 154.022 53.013 153.32 52.337C152.618 51.635 152.267 50.712 152.267 49.568C152.267 48.45 152.618 47.397 153.32 46.409C154.022 45.395 154.984 44.485 156.206 43.679C157.428 42.873 158.819 42.223 160.379 41.729C160.717 41.625 160.886 41.404 160.886 41.066V37.517C160.886 36.269 160.691 35.385 160.301 34.865C159.911 34.319 159.378 34.046 158.702 34.046C158.052 34.046 157.454 34.345 156.908 34.943C156.388 35.515 156.011 36.49 155.777 37.868C155.647 38.7 155.361 39.311 154.919 39.701C154.503 40.065 154.074 40.247 153.632 40.247C152.904 40.247 152.54 39.883 152.54 39.155C152.54 38.401 152.748 37.66 153.164 36.932C153.606 36.178 154.178 35.502 154.88 34.904C155.582 34.28 156.349 33.786 157.181 33.422C158.013 33.058 158.845 32.876 159.677 32.876C162.251 32.876 163.538 34.371 163.538 37.361V49.295C163.538 50.387 163.811 50.933 164.357 50.933C164.695 50.933 165.007 50.712 165.293 50.27C165.579 49.802 165.722 49.022 165.722 47.93C165.722 47.514 165.891 47.306 166.229 47.306C166.541 47.306 166.697 47.527 166.697 47.969C166.697 49.867 166.359 51.245 165.683 52.103C165.033 52.935 164.292 53.351 163.46 53.351C162.836 53.351 162.342 53.104 161.978 52.61C161.614 52.09 161.367 51.479 161.237 50.777C161.211 50.517 161.094 50.387 160.886 50.387C160.704 50.361 160.522 50.478 160.34 50.738C159.716 51.596 159.079 52.246 158.429 52.688C157.779 53.13 156.973 53.351 156.011 53.351ZM157.064 51.557C157.74 51.557 158.364 51.323 158.936 50.855C159.508 50.361 159.976 49.711 160.34 48.905C160.704 48.099 160.886 47.189 160.886 46.175V43.328C160.886 42.834 160.613 42.691 160.067 42.899C158.481 43.471 157.246 44.264 156.362 45.278C155.504 46.266 155.075 47.462 155.075 48.866C155.075 50.66 155.738 51.557 157.064 51.557ZM168.078 53C167.688 53 167.493 52.857 167.493 52.571C167.493 52.337 167.662 52.181 168 52.103L168.468 52.025C169.014 51.921 169.365 51.765 169.521 51.557C169.703 51.323 169.794 50.933 169.794 50.387V37.283C169.794 36.815 169.716 36.503 169.56 36.347C169.43 36.165 169.183 36.048 168.819 35.996L168 35.879C167.662 35.853 167.493 35.71 167.493 35.45C167.493 35.242 167.701 35.099 168.117 35.021C168.923 34.891 169.534 34.683 169.95 34.397C170.392 34.111 170.847 33.76 171.315 33.344C171.549 33.11 171.744 32.993 171.9 32.993C172.134 32.993 172.251 33.149 172.251 33.461V35.216C172.251 35.398 172.329 35.541 172.485 35.645C172.641 35.723 172.81 35.671 172.992 35.489C174.058 34.475 174.981 33.786 175.761 33.422C176.567 33.058 177.373 32.876 178.179 32.876C178.933 32.876 179.596 33.084 180.168 33.5C180.766 33.89 181.208 34.488 181.494 35.294C181.572 35.502 181.702 35.632 181.884 35.684C182.092 35.71 182.287 35.632 182.469 35.45C183.535 34.462 184.458 33.786 185.238 33.422C186.018 33.058 186.811 32.876 187.617 32.876C188.709 32.876 189.593 33.292 190.269 34.124C190.971 34.93 191.322 36.126 191.322 37.712V50.387C191.322 50.933 191.4 51.323 191.556 51.557C191.738 51.765 192.102 51.908 192.648 51.986L193.506 52.103C193.792 52.155 193.935 52.311 193.935 52.571C193.935 52.857 193.779 53 193.467 53H186.798C186.434 53 186.252 52.857 186.252 52.571C186.252 52.311 186.395 52.155 186.681 52.103L187.227 52.025C187.825 51.947 188.215 51.791 188.397 51.557C188.579 51.323 188.67 50.933 188.67 50.387V38.141C188.67 36.867 188.436 35.97 187.968 35.45C187.526 34.93 186.915 34.67 186.135 34.67C185.355 34.67 184.64 34.917 183.99 35.411C183.366 35.879 182.859 36.516 182.469 37.322C182.079 38.102 181.884 38.973 181.884 39.935V50.387C181.884 50.933 181.975 51.323 182.157 51.557C182.339 51.765 182.716 51.908 183.288 51.986L184.146 52.103C184.432 52.155 184.575 52.311 184.575 52.571C184.575 52.857 184.419 53 184.107 53H177.477C177.113 53 176.931 52.857 176.931 52.571C176.931 52.311 177.074 52.155 177.36 52.103L177.906 52.025C178.452 51.947 178.803 51.791 178.959 51.557C179.141 51.323 179.232 50.933 179.232 50.387V38.141C179.232 36.867 178.998 35.97 178.53 35.45C178.088 34.93 177.477 34.67 176.697 34.67C175.917 34.67 175.202 34.917 174.552 35.411C173.928 35.879 173.421 36.516 173.031 37.322C172.641 38.102 172.446 38.973 172.446 39.935V50.387C172.446 50.933 172.524 51.323 172.68 51.557C172.862 51.791 173.226 51.934 173.772 51.986L174.825 52.103C175.111 52.155 175.254 52.298 175.254 52.532C175.254 52.844 175.059 53 174.669 53H168.078ZM199.477 53.351C198.879 53.351 198.242 53.273 197.566 53.117C196.89 52.987 196.344 52.818 195.928 52.61C195.694 52.48 195.577 52.259 195.577 51.947L195.46 47.579C195.46 47.137 195.629 46.916 195.967 46.916C196.253 46.916 196.448 47.124 196.552 47.54C196.994 49.386 197.527 50.647 198.151 51.323C198.801 51.999 199.581 52.337 200.491 52.337C201.245 52.337 201.869 52.051 202.363 51.479C202.857 50.881 203.104 50.062 203.104 49.022C203.104 47.982 202.818 47.059 202.246 46.253C201.674 45.447 200.712 44.563 199.36 43.601C198.008 42.691 197.02 41.781 196.396 40.871C195.772 39.935 195.46 38.921 195.46 37.829C195.46 36.347 195.98 35.151 197.02 34.241C198.06 33.331 199.438 32.876 201.154 32.876C201.674 32.876 202.181 32.941 202.675 33.071C203.169 33.175 203.611 33.357 204.001 33.617C204.235 33.773 204.352 33.981 204.352 34.241L204.43 38.531C204.43 38.921 204.274 39.116 203.962 39.116C203.78 39.116 203.65 39.064 203.572 38.96C203.494 38.83 203.429 38.674 203.377 38.492C202.857 36.802 202.337 35.632 201.817 34.982C201.297 34.306 200.66 33.968 199.906 33.968C199.23 33.968 198.671 34.202 198.229 34.67C197.787 35.138 197.566 35.723 197.566 36.425C197.566 37.335 197.839 38.128 198.385 38.804C198.931 39.48 199.919 40.312 201.349 41.3C202.649 42.236 203.624 43.25 204.274 44.342C204.95 45.408 205.288 46.578 205.288 47.852C205.288 49.516 204.755 50.855 203.689 51.869C202.623 52.857 201.219 53.351 199.477 53.351ZM210.811 29.405C210.265 29.405 209.797 29.21 209.407 28.82C209.043 28.43 208.861 27.936 208.861 27.338C208.861 26.74 209.043 26.259 209.407 25.895C209.797 25.505 210.265 25.31 210.811 25.31C211.357 25.31 211.812 25.505 212.176 25.895C212.54 26.259 212.722 26.74 212.722 27.338C212.722 27.936 212.54 28.43 212.176 28.82C211.812 29.21 211.357 29.405 210.811 29.405ZM207.535 53C207.145 53 206.95 52.857 206.95 52.571C206.95 52.337 207.119 52.181 207.457 52.103L207.925 52.025C208.575 51.921 208.991 51.765 209.173 51.557C209.355 51.323 209.446 50.933 209.446 50.387V37.283C209.446 36.815 209.368 36.503 209.212 36.347C209.082 36.165 208.835 36.048 208.471 35.996L207.652 35.879C207.314 35.853 207.145 35.71 207.145 35.45C207.145 35.242 207.353 35.099 207.769 35.021C208.575 34.891 209.225 34.683 209.719 34.397C210.213 34.111 210.694 33.76 211.162 33.344C211.396 33.11 211.591 32.993 211.747 32.993C211.981 32.993 212.098 33.149 212.098 33.461V50.387C212.098 50.933 212.176 51.323 212.332 51.557C212.488 51.791 212.787 51.934 213.229 51.986L214.204 52.103C214.49 52.155 214.633 52.298 214.633 52.532C214.633 52.844 214.438 53 214.048 53H207.535ZM223.002 53C222.612 53 222.417 52.857 222.417 52.571C222.417 52.337 222.586 52.181 222.924 52.103L223.821 51.947C224.367 51.843 224.718 51.7 224.874 51.518C225.056 51.336 225.147 50.972 225.147 50.426V27.494C225.147 26.948 225.056 26.584 224.874 26.402C224.718 26.22 224.367 26.077 223.821 25.973L222.924 25.817C222.586 25.739 222.417 25.583 222.417 25.349C222.417 25.063 222.612 24.92 223.002 24.92H230.919C232.219 24.92 233.376 25.193 234.39 25.739C235.404 26.285 236.197 27.026 236.769 27.962C237.367 28.898 237.666 29.964 237.666 31.16C237.666 32.33 237.315 33.422 236.613 34.436C235.937 35.424 234.949 36.256 233.649 36.932C233.493 37.01 233.415 37.114 233.415 37.244C233.415 37.374 233.506 37.465 233.688 37.517C235.456 38.115 236.821 39.077 237.783 40.403C238.745 41.703 239.226 43.25 239.226 45.044C239.226 46.578 238.875 47.956 238.173 49.178C237.471 50.374 236.496 51.31 235.248 51.986C234.026 52.662 232.635 53 231.075 53H223.002ZM229.983 36.971C231.361 36.971 232.505 36.438 233.415 35.372C234.351 34.28 234.819 32.928 234.819 31.316C234.819 29.704 234.377 28.404 233.493 27.416C232.609 26.402 231.439 25.895 229.983 25.895C228.605 25.895 227.916 26.415 227.916 27.455V34.826C227.916 35.58 228.072 36.126 228.384 36.464C228.722 36.802 229.255 36.971 229.983 36.971ZM230.568 52.025C232.258 52.025 233.636 51.388 234.702 50.114C235.768 48.814 236.301 47.085 236.301 44.927C236.301 42.769 235.755 41.066 234.663 39.818C233.597 38.57 232.154 37.946 230.334 37.946C228.722 37.946 227.916 38.583 227.916 39.857V49.334C227.916 51.128 228.8 52.025 230.568 52.025ZM244.98 53.351C243.888 53.351 242.991 53.013 242.289 52.337C241.587 51.635 241.236 50.712 241.236 49.568C241.236 48.45 241.587 47.397 242.289 46.409C242.991 45.395 243.953 44.485 245.175 43.679C246.397 42.873 247.788 42.223 249.348 41.729C249.686 41.625 249.855 41.404 249.855 41.066V37.517C249.855 36.269 249.66 35.385 249.27 34.865C248.88 34.319 248.347 34.046 247.671 34.046C247.021 34.046 246.423 34.345 245.877 34.943C245.357 35.515 244.98 36.49 244.746 37.868C244.616 38.7 244.33 39.311 243.888 39.701C243.472 40.065 243.043 40.247 242.601 40.247C241.873 40.247 241.509 39.883 241.509 39.155C241.509 38.401 241.717 37.66 242.133 36.932C242.575 36.178 243.147 35.502 243.849 34.904C244.551 34.28 245.318 33.786 246.15 33.422C246.982 33.058 247.814 32.876 248.646 32.876C251.22 32.876 252.507 34.371 252.507 37.361V49.295C252.507 50.387 252.78 50.933 253.326 50.933C253.664 50.933 253.976 50.712 254.262 50.27C254.548 49.802 254.691 49.022 254.691 47.93C254.691 47.514 254.86 47.306 255.198 47.306C255.51 47.306 255.666 47.527 255.666 47.969C255.666 49.867 255.328 51.245 254.652 52.103C254.002 52.935 253.261 53.351 252.429 53.351C251.805 53.351 251.311 53.104 250.947 52.61C250.583 52.09 250.336 51.479 250.206 50.777C250.18 50.517 250.063 50.387 249.855 50.387C249.673 50.361 249.491 50.478 249.309 50.738C248.685 51.596 248.048 52.246 247.398 52.688C246.748 53.13 245.942 53.351 244.98 53.351ZM246.033 51.557C246.709 51.557 247.333 51.323 247.905 50.855C248.477 50.361 248.945 49.711 249.309 48.905C249.673 48.099 249.855 47.189 249.855 46.175V43.328C249.855 42.834 249.582 42.691 249.036 42.899C247.45 43.471 246.215 44.264 245.331 45.278C244.473 46.266 244.044 47.462 244.044 48.866C244.044 50.66 244.707 51.557 246.033 51.557ZM261.381 53.351C260.471 53.351 259.717 53.039 259.119 52.415C258.547 51.765 258.261 50.712 258.261 49.256V34.67C258.261 34.358 258.105 34.202 257.793 34.202H256.662C256.246 34.202 256.038 34.046 256.038 33.734C256.038 33.526 256.155 33.344 256.389 33.188C257.247 32.59 257.936 31.953 258.456 31.277C258.976 30.575 259.431 29.626 259.821 28.43C260.003 27.884 260.224 27.611 260.484 27.611C260.77 27.611 260.913 27.819 260.913 28.235V32.564C260.913 32.928 261.095 33.11 261.459 33.11H263.994C264.41 33.11 264.618 33.292 264.618 33.656C264.618 34.02 264.41 34.202 263.994 34.202H261.459C261.095 34.202 260.913 34.384 260.913 34.748V49.295C260.913 49.867 261.004 50.322 261.186 50.66C261.368 50.972 261.706 51.128 262.2 51.128C262.746 51.128 263.188 50.855 263.526 50.309C263.89 49.763 264.124 48.879 264.228 47.657C264.28 47.293 264.449 47.111 264.735 47.111C265.047 47.111 265.203 47.306 265.203 47.696C265.125 49.698 264.709 51.141 263.955 52.025C263.227 52.909 262.369 53.351 261.381 53.351ZM272.761 53.351C271.617 53.351 270.577 52.974 269.641 52.22C268.731 51.44 268.003 50.335 267.457 48.905C266.911 47.475 266.638 45.772 266.638 43.796C266.638 41.586 266.963 39.662 267.613 38.024C268.289 36.386 269.199 35.125 270.343 34.241C271.487 33.331 272.761 32.876 274.165 32.876C275.361 32.876 276.297 33.11 276.973 33.578C277.233 33.76 277.363 34.046 277.363 34.436L277.441 39.194C277.441 39.584 277.285 39.779 276.973 39.779C276.687 39.779 276.505 39.61 276.427 39.272C276.063 37.842 275.712 36.737 275.374 35.957C275.036 35.177 274.685 34.644 274.321 34.358C273.957 34.046 273.554 33.89 273.112 33.89C272.592 33.89 272.046 34.189 271.474 34.787C270.928 35.385 270.46 36.36 270.07 37.712C269.706 39.038 269.524 40.793 269.524 42.977C269.524 45.759 269.875 47.852 270.577 49.256C271.305 50.66 272.241 51.362 273.385 51.362C274.295 51.362 275.049 50.985 275.647 50.231C276.271 49.477 276.804 48.112 277.246 46.136C277.324 45.85 277.48 45.707 277.714 45.707C278.026 45.707 278.143 45.967 278.065 46.487C277.779 48.307 277.376 49.724 276.856 50.738C276.362 51.726 275.764 52.415 275.062 52.805C274.386 53.169 273.619 53.351 272.761 53.351ZM280.01 53C279.698 53 279.542 52.857 279.542 52.571C279.542 52.311 279.685 52.155 279.971 52.103L280.517 52.025C281.063 51.947 281.414 51.791 281.57 51.557C281.752 51.323 281.843 50.933 281.843 50.387V28.04C281.843 27.572 281.765 27.26 281.609 27.104C281.479 26.922 281.232 26.805 280.868 26.753L280.049 26.636C279.763 26.584 279.62 26.428 279.62 26.168C279.62 25.908 279.763 25.752 280.049 25.7C280.777 25.544 281.388 25.362 281.882 25.154C282.376 24.946 282.792 24.738 283.13 24.53C283.546 24.27 283.858 24.14 284.066 24.14C284.352 24.14 284.495 24.348 284.495 24.764V35.099C284.495 35.333 284.573 35.476 284.729 35.528C284.885 35.554 285.08 35.463 285.314 35.255C286.302 34.345 287.173 33.721 287.927 33.383C288.681 33.045 289.474 32.876 290.306 32.876C291.528 32.876 292.49 33.292 293.192 34.124C293.894 34.93 294.245 36.126 294.245 37.712V50.387C294.245 50.933 294.323 51.323 294.479 51.557C294.661 51.765 295.025 51.908 295.571 51.986L296.429 52.103C296.715 52.155 296.858 52.311 296.858 52.571C296.858 52.857 296.702 53 296.39 53H289.838C289.474 53 289.292 52.857 289.292 52.571C289.292 52.311 289.435 52.155 289.721 52.103L290.267 52.025C290.813 51.947 291.164 51.791 291.32 51.557C291.502 51.323 291.593 50.933 291.593 50.387V38.141C291.593 36.867 291.359 35.97 290.891 35.45C290.423 34.93 289.76 34.67 288.902 34.67C288.07 34.67 287.316 34.917 286.64 35.411C285.99 35.879 285.47 36.516 285.08 37.322C284.69 38.102 284.495 38.973 284.495 39.935V50.387C284.495 50.933 284.573 51.323 284.729 51.557C284.911 51.791 285.275 51.934 285.821 51.986L286.874 52.103C287.16 52.155 287.303 52.311 287.303 52.571C287.303 52.857 287.147 53 286.835 53H280.01ZM303.945 53.351C303.295 53.351 302.671 53.208 302.073 52.922C301.475 52.636 300.981 52.181 300.591 51.557C300.201 50.933 300.006 50.101 300.006 49.061V35.489C300.006 35.021 299.928 34.696 299.772 34.514C299.642 34.332 299.395 34.228 299.031 34.202L298.368 34.124C297.926 34.072 297.705 33.903 297.705 33.617C297.705 33.279 297.952 33.11 298.446 33.11H302.073C302.463 33.11 302.658 33.305 302.658 33.695V48.242C302.658 49.438 302.879 50.296 303.321 50.816C303.789 51.31 304.426 51.557 305.232 51.557C306.038 51.557 306.753 51.336 307.377 50.894C308.001 50.426 308.495 49.815 308.859 49.061C309.249 48.281 309.444 47.436 309.444 46.526V35.489C309.444 35.021 309.366 34.696 309.21 34.514C309.08 34.332 308.833 34.228 308.469 34.202L307.806 34.124C307.364 34.072 307.143 33.903 307.143 33.617C307.143 33.279 307.39 33.11 307.884 33.11H311.511C311.901 33.11 312.096 33.305 312.096 33.695V48.827C312.096 49.295 312.161 49.62 312.291 49.802C312.447 49.958 312.707 50.062 313.071 50.114L313.89 50.231C314.228 50.257 314.397 50.387 314.397 50.621C314.397 50.855 314.189 51.011 313.773 51.089C312.967 51.193 312.317 51.401 311.823 51.713C311.355 52.025 310.939 52.402 310.575 52.844C310.341 53.078 310.146 53.195 309.99 53.195C309.756 53.195 309.639 53.039 309.639 52.727V50.933C309.639 50.725 309.561 50.608 309.405 50.582C309.275 50.53 309.132 50.582 308.976 50.738C308.014 51.7 307.156 52.376 306.402 52.766C305.674 53.156 304.855 53.351 303.945 53.351Z" fill="white"/>
</svg>
