<svg width="89" height="89" viewBox="0 0 89 89" fill="none" xmlns="http://www.w3.org/2000/svg">
<path d="M13.3333 30.5185V20.6666C13.3333 16.0029 17.1141 12.2222 21.7778 12.2222H31.1605" stroke="white" stroke-width="3.33333" stroke-linecap="round"/>
<path d="M13.3333 57.7286V67.5805C13.3333 72.2442 17.114 76.0249 21.7778 76.0249H31.1605" stroke="white" stroke-width="3.33333" stroke-linecap="round"/>
<path d="M76.6667 30.5185V20.6666C76.6667 16.0029 72.8859 12.2222 68.2222 12.2222H58.8395" stroke="white" stroke-width="3.33333" stroke-linecap="round"/>
<path d="M76.6667 57.7286V67.5805C76.6667 72.2442 72.8859 76.0249 68.2222 76.0249H58.8395" stroke="white" stroke-width="3.33333" stroke-linecap="round"/>
<path d="M55.5556 57.5552L54.1456 58.1818C48.3231 60.7696 41.6769 60.7696 35.8544 58.1818L34.4445 57.5552" stroke="white" stroke-width="3.33333" stroke-linecap="round"/>
<path d="M46.3951 34.0986V45.6709C46.3951 47.4436 45.1548 48.9745 43.4208 49.3423L41.9506 49.6542" stroke="white" stroke-width="3.33333" stroke-linecap="round"/>
<path d="M31.6296 34.0986L31.6296 39.6542" stroke="white" stroke-width="3.33333" stroke-linecap="round"/>
<path d="M58.8395 34.0986L58.8395 39.6542" stroke="white" stroke-width="3.33333" stroke-linecap="round"/>
</svg>
