<svg width="64" height="64" viewBox="0 0 64 64" fill="none" xmlns="http://www.w3.org/2000/svg">
<path d="M25.6818 10.4C24.3279 5.6 26.1649 0 32.0001 0C37.8354 0 39.6726 5.6 38.3186 10.4C37.365 13.7806 34.8444 21.5262 33.437 25.8115C33.1778 26.601 33.7013 27.4316 34.4214 27.8499C35.1409 28.2679 36.1006 28.2858 36.6564 27.6677C39.6756 24.3107 45.1469 18.2598 47.6079 15.7458C51.1014 12.1771 56.8854 10.9628 59.803 15.9999C62.7206 21.0371 58.7737 25.4229 53.9263 26.6541C50.5121 27.5213 42.5214 29.2184 38.0946 30.1462C37.2793 30.3171 36.8158 31.1695 36.8158 32C36.8158 32.8305 37.2793 33.6829 38.0946 33.8537C42.5214 34.7815 50.5122 36.4786 53.9263 37.3458C58.7737 38.5771 62.7207 42.9628 59.8031 48C56.8855 53.0371 51.1014 51.8229 47.6079 48.2541C45.147 45.7401 39.6756 39.6893 36.6565 36.3322C36.1007 35.7142 35.1409 35.7321 34.4215 36.15C33.7014 36.5684 33.1778 37.399 33.4371 38.1885C34.8444 42.4738 37.365 50.2194 38.3186 53.6C39.6725 58.4 37.8355 64 32.0002 64C26.165 64 24.3278 58.4 25.6818 53.6C26.6354 50.2194 29.156 42.4738 30.5633 38.1885C30.8226 37.399 30.299 36.5684 29.5789 36.1501C28.8595 35.7321 27.8997 35.7142 27.3439 36.3323C24.3248 39.6893 18.8535 45.7402 16.3925 48.2542C12.899 51.8229 7.11498 53.0372 4.19736 48.0001C1.27973 42.9629 5.22665 38.5771 10.0741 37.3459C13.4883 36.4787 21.479 34.7816 25.9057 33.8538C26.7211 33.6829 27.1846 32.8305 27.1846 32C27.1846 31.1695 26.7211 30.3171 25.9057 30.1462C21.479 29.2185 13.4882 27.5214 10.0741 26.6542C5.22665 25.4229 1.27966 21.0372 4.19729 16C7.11492 10.9629 12.899 12.1771 16.3924 15.7459C18.8534 18.2599 24.3248 24.3107 27.3439 27.6677C27.8997 28.2858 28.8595 28.2679 29.5789 27.85C30.299 27.4316 30.8226 26.601 30.5633 25.8115C29.156 21.5262 26.6353 13.7806 25.6818 10.4Z" fill="white"/>
</svg>
