<svg width="44" height="44" viewBox="0 0 44 44" fill="none" xmlns="http://www.w3.org/2000/svg">
<path d="M11.2968 3.59111C11.6373 1.09313 14.5442 -0.110926 16.5512 1.41466L20.0077 4.04196C21.1851 4.93692 22.8149 4.93692 23.9923 4.04196L27.4488 1.41466C29.4558 -0.110926 32.3627 1.09314 32.7032 3.59111L33.2895 7.89299C33.4892 9.35839 34.6416 10.5108 36.107 10.7105L40.4089 11.2968C42.9069 11.6373 44.1109 14.5442 42.5853 16.5512L39.958 20.0077C39.0631 21.1851 39.0631 22.8149 39.958 23.9923L42.5853 27.4488C44.1109 29.4558 42.9069 32.3627 40.4089 32.7032L36.107 33.2895C34.6416 33.4892 33.4892 34.6416 33.2895 36.107L32.7032 40.4089C32.3627 42.9069 29.4558 44.1109 27.4488 42.5853L23.9923 39.958C22.8149 39.0631 21.1851 39.0631 20.0077 39.958L16.5512 42.5853C14.5442 44.1109 11.6373 42.9069 11.2968 40.4089L10.7105 36.107C10.5108 34.6416 9.35839 33.4892 7.89299 33.2895L3.59111 32.7032C1.09313 32.3627 -0.110927 29.4558 1.41466 27.4488L4.04196 23.9923C4.93692 22.8149 4.93692 21.1851 4.04196 20.0077L1.41466 16.5512C-0.110927 14.5442 1.09313 11.6373 3.59111 11.2968L7.89299 10.7105C9.35839 10.5108 10.5108 9.35839 10.7105 7.89299L11.2968 3.59111Z" fill="#F37A53"/>
</svg>
