<svg width="48" height="48" viewBox="0 0 48 48" fill="none" xmlns="http://www.w3.org/2000/svg">
<g clip-path="url(#clip0_1361_5598)">
<path d="M-0.00146405 0.295899C-0.00309065 6.58183 2.49297 12.611 6.93766 17.0571C11.3823 21.5032 17.4116 24.0021 23.6991 24.0042L23.6991 0.295899L-0.00146405 0.295899ZM23.6991 24.0042L47.4074 24.0042L47.4074 0.295899C44.2934 0.295496 41.2098 0.908499 38.3328 2.09988C35.4558 3.29127 32.8418 5.03768 30.6401 7.23936C28.4384 9.44104 26.6922 12.0548 25.5013 14.9314C24.3103 17.808 23.6979 20.8909 23.6991 24.0042ZM23.6991 24.0042L23.6991 47.7048H47.4074C47.4076 44.5922 46.7945 41.51 45.6031 38.6344C44.4117 35.7587 42.6654 33.1458 40.4638 30.9449C38.2622 28.7441 35.6485 26.9983 32.772 25.8074C29.8955 24.6165 26.8125 24.0038 23.6991 24.0042ZM23.6991 24.0042L-0.00146405 24.0042L-0.00146405 47.7048C6.28502 47.7036 12.3136 45.206 16.7582 40.7613C21.2029 36.3167 23.6995 30.289 23.6991 24.0042Z" fill="#AB95CE"/>
</g>
<defs>
<clipPath id="clip0_1361_5598">
<rect y="0.295898" width="47.4089" height="47.4089" rx="13.1691" fill="white"/>
</clipPath>
</defs>
</svg>
