<svg width="48" height="48" viewBox="0 0 48 48" fill="none" xmlns="http://www.w3.org/2000/svg">
<path d="M48 8C48 12.4183 44.4183 16 40 16C35.5817 16 32 12.4183 32 8C32 3.58172 35.5817 0 40 0C44.4183 0 48 3.58172 48 8Z" fill="#FF8BEF"/>
<path d="M48 24C48 28.4183 44.4183 32 40 32C35.5817 32 32 28.4183 32 24C32 19.5817 35.5817 16 40 16C44.4183 16 48 19.5817 48 24Z" fill="#FF8BEF"/>
<path d="M48 40C48 44.4183 44.4183 48 40 48C35.5817 48 32 44.4183 32 40C32 35.5817 35.5817 32 40 32C44.4183 32 48 35.5817 48 40Z" fill="#FF8BEF"/>
<path d="M32 8C32 12.4183 28.4183 16 24 16C19.5817 16 16 12.4183 16 8C16 3.58172 19.5817 0 24 0C28.4183 0 32 3.58172 32 8Z" fill="#FF8BEF"/>
<path d="M32 24C32 28.4183 28.4183 32 24 32C19.5817 32 16 28.4183 16 24C16 19.5817 19.5817 16 24 16C28.4183 16 32 19.5817 32 24Z" fill="#FF8BEF"/>
<path d="M32 40C32 44.4183 28.4183 48 24 48C19.5817 48 16 44.4183 16 40C16 35.5817 19.5817 32 24 32C28.4183 32 32 35.5817 32 40Z" fill="#FF8BEF"/>
<path d="M16 8C16 12.4183 12.4183 16 8 16C3.58172 16 0 12.4183 0 8C0 3.58172 3.58172 0 8 0C12.4183 0 16 3.58172 16 8Z" fill="#FF8BEF"/>
<path d="M16 24C16 28.4183 12.4183 32 8 32C3.58172 32 0 28.4183 0 24C0 19.5817 3.58172 16 8 16C12.4183 16 16 19.5817 16 24Z" fill="#FF8BEF"/>
<path d="M16 40C16 44.4183 12.4183 48 8 48C3.58172 48 0 44.4183 0 40C0 35.5817 3.58172 32 8 32C12.4183 32 16 35.5817 16 40Z" fill="#FF8BEF"/>
</svg>
