<svg width="76" height="76" viewBox="0 0 76 76" fill="none" xmlns="http://www.w3.org/2000/svg">
<rect x="0.953125" y="0.905762" width="74.95" height="74.95" fill="#2973DE"/>
<g clip-path="url(#clip0_124_1704)">
<path d="M62.1404 32.2929C68.0136 33.6201 71.6382 35.6714 71.6382 38.5902C71.6382 41.5089 68.0136 43.5603 62.1404 44.8874C66.5633 48.9735 68.6768 52.5624 67.2173 55.0902C65.7579 57.6179 61.5932 57.5821 55.8431 55.7948C57.6304 61.5449 57.6663 65.7096 55.1385 67.169C52.6107 68.6285 49.0217 66.5149 44.9356 62.0918C43.6084 67.9654 41.557 71.5902 38.6382 71.5902C35.7194 71.5902 33.6681 67.9656 32.3409 62.0924C28.255 66.5151 24.6662 68.6284 22.1385 67.169C19.6108 65.7096 19.6466 61.5449 21.4339 55.7948C15.6838 57.5821 11.5191 57.6179 10.0597 55.0902C8.60028 52.5624 10.7136 48.9736 15.1365 44.8876C9.26299 43.5604 5.63818 41.509 5.63818 38.5902C5.63818 35.6713 9.26299 33.62 15.1365 32.2928C10.7136 28.2068 8.60028 24.6179 10.0597 22.0902C11.5191 19.5624 15.6838 19.5982 21.4339 21.3856C19.6466 15.6355 19.6108 11.4707 22.1385 10.0113C24.6662 8.55197 28.255 10.6652 32.3409 15.088C33.6681 9.21476 35.7194 5.59018 38.6382 5.59018C41.557 5.59018 43.6084 9.21499 44.9356 15.0885C49.0217 10.6654 52.6107 8.55191 55.1385 10.0113C57.6663 11.4707 57.6304 15.6355 55.8431 21.3856C61.5932 19.5982 65.7579 19.5624 67.2173 22.0902C68.6768 24.6179 66.5633 28.2069 62.1404 32.2929Z" fill="white"/>
</g>
<defs>
<clipPath id="clip0_124_1704">
<rect width="65.5812" height="65.5812" fill="white" transform="translate(5.63818 5.59018)"/>
</clipPath>
</defs>
</svg>
