<svg width="236" height="237" viewBox="0 0 236 237" fill="none" xmlns="http://www.w3.org/2000/svg">
<path fill-rule="evenodd" clip-rule="evenodd" d="M0 0H235.561V236.297H0V0ZM15.9834 0.00012511H19.9607V7.04163C22.947 7.90343 25.1311 10.6571 25.1311 13.9209C25.1311 17.8748 21.9258 21.0801 17.9719 21.0801C14.018 21.0801 10.8127 17.8748 10.8127 13.9209C10.8127 10.6571 12.9969 7.9033 15.9834 7.04157V0.00012511ZM41.114 0.00012511H45.0913V7.04163C48.0777 7.90343 50.2617 10.6571 50.2617 13.9209C50.2617 17.8748 47.0565 21.0801 43.1026 21.0801C39.1487 21.0801 35.9434 17.8748 35.9434 13.9209C35.9434 10.6571 38.1276 7.9033 41.114 7.04157V0.00012511ZM66.2449 0.00012511H70.2223V7.04163C73.2086 7.90342 75.3927 10.6571 75.3927 13.9209C75.3927 17.8748 72.1874 21.0801 68.2335 21.0801C64.2796 21.0801 61.0743 17.8748 61.0743 13.9209C61.0743 10.6571 63.2585 7.9033 66.2449 7.04157V0.00012511ZM91.3759 0.00012511H95.3532V7.04163C98.3395 7.90342 100.524 10.6571 100.524 13.9209C100.524 17.8748 97.3183 21.0801 93.3644 21.0801C89.4105 21.0801 86.2053 17.8748 86.2053 13.9209C86.2053 10.6571 88.3894 7.90329 91.3759 7.04157V0.00012511ZM116.507 0.00012511H120.484V7.04158C123.47 7.90331 125.655 10.6571 125.655 13.9209C125.655 17.8748 122.449 21.0801 118.495 21.0801C114.541 21.0801 111.336 17.8748 111.336 13.9209C111.336 10.6571 113.52 7.90341 116.507 7.04163V0.00012511ZM141.638 0.00012511H145.615V7.04157C148.601 7.90331 150.785 10.6571 150.785 13.9209C150.785 17.8748 147.58 21.0801 143.626 21.0801C139.672 21.0801 136.467 17.8748 136.467 13.9209C136.467 10.6571 138.651 7.90341 141.638 7.04162V0.00012511ZM166.768 0.00012511H170.746V7.04158C173.732 7.90332 175.916 10.6571 175.916 13.9209C175.916 17.8748 172.711 21.0801 168.757 21.0801C164.803 21.0801 161.598 17.8748 161.598 13.9209C161.598 10.6571 163.782 7.90341 166.768 7.04162V0.00012511ZM191.899 0.00012511H195.877V7.04158C198.863 7.90331 201.047 10.6571 201.047 13.9209C201.047 17.8748 197.842 21.0801 193.888 21.0801C189.934 21.0801 186.729 17.8748 186.729 13.9209C186.729 10.6571 188.913 7.90342 191.899 7.04163V0.00012511ZM217.03 0.00012511H221.007V7.04158C223.994 7.90331 226.178 10.6571 226.178 13.9209C226.178 17.8748 222.973 21.0801 219.019 21.0801C215.065 21.0801 211.86 17.8748 211.86 13.9209C211.86 10.6571 214.044 7.90342 217.03 7.04163V0.00012511Z" fill="#F6F6F6"/>
</svg>
