<svg width="48" height="48" viewBox="0 0 48 48" fill="none" xmlns="http://www.w3.org/2000/svg">
<g clip-path="url(#clip0_1170_19802)">
<path d="M-0.00195233 -0.000488083C-0.00357893 6.28545 2.49249 12.3146 6.93717 16.7607C11.3819 21.2068 17.4111 23.7058 23.6987 23.7078L23.6987 -0.000488083L-0.00195233 -0.000488083ZM23.6987 23.7078L47.4069 23.7078L47.4069 -0.000488083C44.2929 -0.000890987 41.2093 0.612112 38.3323 1.8035C35.4553 2.99488 32.8413 4.7413 30.6396 6.94298C28.4379 9.14465 26.6917 11.7584 25.5008 14.635C24.3098 17.5116 23.6974 20.5945 23.6987 23.7078ZM23.6987 23.7078L23.6987 47.4084H47.4069C47.4071 44.2958 46.794 41.2137 45.6026 38.338C44.4112 35.4623 42.6649 32.8494 40.4633 30.6485C38.2617 28.4477 35.6481 26.7019 32.7715 25.511C29.895 24.3201 26.8121 23.7074 23.6987 23.7078ZM23.6987 23.7078L-0.00195233 23.7078L-0.00195233 47.4084C6.28453 47.4072 12.3131 44.9096 16.7577 40.4649C21.2024 36.0203 23.6991 29.9926 23.6987 23.7078Z" fill="#AB95CE"/>
</g>
<defs>
<clipPath id="clip0_1170_19802">
<rect width="47.4089" height="47.4089" rx="13.1691" fill="white"/>
</clipPath>
</defs>
</svg>
