<svg width="48" height="48" viewBox="0 0 48 48" fill="none" xmlns="http://www.w3.org/2000/svg">
<path d="M47.4089 7.90148C47.4089 12.2653 43.8713 15.803 39.5074 15.803C35.1435 15.803 31.6059 12.2653 31.6059 7.90148C31.6059 3.53761 35.1435 0 39.5074 0C43.8713 0 47.4089 3.53761 47.4089 7.90148Z" fill="#FF8BEF"/>
<path d="M47.4089 23.7044C47.4089 28.0683 43.8713 31.6059 39.5074 31.6059C35.1435 31.6059 31.6059 28.0683 31.6059 23.7044C31.6059 19.3406 35.1435 15.803 39.5074 15.803C43.8713 15.803 47.4089 19.3406 47.4089 23.7044Z" fill="#FF8BEF"/>
<path d="M47.4089 39.5074C47.4089 43.8713 43.8713 47.4089 39.5074 47.4089C35.1435 47.4089 31.6059 43.8713 31.6059 39.5074C31.6059 35.1435 35.1435 31.6059 39.5074 31.6059C43.8713 31.6059 47.4089 35.1435 47.4089 39.5074Z" fill="#FF8BEF"/>
<path d="M31.6059 7.90148C31.6059 12.2653 28.0683 15.803 23.7044 15.803C19.3406 15.803 15.803 12.2653 15.803 7.90148C15.803 3.53761 19.3406 0 23.7044 0C28.0683 0 31.6059 3.53761 31.6059 7.90148Z" fill="#FF8BEF"/>
<path d="M31.6059 23.7044C31.6059 28.0683 28.0683 31.6059 23.7044 31.6059C19.3406 31.6059 15.803 28.0683 15.803 23.7044C15.803 19.3406 19.3406 15.803 23.7044 15.803C28.0683 15.803 31.6059 19.3406 31.6059 23.7044Z" fill="#FF8BEF"/>
<path d="M31.6059 39.5074C31.6059 43.8713 28.0683 47.4089 23.7044 47.4089C19.3406 47.4089 15.803 43.8713 15.803 39.5074C15.803 35.1435 19.3406 31.6059 23.7044 31.6059C28.0683 31.6059 31.6059 35.1435 31.6059 39.5074Z" fill="#FF8BEF"/>
<path d="M15.803 7.90148C15.803 12.2653 12.2653 15.803 7.90148 15.803C3.53761 15.803 0 12.2653 0 7.90148C0 3.53761 3.53761 0 7.90148 0C12.2653 0 15.803 3.53761 15.803 7.90148Z" fill="#FF8BEF"/>
<path d="M15.803 23.7044C15.803 28.0683 12.2653 31.6059 7.90148 31.6059C3.53761 31.6059 0 28.0683 0 23.7044C0 19.3406 3.53761 15.803 7.90148 15.803C12.2653 15.803 15.803 19.3406 15.803 23.7044Z" fill="#FF8BEF"/>
<path d="M15.803 39.5074C15.803 43.8713 12.2653 47.4089 7.90148 47.4089C3.53761 47.4089 0 43.8713 0 39.5074C0 35.1435 3.53761 31.6059 7.90148 31.6059C12.2653 31.6059 15.803 35.1435 15.803 39.5074Z" fill="#FF8BEF"/>
</svg>
