<svg width="35" height="36" viewBox="0 0 35 36" fill="none" xmlns="http://www.w3.org/2000/svg">
<circle cx="17.4085" cy="18.2254" r="17.4085" fill="black"/>
<path d="M11.9082 10.9285C12.1474 9.17335 14.1899 8.32733 15.6001 9.39927V9.39927C16.4275 10.0281 17.5725 10.0281 18.3999 9.39927V9.39927C19.8101 8.32733 21.8526 9.17335 22.0918 10.9285V10.9285C22.2321 11.9582 23.0418 12.7679 24.0715 12.9082V12.9082C25.8266 13.1474 26.6727 15.1899 25.6007 16.6001V16.6001C24.9719 17.4275 24.9719 18.5725 25.6007 19.3999V19.3999C26.6727 20.8101 25.8266 22.8526 24.0715 23.0918V23.0918C23.0418 23.2321 22.2321 24.0418 22.0918 25.0715V25.0715C21.8526 26.8266 19.8101 27.6727 18.3999 26.6007V26.6007C17.5725 25.9719 16.4275 25.9719 15.6001 26.6007V26.6007C14.1899 27.6727 12.1474 26.8266 11.9082 25.0715V25.0715C11.7679 24.0418 10.9582 23.2321 9.92852 23.0918V23.0918C8.17335 22.8526 7.32733 20.8101 8.39927 19.3999V19.3999C9.02811 18.5725 9.02811 17.4275 8.39927 16.6001V16.6001C7.32733 15.1899 8.17335 13.1474 9.92852 12.9082V12.9082C10.9582 12.7679 11.7679 11.9582 11.9082 10.9285V10.9285Z" fill="white"/>
</svg>
