<svg width="31" height="31" viewBox="0 0 31 31" fill="none" xmlns="http://www.w3.org/2000/svg">
<path d="M7.48922 3.59111C7.82968 1.09313 10.7365 -0.110926 12.7436 1.41466L13.5077 1.99546C14.6851 2.89043 16.3149 2.89042 17.4923 1.99546L18.2564 1.41466C20.2635 -0.110926 23.1703 1.09314 23.5108 3.59111L23.6404 4.54209C23.8401 6.00749 24.9925 7.15987 26.4579 7.3596L27.4089 7.48922C29.9069 7.82968 31.1109 10.7365 29.5853 12.7436L29.0045 13.5077C28.1096 14.6851 28.1096 16.3149 29.0045 17.4923L29.5853 18.2564C31.1109 20.2635 29.9069 23.1703 27.4089 23.5108L26.4579 23.6404C24.9925 23.8401 23.8401 24.9925 23.6404 26.4579L23.5108 27.4089C23.1703 29.9069 20.2635 31.1109 18.2564 29.5853L17.4923 29.0045C16.3149 28.1096 14.6851 28.1096 13.5077 29.0045L12.7436 29.5853C10.7365 31.1109 7.82968 29.9069 7.48922 27.4089L7.3596 26.4579C7.15987 24.9925 6.00749 23.8401 4.54209 23.6404L3.59111 23.5108C1.09313 23.1703 -0.110926 20.2635 1.41466 18.2564L1.99546 17.4923C2.89043 16.3149 2.89042 14.6851 1.99546 13.5077L1.41466 12.7436C-0.110927 10.7365 1.09314 7.82968 3.59111 7.48922L4.54209 7.3596C6.0075 7.15987 7.15987 6.00749 7.3596 4.54209L7.48922 3.59111Z" fill="#F37A53"/>
</svg>
