<svg width="35" height="36" viewBox="0 0 35 36" fill="none" xmlns="http://www.w3.org/2000/svg">
<circle cx="17.4085" cy="17.6771" r="17.4085" fill="black"/>
<path d="M26 12C26 13.6569 24.6569 15 23 15C21.3431 15 20 13.6569 20 12C20 10.3431 21.3431 9 23 9C24.6569 9 26 10.3431 26 12Z" fill="white"/>
<path d="M26 18C26 19.6569 24.6569 21 23 21C21.3431 21 20 19.6569 20 18C20 16.3431 21.3431 15 23 15C24.6569 15 26 16.3431 26 18Z" fill="white"/>
<path d="M26 24C26 25.6569 24.6569 27 23 27C21.3431 27 20 25.6569 20 24C20 22.3431 21.3431 21 23 21C24.6569 21 26 22.3431 26 24Z" fill="white"/>
<path d="M20 12C20 13.6569 18.6569 15 17 15C15.3431 15 14 13.6569 14 12C14 10.3431 15.3431 9 17 9C18.6569 9 20 10.3431 20 12Z" fill="white"/>
<path d="M20 18C20 19.6569 18.6569 21 17 21C15.3431 21 14 19.6569 14 18C14 16.3431 15.3431 15 17 15C18.6569 15 20 16.3431 20 18Z" fill="white"/>
<path d="M20 24C20 25.6569 18.6569 27 17 27C15.3431 27 14 25.6569 14 24C14 22.3431 15.3431 21 17 21C18.6569 21 20 22.3431 20 24Z" fill="white"/>
<path d="M14 12C14 13.6569 12.6569 15 11 15C9.34315 15 8 13.6569 8 12C8 10.3431 9.34315 9 11 9C12.6569 9 14 10.3431 14 12Z" fill="white"/>
<path d="M14 18C14 19.6569 12.6569 21 11 21C9.34315 21 8 19.6569 8 18C8 16.3431 9.34315 15 11 15C12.6569 15 14 16.3431 14 18Z" fill="white"/>
<path d="M14 24C14 25.6569 12.6569 27 11 27C9.34315 27 8 25.6569 8 24C8 22.3431 9.34315 21 11 21C12.6569 21 14 22.3431 14 24Z" fill="white"/>
</svg>
