<svg width="35" height="35" viewBox="0 0 35 35" fill="none" xmlns="http://www.w3.org/2000/svg">
<circle cx="17.4085" cy="17.4085" r="17.4085" fill="black"/>
<path d="M20.5648 14.7706C20.1686 14.6715 19.8592 14.3622 19.7602 13.966L18.4748 8.82442C18.1956 7.70759 16.6084 7.70759 16.3292 8.82442L15.0438 13.966C14.9447 14.3622 14.6354 14.6715 14.2392 14.7706L9.09761 16.056C7.98078 16.3352 7.98078 17.9224 9.09761 18.2016L14.2392 19.487C14.6354 19.586 14.9447 19.8954 15.0438 20.2916L16.3292 25.4332C16.6084 26.55 18.1956 26.55 18.4748 25.4332L19.7602 20.2916C19.8592 19.8954 20.1686 19.586 20.5648 19.487L25.7064 18.2016C26.8232 17.9224 26.8232 16.3352 25.7064 16.056L20.5648 14.7706Z" fill="white"/>
</svg>
