<svg width="35" height="36" viewBox="0 0 35 36" fill="none" xmlns="http://www.w3.org/2000/svg">
<circle cx="17.4085" cy="17.8597" r="17.4085" fill="black"/>
<path d="M8 9C7.99938 11.3866 8.94708 13.6757 10.6346 15.3638C12.3222 17.0519 14.6113 18.0007 16.9985 18.0015V9L8 9ZM16.9985 18.0015L26 18.0015V9C24.8177 8.99985 23.6469 9.23259 22.5546 9.68493C21.4622 10.1373 20.4698 10.8003 19.6338 11.6363C18.7979 12.4722 18.1349 13.4646 17.6828 14.5567C17.2306 15.6489 16.9981 16.8194 16.9985 18.0015ZM16.9985 18.0015L16.9985 27L26 27C26.0001 25.8182 25.7673 24.648 25.315 23.5562C24.8626 22.4644 24.1996 21.4723 23.3637 20.6367C22.5278 19.8011 21.5354 19.1383 20.4433 18.6861C19.3512 18.234 18.1806 18.0013 16.9985 18.0015ZM16.9985 18.0015H8L8 27C10.3868 26.9995 12.6757 26.0513 14.3632 24.3637C16.0508 22.6762 16.9987 20.3877 16.9985 18.0015Z" fill="white"/>
</svg>
