<svg width="36" height="37" viewBox="0 0 36 37" fill="none" xmlns="http://www.w3.org/2000/svg">
<path d="M23.6206 14.0537C22.9128 13.8768 22.3602 13.3242 22.1833 12.6165L19.6462 2.4683C19.1475 0.473267 16.3122 0.473267 15.8134 2.4683L13.2764 12.6165C13.0995 13.3242 12.5469 13.8768 11.8391 14.0537L1.69095 16.5908C-0.304077 17.0895 -0.304077 19.9248 1.69095 20.4236L11.8391 22.9606C12.5469 23.1375 13.0995 23.6902 13.2764 24.3979L15.8134 34.5461C16.3122 36.5411 19.1475 36.5411 19.6462 34.5461L22.1833 24.3979C22.3602 23.6902 22.9128 23.1375 23.6206 22.9606L33.7687 20.4236C35.7637 19.9248 35.7637 17.0895 33.7687 16.5908L23.6206 14.0537Z" fill="#3BC4FF"/>
</svg>
