<svg width="64" height="64" viewBox="0 0 64 64" fill="none" xmlns="http://www.w3.org/2000/svg">
<path d="M26.1318 10.4C24.874 5.6 26.5806 0 32.0016 0C37.4226 0 39.1294 5.6 37.8715 10.4C36.9856 13.7806 34.6439 21.5262 33.3365 25.8115C33.0956 26.601 33.582 27.4316 34.251 27.8499C34.9194 28.2679 35.811 28.2858 36.3274 27.6677C39.1322 24.3107 44.2151 18.2598 46.5014 15.7458C49.7469 12.1771 55.1203 10.9628 57.8308 15.9999C60.5413 21.0371 56.8746 25.4229 52.3713 26.6541C49.1994 27.5213 41.776 29.2184 37.6635 30.1462C36.906 30.3171 36.4754 31.1695 36.4754 32C36.4754 32.8305 36.906 33.6829 37.6635 33.8537C41.776 34.7815 49.1995 36.4786 52.3713 37.3458C56.8746 38.5771 60.5414 42.9628 57.8309 48C55.1204 53.0371 49.7469 51.8229 46.5014 48.2541C44.2152 45.7401 39.1322 39.6893 36.3274 36.3322C35.811 35.7142 34.9194 35.7321 34.251 36.15C33.582 36.5684 33.0956 37.399 33.3365 38.1885C34.644 42.4738 36.9856 50.2194 37.8715 53.6C39.1293 58.4 37.4227 64 32.0017 64C26.5807 64 24.8739 58.4 26.1318 53.6C27.0177 50.2194 29.3593 42.4738 30.6668 38.1885C30.9077 37.399 30.4212 36.5684 29.7523 36.1501C29.0839 35.7321 28.1923 35.7142 27.6759 36.3323C24.8711 39.6893 19.7882 45.7402 17.5019 48.2542C14.2564 51.8229 8.88298 53.0372 6.17247 48.0001C3.46196 42.9629 7.1287 38.5771 11.632 37.3459C14.8038 36.4787 22.2273 34.7816 26.3398 33.8538C27.0973 33.6829 27.5279 32.8305 27.5279 32C27.5279 31.1695 27.0973 30.3171 26.3398 30.1462C22.2273 29.2185 14.8038 27.5214 11.632 26.6542C7.1287 25.4229 3.46189 21.0372 6.17241 16C8.88292 10.9629 14.2564 12.1771 17.5018 15.7459C19.7881 18.2599 24.8711 24.3107 27.6759 27.6677C28.1922 28.2858 29.0839 28.2679 29.7522 27.85C30.4212 27.4316 30.9077 26.601 30.6668 25.8115C29.3593 21.5262 27.0176 13.7806 26.1318 10.4Z" fill="white"/>
</svg>
