<svg width="64" height="64" viewBox="0 0 64 64" fill="none" xmlns="http://www.w3.org/2000/svg">
<g clip-path="url(#clip0_175_17954)">
<path d="M64 8C64 12.4183 60.4183 16 56 16C51.5817 16 48 12.4183 48 8C48 3.58172 51.5817 0 56 0C60.4183 0 64 3.58172 64 8Z" fill="white"/>
<path d="M64 56C64 60.4183 60.4183 64 56 64C51.5817 64 48 60.4183 48 56C48 51.5817 51.5817 48 56 48C60.4183 48 64 51.5817 64 56Z" fill="white"/>
<path d="M56 40C60.4183 40 64 36.4183 64 32C64 27.5817 60.4183 24 56 24C51.5817 24 48 27.5817 48 32C48 36.4183 51.5817 40 56 40Z" fill="white"/>
<path d="M40 56C40 60.4183 36.4183 64 32 64C27.5817 64 24 60.4183 24 56C24 51.5817 27.5817 48 32 48C36.4183 48 40 51.5817 40 56Z" fill="white"/>
<path d="M32 16C36.4183 16 40 12.4183 40 8C40 3.58172 36.4183 0 32 0C27.5817 0 24 3.58172 24 8C24 12.4183 27.5817 16 32 16Z" fill="white"/>
<path d="M16 56C16 60.4183 12.4183 64 8 64C3.58172 64 0 60.4183 0 56C0 51.5817 3.58172 48 8 48C12.4183 48 16 51.5817 16 56Z" fill="white"/>
<path d="M32 40C36.4183 40 40 36.4183 40 32C40 27.5817 36.4183 24 32 24C27.5817 24 24 27.5817 24 32C24 36.4183 27.5817 40 32 40Z" fill="white"/>
<path d="M16 8C16 12.4183 12.4183 16 8 16C3.58172 16 0 12.4183 0 8C0 3.58172 3.58172 0 8 0C12.4183 0 16 3.58172 16 8Z" fill="white"/>
<path d="M8 40C12.4183 40 16 36.4183 16 32C16 27.5817 12.4183 24 8 24C3.58172 24 0 27.5817 0 32C0 36.4183 3.58172 40 8 40Z" fill="white"/>
</g>
<defs>
<clipPath id="clip0_175_17954">
<rect width="64" height="64" fill="white"/>
</clipPath>
</defs>
</svg>
